<svg xmlns="http://www.w3.org/2000/svg" width="1000" height="536" viewBox="0 0 1000 536" role="img" aria-label="Category distribution 2003-2025">
<rect width="100%" height="100%" fill="#ffffff"/>
<text x="32" y="38" fill="#0f172a" font-size="24" font-weight="800">Trade Paper Taxonomy, 2003-2025</text>
<text x="32" y="60" fill="#64748b" font-size="14">Selected papers by category</text>
<text x="32" y="96" fill="#172033" font-size="15">General Finance, Surveys, and Trading Systems</text><rect x="420" y="76" width="520" height="26" rx="5" fill="#2563eb"/><text x="950" y="96" fill="#172033" font-size="15" font-weight="700">640</text><text x="32" y="140" fill="#172033" font-size="15">Risk, Volatility, and Forecast Evaluation</text><rect x="420" y="120" width="251" height="26" rx="5" fill="#0f766e"/><text x="681" y="140" fill="#172033" font-size="15" font-weight="700">310</text><text x="32" y="184" fill="#172033" font-size="15">Deep Learning and Financial Time Series</text><rect x="420" y="164" width="190" height="26" rx="5" fill="#a855f7"/><text x="620" y="184" fill="#172033" font-size="15" font-weight="700">234</text><text x="32" y="228" fill="#172033" font-size="15">Asset Pricing and Return Predictability</text><rect x="420" y="208" width="184" height="26" rx="5" fill="#f59e0b"/><text x="614" y="228" fill="#172033" font-size="15" font-weight="700">227</text><text x="32" y="272" fill="#172033" font-size="15">Sentiment, News, and Alternative Data</text><rect x="420" y="252" width="184" height="26" rx="5" fill="#dc2626"/><text x="614" y="272" fill="#172033" font-size="15" font-weight="700">227</text><text x="32" y="316" fill="#172033" font-size="15">Reinforcement Learning and Algorithmic Trading</text><rect x="420" y="296" width="181" height="26" rx="5" fill="#0891b2"/><text x="611" y="316" fill="#172033" font-size="15" font-weight="700">223</text><text x="32" y="360" fill="#172033" font-size="15">Portfolio Optimization and Asset Allocation</text><rect x="420" y="340" width="126" height="26" rx="5" fill="#be123c"/><text x="556" y="360" fill="#172033" font-size="15" font-weight="700">156</text><text x="32" y="404" fill="#172033" font-size="15">Machine Learning for Stock Prediction</text><rect x="420" y="384" width="122" height="26" rx="5" fill="#16a34a"/><text x="552" y="404" fill="#172033" font-size="15" font-weight="700">151</text><text x="32" y="448" fill="#172033" font-size="15">Market Microstructure and High-Frequency Trading</text><rect x="420" y="428" width="90" height="26" rx="5" fill="#64748b"/><text x="520" y="448" fill="#172033" font-size="15" font-weight="700">111</text><text x="32" y="492" fill="#172033" font-size="15">Behavioral Finance and Investor Decision-Making</text><rect x="420" y="472" width="17" height="26" rx="5" fill="#2563eb"/><text x="447" y="492" fill="#172033" font-size="15" font-weight="700">21</text>
</svg>