<svg xmlns="http://www.w3.org/2000/svg" width="1000" height="536" viewBox="0 0 1000 536" role="img" aria-label="Category distribution 2007-2024">
<rect width="100%" height="100%" fill="#ffffff"/>
<text x="32" y="38" fill="#0f172a" font-size="24" font-weight="800">Trade Paper Taxonomy, 2007-2024</text>
<text x="32" y="60" fill="#64748b" font-size="14">Selected papers by category</text>
<text x="32" y="96" fill="#172033" font-size="15">General Finance, Surveys, and Trading Systems</text><rect x="420" y="76" width="520" height="26" rx="5" fill="#2563eb"/><text x="950" y="96" fill="#172033" font-size="15" font-weight="700">470</text><text x="32" y="140" fill="#172033" font-size="15">Risk, Volatility, and Forecast Evaluation</text><rect x="420" y="120" width="269" height="26" rx="5" fill="#0f766e"/><text x="699" y="140" fill="#172033" font-size="15" font-weight="700">244</text><text x="32" y="184" fill="#172033" font-size="15">Deep Learning and Financial Time Series</text><rect x="420" y="164" width="231" height="26" rx="5" fill="#a855f7"/><text x="661" y="184" fill="#172033" font-size="15" font-weight="700">209</text><text x="32" y="228" fill="#172033" font-size="15">Sentiment, News, and Alternative Data</text><rect x="420" y="208" width="211" height="26" rx="5" fill="#f59e0b"/><text x="641" y="228" fill="#172033" font-size="15" font-weight="700">191</text><text x="32" y="272" fill="#172033" font-size="15">Reinforcement Learning and Algorithmic Trading</text><rect x="420" y="252" width="196" height="26" rx="5" fill="#dc2626"/><text x="626" y="272" fill="#172033" font-size="15" font-weight="700">178</text><text x="32" y="316" fill="#172033" font-size="15">Asset Pricing and Return Predictability</text><rect x="420" y="296" width="180" height="26" rx="5" fill="#0891b2"/><text x="610" y="316" fill="#172033" font-size="15" font-weight="700">163</text><text x="32" y="360" fill="#172033" font-size="15">Machine Learning for Stock Prediction</text><rect x="420" y="340" width="137" height="26" rx="5" fill="#be123c"/><text x="567" y="360" fill="#172033" font-size="15" font-weight="700">124</text><text x="32" y="404" fill="#172033" font-size="15">Portfolio Optimization and Asset Allocation</text><rect x="420" y="384" width="127" height="26" rx="5" fill="#16a34a"/><text x="557" y="404" fill="#172033" font-size="15" font-weight="700">115</text><text x="32" y="448" fill="#172033" font-size="15">Market Microstructure and High-Frequency Trading</text><rect x="420" y="428" width="99" height="26" rx="5" fill="#64748b"/><text x="529" y="448" fill="#172033" font-size="15" font-weight="700">90</text><text x="32" y="492" fill="#172033" font-size="15">Behavioral Finance and Investor Decision-Making</text><rect x="420" y="472" width="17" height="26" rx="5" fill="#2563eb"/><text x="447" y="492" fill="#172033" font-size="15" font-weight="700">16</text>
</svg>