<svg xmlns="http://www.w3.org/2000/svg" width="1000" height="536" viewBox="0 0 1000 536" role="img" aria-label="Category distribution 2006-2006">
<rect width="100%" height="100%" fill="#ffffff"/>
<text x="32" y="38" fill="#0f172a" font-size="24" font-weight="800">Trade Paper Taxonomy, 2006</text>
<text x="32" y="60" fill="#64748b" font-size="14">Selected papers by category</text>
<text x="32" y="96" fill="#172033" font-size="15">General Finance, Surveys, and Trading Systems</text><rect x="420" y="76" width="520" height="26" rx="5" fill="#2563eb"/><text x="950" y="96" fill="#172033" font-size="15" font-weight="700">34</text><text x="32" y="140" fill="#172033" font-size="15">Asset Pricing and Return Predictability</text><rect x="420" y="120" width="351" height="26" rx="5" fill="#0f766e"/><text x="781" y="140" fill="#172033" font-size="15" font-weight="700">23</text><text x="32" y="184" fill="#172033" font-size="15">Risk, Volatility, and Forecast Evaluation</text><rect x="420" y="164" width="244" height="26" rx="5" fill="#a855f7"/><text x="674" y="184" fill="#172033" font-size="15" font-weight="700">16</text><text x="32" y="228" fill="#172033" font-size="15">Portfolio Optimization and Asset Allocation</text><rect x="420" y="208" width="137" height="26" rx="5" fill="#f59e0b"/><text x="567" y="228" fill="#172033" font-size="15" font-weight="700">9</text><text x="32" y="272" fill="#172033" font-size="15">Sentiment, News, and Alternative Data</text><rect x="420" y="252" width="91" height="26" rx="5" fill="#dc2626"/><text x="521" y="272" fill="#172033" font-size="15" font-weight="700">6</text><text x="32" y="316" fill="#172033" font-size="15">Reinforcement Learning and Algorithmic Trading</text><rect x="420" y="296" width="61" height="26" rx="5" fill="#0891b2"/><text x="491" y="316" fill="#172033" font-size="15" font-weight="700">4</text><text x="32" y="360" fill="#172033" font-size="15">Market Microstructure and High-Frequency Trading</text><rect x="420" y="340" width="45" height="26" rx="5" fill="#be123c"/><text x="475" y="360" fill="#172033" font-size="15" font-weight="700">3</text><text x="32" y="404" fill="#172033" font-size="15">Deep Learning and Financial Time Series</text><rect x="420" y="384" width="45" height="26" rx="5" fill="#16a34a"/><text x="475" y="404" fill="#172033" font-size="15" font-weight="700">3</text><text x="32" y="448" fill="#172033" font-size="15">Behavioral Finance and Investor Decision-Making</text><rect x="420" y="428" width="15" height="26" rx="5" fill="#64748b"/><text x="445" y="448" fill="#172033" font-size="15" font-weight="700">1</text><text x="32" y="492" fill="#172033" font-size="15">Machine Learning for Stock Prediction</text><rect x="420" y="472" width="15" height="26" rx="5" fill="#2563eb"/><text x="445" y="492" fill="#172033" font-size="15" font-weight="700">1</text>
</svg>