<svg xmlns="http://www.w3.org/2000/svg" width="1000" height="536" viewBox="0 0 1000 536" role="img" aria-label="Category distribution 2009-2017">
<rect width="100%" height="100%" fill="#ffffff"/>
<text x="32" y="38" fill="#0f172a" font-size="24" font-weight="800">Trade Paper Taxonomy, 2009-2017</text>
<text x="32" y="60" fill="#64748b" font-size="14">Selected papers by category</text>
<text x="32" y="96" fill="#172033" font-size="15">General Finance, Surveys, and Trading Systems</text><rect x="420" y="76" width="520" height="26" rx="5" fill="#2563eb"/><text x="950" y="96" fill="#172033" font-size="15" font-weight="700">289</text><text x="32" y="140" fill="#172033" font-size="15">Risk, Volatility, and Forecast Evaluation</text><rect x="420" y="120" width="226" height="26" rx="5" fill="#0f766e"/><text x="656" y="140" fill="#172033" font-size="15" font-weight="700">126</text><text x="32" y="184" fill="#172033" font-size="15">Asset Pricing and Return Predictability</text><rect x="420" y="164" width="190" height="26" rx="5" fill="#a855f7"/><text x="620" y="184" fill="#172033" font-size="15" font-weight="700">106</text><text x="32" y="228" fill="#172033" font-size="15">Sentiment, News, and Alternative Data</text><rect x="420" y="208" width="131" height="26" rx="5" fill="#f59e0b"/><text x="561" y="228" fill="#172033" font-size="15" font-weight="700">73</text><text x="32" y="272" fill="#172033" font-size="15">Reinforcement Learning and Algorithmic Trading</text><rect x="420" y="252" width="122" height="26" rx="5" fill="#dc2626"/><text x="552" y="272" fill="#172033" font-size="15" font-weight="700">68</text><text x="32" y="316" fill="#172033" font-size="15">Deep Learning and Financial Time Series</text><rect x="420" y="296" width="120" height="26" rx="5" fill="#0891b2"/><text x="550" y="316" fill="#172033" font-size="15" font-weight="700">67</text><text x="32" y="360" fill="#172033" font-size="15">Machine Learning for Stock Prediction</text><rect x="420" y="340" width="98" height="26" rx="5" fill="#be123c"/><text x="528" y="360" fill="#172033" font-size="15" font-weight="700">55</text><text x="32" y="404" fill="#172033" font-size="15">Portfolio Optimization and Asset Allocation</text><rect x="420" y="384" width="97" height="26" rx="5" fill="#16a34a"/><text x="527" y="404" fill="#172033" font-size="15" font-weight="700">54</text><text x="32" y="448" fill="#172033" font-size="15">Market Microstructure and High-Frequency Trading</text><rect x="420" y="428" width="91" height="26" rx="5" fill="#64748b"/><text x="521" y="448" fill="#172033" font-size="15" font-weight="700">51</text><text x="32" y="492" fill="#172033" font-size="15">Behavioral Finance and Investor Decision-Making</text><rect x="420" y="472" width="19" height="26" rx="5" fill="#2563eb"/><text x="449" y="492" fill="#172033" font-size="15" font-weight="700">11</text>
</svg>