<svg xmlns="http://www.w3.org/2000/svg" width="1000" height="536" viewBox="0 0 1000 536" role="img" aria-label="Category distribution 2009-2011">
<rect width="100%" height="100%" fill="#ffffff"/>
<text x="32" y="38" fill="#0f172a" font-size="24" font-weight="800">Trade Paper Taxonomy, 2009-2011</text>
<text x="32" y="60" fill="#64748b" font-size="14">Selected papers by category</text>
<text x="32" y="96" fill="#172033" font-size="15">General Finance, Surveys, and Trading Systems</text><rect x="420" y="76" width="520" height="26" rx="5" fill="#2563eb"/><text x="950" y="96" fill="#172033" font-size="15" font-weight="700">109</text><text x="32" y="140" fill="#172033" font-size="15">Risk, Volatility, and Forecast Evaluation</text><rect x="420" y="120" width="224" height="26" rx="5" fill="#0f766e"/><text x="654" y="140" fill="#172033" font-size="15" font-weight="700">47</text><text x="32" y="184" fill="#172033" font-size="15">Asset Pricing and Return Predictability</text><rect x="420" y="164" width="152" height="26" rx="5" fill="#a855f7"/><text x="582" y="184" fill="#172033" font-size="15" font-weight="700">32</text><text x="32" y="228" fill="#172033" font-size="15">Portfolio Optimization and Asset Allocation</text><rect x="420" y="208" width="114" height="26" rx="5" fill="#f59e0b"/><text x="544" y="228" fill="#172033" font-size="15" font-weight="700">24</text><text x="32" y="272" fill="#172033" font-size="15">Sentiment, News, and Alternative Data</text><rect x="420" y="252" width="100" height="26" rx="5" fill="#dc2626"/><text x="530" y="272" fill="#172033" font-size="15" font-weight="700">21</text><text x="32" y="316" fill="#172033" font-size="15">Market Microstructure and High-Frequency Trading</text><rect x="420" y="296" width="85" height="26" rx="5" fill="#0891b2"/><text x="515" y="316" fill="#172033" font-size="15" font-weight="700">18</text><text x="32" y="360" fill="#172033" font-size="15">Machine Learning for Stock Prediction</text><rect x="420" y="340" width="81" height="26" rx="5" fill="#be123c"/><text x="511" y="360" fill="#172033" font-size="15" font-weight="700">17</text><text x="32" y="404" fill="#172033" font-size="15">Reinforcement Learning and Algorithmic Trading</text><rect x="420" y="384" width="66" height="26" rx="5" fill="#16a34a"/><text x="496" y="404" fill="#172033" font-size="15" font-weight="700">14</text><text x="32" y="448" fill="#172033" font-size="15">Deep Learning and Financial Time Series</text><rect x="420" y="428" width="52" height="26" rx="5" fill="#64748b"/><text x="482" y="448" fill="#172033" font-size="15" font-weight="700">11</text><text x="32" y="492" fill="#172033" font-size="15">Behavioral Finance and Investor Decision-Making</text><rect x="420" y="472" width="33" height="26" rx="5" fill="#2563eb"/><text x="463" y="492" fill="#172033" font-size="15" font-weight="700">7</text>
</svg>