<svg xmlns="http://www.w3.org/2000/svg" width="1000" height="536" viewBox="0 0 1000 536" role="img" aria-label="Category distribution 2019-2024">
<rect width="100%" height="100%" fill="#ffffff"/>
<text x="32" y="38" fill="#0f172a" font-size="24" font-weight="800">Trade Paper Taxonomy, 2019-2024</text>
<text x="32" y="60" fill="#64748b" font-size="14">Selected papers by category</text>
<text x="32" y="96" fill="#172033" font-size="15">Deep Learning and Financial Time Series</text><rect x="420" y="76" width="520" height="26" rx="5" fill="#2563eb"/><text x="950" y="96" fill="#172033" font-size="15" font-weight="700">117</text><text x="32" y="140" fill="#172033" font-size="15">Sentiment, News, and Alternative Data</text><rect x="420" y="120" width="453" height="26" rx="5" fill="#0f766e"/><text x="883" y="140" fill="#172033" font-size="15" font-weight="700">102</text><text x="32" y="184" fill="#172033" font-size="15">Reinforcement Learning and Algorithmic Trading</text><rect x="420" y="164" width="422" height="26" rx="5" fill="#a855f7"/><text x="852" y="184" fill="#172033" font-size="15" font-weight="700">95</text><text x="32" y="228" fill="#172033" font-size="15">General Finance, Surveys, and Trading Systems</text><rect x="420" y="208" width="377" height="26" rx="5" fill="#f59e0b"/><text x="807" y="228" fill="#172033" font-size="15" font-weight="700">85</text><text x="32" y="272" fill="#172033" font-size="15">Risk, Volatility, and Forecast Evaluation</text><rect x="420" y="252" width="315" height="26" rx="5" fill="#dc2626"/><text x="745" y="272" fill="#172033" font-size="15" font-weight="700">71</text><text x="32" y="316" fill="#172033" font-size="15">Machine Learning for Stock Prediction</text><rect x="420" y="296" width="235" height="26" rx="5" fill="#0891b2"/><text x="665" y="316" fill="#172033" font-size="15" font-weight="700">53</text><text x="32" y="360" fill="#172033" font-size="15">Portfolio Optimization and Asset Allocation</text><rect x="420" y="340" width="155" height="26" rx="5" fill="#be123c"/><text x="585" y="360" fill="#172033" font-size="15" font-weight="700">35</text><text x="32" y="404" fill="#172033" font-size="15">Market Microstructure and High-Frequency Trading</text><rect x="420" y="384" width="84" height="26" rx="5" fill="#16a34a"/><text x="514" y="404" fill="#172033" font-size="15" font-weight="700">19</text><text x="32" y="448" fill="#172033" font-size="15">Asset Pricing and Return Predictability</text><rect x="420" y="428" width="84" height="26" rx="5" fill="#64748b"/><text x="514" y="448" fill="#172033" font-size="15" font-weight="700">19</text><text x="32" y="492" fill="#172033" font-size="15">Behavioral Finance and Investor Decision-Making</text><rect x="420" y="472" width="17" height="26" rx="5" fill="#2563eb"/><text x="447" y="492" fill="#172033" font-size="15" font-weight="700">4</text>
</svg>