<svg xmlns="http://www.w3.org/2000/svg" width="1000" height="420" viewBox="0 0 1000 420" role="img" aria-label="Yearly citation mass 2005-2025">
<rect width="100%" height="100%" fill="#ffffff"/>
<text x="32" y="38" fill="#0f172a" font-size="24" font-weight="800">Yearly Citation Mass, 2005-2025</text>
<text x="32" y="60" fill="#64748b" font-size="14">Citation counts among visible selected papers</text>
<line x1="80" y1="340" x2="930" y2="340" stroke="#cbd5e1" stroke-width="2"/>
<rect x="80" y="70" width="27" height="270" rx="5" fill="#7c3aed"/><text x="93.5" y="368" text-anchor="middle" fill="#475569" font-size="14">2005</text><text x="93.5" y="62" text-anchor="middle" fill="#172033" font-size="13" font-weight="700">41,685</text><rect x="121" y="84" width="27" height="256" rx="5" fill="#7c3aed"/><text x="134.5" y="368" text-anchor="middle" fill="#475569" font-size="14">2006</text><text x="134.5" y="76" text-anchor="middle" fill="#172033" font-size="13" font-weight="700">39,573</text><rect x="162" y="104" width="27" height="236" rx="5" fill="#7c3aed"/><text x="175.5" y="368" text-anchor="middle" fill="#475569" font-size="14">2007</text><text x="175.5" y="96" text-anchor="middle" fill="#172033" font-size="13" font-weight="700">36,545</text><rect x="203" y="92" width="27" height="248" rx="5" fill="#7c3aed"/><text x="216.5" y="368" text-anchor="middle" fill="#475569" font-size="14">2008</text><text x="216.5" y="84" text-anchor="middle" fill="#172033" font-size="13" font-weight="700">38,309</text><rect x="244" y="79" width="27" height="261" rx="5" fill="#7c3aed"/><text x="257.5" y="368" text-anchor="middle" fill="#475569" font-size="14">2009</text><text x="257.5" y="71" text-anchor="middle" fill="#172033" font-size="13" font-weight="700">40,313</text><rect x="285" y="130" width="27" height="210" rx="5" fill="#7c3aed"/><text x="298.5" y="368" text-anchor="middle" fill="#475569" font-size="14">2010</text><text x="298.5" y="122" text-anchor="middle" fill="#172033" font-size="13" font-weight="700">32,551</text><rect x="326" y="138" width="27" height="202" rx="5" fill="#7c3aed"/><text x="339.5" y="368" text-anchor="middle" fill="#475569" font-size="14">2011</text><text x="339.5" y="130" text-anchor="middle" fill="#172033" font-size="13" font-weight="700">31,243</text><rect x="367" y="150" width="27" height="190" rx="5" fill="#7c3aed"/><text x="380.5" y="368" text-anchor="middle" fill="#475569" font-size="14">2012</text><text x="380.5" y="142" text-anchor="middle" fill="#172033" font-size="13" font-weight="700">29,411</text><rect x="408" y="126" width="27" height="214" rx="5" fill="#7c3aed"/><text x="421.5" y="368" text-anchor="middle" fill="#475569" font-size="14">2013</text><text x="421.5" y="118" text-anchor="middle" fill="#172033" font-size="13" font-weight="700">33,132</text><rect x="449" y="158" width="27" height="182" rx="5" fill="#7c3aed"/><text x="462.5" y="368" text-anchor="middle" fill="#475569" font-size="14">2014</text><text x="462.5" y="150" text-anchor="middle" fill="#172033" font-size="13" font-weight="700">28,205</text><rect x="490" y="177" width="27" height="163" rx="5" fill="#7c3aed"/><text x="503.5" y="368" text-anchor="middle" fill="#475569" font-size="14">2015</text><text x="503.5" y="169" text-anchor="middle" fill="#172033" font-size="13" font-weight="700">25,285</text><rect x="531" y="210" width="27" height="130" rx="5" fill="#7c3aed"/><text x="544.5" y="368" text-anchor="middle" fill="#475569" font-size="14">2016</text><text x="544.5" y="202" text-anchor="middle" fill="#172033" font-size="13" font-weight="700">20,081</text><rect x="572" y="143" width="27" height="197" rx="5" fill="#7c3aed"/><text x="585.5" y="368" text-anchor="middle" fill="#475569" font-size="14">2017</text><text x="585.5" y="135" text-anchor="middle" fill="#172033" font-size="13" font-weight="700">30,555</text><rect x="613" y="194" width="27" height="146" rx="5" fill="#7c3aed"/><text x="626.5" y="368" text-anchor="middle" fill="#475569" font-size="14">2018</text><text x="626.5" y="186" text-anchor="middle" fill="#172033" font-size="13" font-weight="700">22,580</text><rect x="654" y="175" width="27" height="165" rx="5" fill="#7c3aed"/><text x="667.5" y="368" text-anchor="middle" fill="#475569" font-size="14">2019</text><text x="667.5" y="167" text-anchor="middle" fill="#172033" font-size="13" font-weight="700">25,570</text><rect x="695" y="104" width="27" height="236" rx="5" fill="#7c3aed"/><text x="708.5" y="368" text-anchor="middle" fill="#475569" font-size="14">2020</text><text x="708.5" y="96" text-anchor="middle" fill="#172033" font-size="13" font-weight="700">36,586</text><rect x="736" y="218" width="27" height="122" rx="5" fill="#7c3aed"/><text x="749.5" y="368" text-anchor="middle" fill="#475569" font-size="14">2021</text><text x="749.5" y="210" text-anchor="middle" fill="#172033" font-size="13" font-weight="700">18,971</text><rect x="777" y="266" width="27" height="74" rx="5" fill="#7c3aed"/><text x="790.5" y="368" text-anchor="middle" fill="#475569" font-size="14">2022</text><text x="790.5" y="258" text-anchor="middle" fill="#172033" font-size="13" font-weight="700">11,479</text><rect x="818" y="276" width="27" height="64" rx="5" fill="#7c3aed"/><text x="831.5" y="368" text-anchor="middle" fill="#475569" font-size="14">2023</text><text x="831.5" y="268" text-anchor="middle" fill="#172033" font-size="13" font-weight="700">9,978</text><rect x="859" y="305" width="27" height="35" rx="5" fill="#7c3aed"/><text x="872.5" y="368" text-anchor="middle" fill="#475569" font-size="14">2024</text><text x="872.5" y="297" text-anchor="middle" fill="#172033" font-size="13" font-weight="700">5,525</text><rect x="900" y="325" width="27" height="15" rx="5" fill="#7c3aed"/><text x="913.5" y="368" text-anchor="middle" fill="#475569" font-size="14">2025</text><text x="913.5" y="317" text-anchor="middle" fill="#172033" font-size="13" font-weight="700">2,429</text>
</svg>