<svg xmlns="http://www.w3.org/2000/svg" width="1000" height="420" viewBox="0 0 1000 420" role="img" aria-label="Yearly citation mass 2013-2026">
<rect width="100%" height="100%" fill="#ffffff"/>
<text x="32" y="38" fill="#0f172a" font-size="24" font-weight="800">Yearly Citation Mass, 2013-2026</text>
<text x="32" y="60" fill="#64748b" font-size="14">Citation counts among visible selected papers</text>
<line x1="80" y1="340" x2="930" y2="340" stroke="#cbd5e1" stroke-width="2"/>
<rect x="80" y="96" width="47" height="244" rx="5" fill="#7c3aed"/><text x="103.5" y="368" text-anchor="middle" fill="#475569" font-size="14">2013</text><text x="103.5" y="88" text-anchor="middle" fill="#172033" font-size="13" font-weight="700">33,132</text><rect x="141" y="132" width="47" height="208" rx="5" fill="#7c3aed"/><text x="164.5" y="368" text-anchor="middle" fill="#475569" font-size="14">2014</text><text x="164.5" y="124" text-anchor="middle" fill="#172033" font-size="13" font-weight="700">28,205</text><rect x="202" y="154" width="47" height="186" rx="5" fill="#7c3aed"/><text x="225.5" y="368" text-anchor="middle" fill="#475569" font-size="14">2015</text><text x="225.5" y="146" text-anchor="middle" fill="#172033" font-size="13" font-weight="700">25,285</text><rect x="263" y="192" width="47" height="148" rx="5" fill="#7c3aed"/><text x="286.5" y="368" text-anchor="middle" fill="#475569" font-size="14">2016</text><text x="286.5" y="184" text-anchor="middle" fill="#172033" font-size="13" font-weight="700">20,081</text><rect x="324" y="115" width="47" height="225" rx="5" fill="#7c3aed"/><text x="347.5" y="368" text-anchor="middle" fill="#475569" font-size="14">2017</text><text x="347.5" y="107" text-anchor="middle" fill="#172033" font-size="13" font-weight="700">30,555</text><rect x="385" y="174" width="47" height="166" rx="5" fill="#7c3aed"/><text x="408.5" y="368" text-anchor="middle" fill="#475569" font-size="14">2018</text><text x="408.5" y="166" text-anchor="middle" fill="#172033" font-size="13" font-weight="700">22,580</text><rect x="446" y="152" width="47" height="188" rx="5" fill="#7c3aed"/><text x="469.5" y="368" text-anchor="middle" fill="#475569" font-size="14">2019</text><text x="469.5" y="144" text-anchor="middle" fill="#172033" font-size="13" font-weight="700">25,570</text><rect x="507" y="70" width="47" height="270" rx="5" fill="#7c3aed"/><text x="530.5" y="368" text-anchor="middle" fill="#475569" font-size="14">2020</text><text x="530.5" y="62" text-anchor="middle" fill="#172033" font-size="13" font-weight="700">36,586</text><rect x="568" y="200" width="47" height="140" rx="5" fill="#7c3aed"/><text x="591.5" y="368" text-anchor="middle" fill="#475569" font-size="14">2021</text><text x="591.5" y="192" text-anchor="middle" fill="#172033" font-size="13" font-weight="700">18,971</text><rect x="629" y="256" width="47" height="84" rx="5" fill="#7c3aed"/><text x="652.5" y="368" text-anchor="middle" fill="#475569" font-size="14">2022</text><text x="652.5" y="248" text-anchor="middle" fill="#172033" font-size="13" font-weight="700">11,479</text><rect x="690" y="267" width="47" height="73" rx="5" fill="#7c3aed"/><text x="713.5" y="368" text-anchor="middle" fill="#475569" font-size="14">2023</text><text x="713.5" y="259" text-anchor="middle" fill="#172033" font-size="13" font-weight="700">9,978</text><rect x="751" y="300" width="47" height="40" rx="5" fill="#7c3aed"/><text x="774.5" y="368" text-anchor="middle" fill="#475569" font-size="14">2024</text><text x="774.5" y="292" text-anchor="middle" fill="#172033" font-size="13" font-weight="700">5,525</text><rect x="812" y="323" width="47" height="17" rx="5" fill="#7c3aed"/><text x="835.5" y="368" text-anchor="middle" fill="#475569" font-size="14">2025</text><text x="835.5" y="315" text-anchor="middle" fill="#172033" font-size="13" font-weight="700">2,429</text><rect x="873" y="338" width="47" height="2" rx="5" fill="#7c3aed"/><text x="896.5" y="368" text-anchor="middle" fill="#475569" font-size="14">2026</text><text x="896.5" y="330" text-anchor="middle" fill="#172033" font-size="13" font-weight="700">297</text>
</svg>