<svg xmlns="http://www.w3.org/2000/svg" width="1000" height="420" viewBox="0 0 1000 420" role="img" aria-label="Yearly citation mass 2001-2020">
<rect width="100%" height="100%" fill="#ffffff"/>
<text x="32" y="38" fill="#0f172a" font-size="24" font-weight="800">Yearly Citation Mass, 2001-2020</text>
<text x="32" y="60" fill="#64748b" font-size="14">Citation counts among visible selected papers</text>
<line x1="80" y1="340" x2="930" y2="340" stroke="#cbd5e1" stroke-width="2"/>
<rect x="80" y="70" width="29" height="270" rx="5" fill="#7c3aed"/><text x="94.5" y="368" text-anchor="middle" fill="#475569" font-size="14">2001</text><text x="94.5" y="62" text-anchor="middle" fill="#172033" font-size="13" font-weight="700">53,778</text><rect x="123" y="128" width="29" height="212" rx="5" fill="#7c3aed"/><text x="137.5" y="368" text-anchor="middle" fill="#475569" font-size="14">2002</text><text x="137.5" y="120" text-anchor="middle" fill="#172033" font-size="13" font-weight="700">42,298</text><rect x="166" y="139" width="29" height="201" rx="5" fill="#7c3aed"/><text x="180.5" y="368" text-anchor="middle" fill="#475569" font-size="14">2003</text><text x="180.5" y="131" text-anchor="middle" fill="#172033" font-size="13" font-weight="700">40,138</text><rect x="209" y="128" width="29" height="212" rx="5" fill="#7c3aed"/><text x="223.5" y="368" text-anchor="middle" fill="#475569" font-size="14">2004</text><text x="223.5" y="120" text-anchor="middle" fill="#172033" font-size="13" font-weight="700">42,252</text><rect x="252" y="131" width="29" height="209" rx="5" fill="#7c3aed"/><text x="266.5" y="368" text-anchor="middle" fill="#475569" font-size="14">2005</text><text x="266.5" y="123" text-anchor="middle" fill="#172033" font-size="13" font-weight="700">41,685</text><rect x="295" y="142" width="29" height="198" rx="5" fill="#7c3aed"/><text x="309.5" y="368" text-anchor="middle" fill="#475569" font-size="14">2006</text><text x="309.5" y="134" text-anchor="middle" fill="#172033" font-size="13" font-weight="700">39,573</text><rect x="338" y="157" width="29" height="183" rx="5" fill="#7c3aed"/><text x="352.5" y="368" text-anchor="middle" fill="#475569" font-size="14">2007</text><text x="352.5" y="149" text-anchor="middle" fill="#172033" font-size="13" font-weight="700">36,545</text><rect x="381" y="148" width="29" height="192" rx="5" fill="#7c3aed"/><text x="395.5" y="368" text-anchor="middle" fill="#475569" font-size="14">2008</text><text x="395.5" y="140" text-anchor="middle" fill="#172033" font-size="13" font-weight="700">38,309</text><rect x="424" y="138" width="29" height="202" rx="5" fill="#7c3aed"/><text x="438.5" y="368" text-anchor="middle" fill="#475569" font-size="14">2009</text><text x="438.5" y="130" text-anchor="middle" fill="#172033" font-size="13" font-weight="700">40,313</text><rect x="467" y="177" width="29" height="163" rx="5" fill="#7c3aed"/><text x="481.5" y="368" text-anchor="middle" fill="#475569" font-size="14">2010</text><text x="481.5" y="169" text-anchor="middle" fill="#172033" font-size="13" font-weight="700">32,551</text><rect x="510" y="184" width="29" height="156" rx="5" fill="#7c3aed"/><text x="524.5" y="368" text-anchor="middle" fill="#475569" font-size="14">2011</text><text x="524.5" y="176" text-anchor="middle" fill="#172033" font-size="13" font-weight="700">31,243</text><rect x="553" y="193" width="29" height="147" rx="5" fill="#7c3aed"/><text x="567.5" y="368" text-anchor="middle" fill="#475569" font-size="14">2012</text><text x="567.5" y="185" text-anchor="middle" fill="#172033" font-size="13" font-weight="700">29,411</text><rect x="596" y="174" width="29" height="166" rx="5" fill="#7c3aed"/><text x="610.5" y="368" text-anchor="middle" fill="#475569" font-size="14">2013</text><text x="610.5" y="166" text-anchor="middle" fill="#172033" font-size="13" font-weight="700">33,132</text><rect x="639" y="199" width="29" height="141" rx="5" fill="#7c3aed"/><text x="653.5" y="368" text-anchor="middle" fill="#475569" font-size="14">2014</text><text x="653.5" y="191" text-anchor="middle" fill="#172033" font-size="13" font-weight="700">28,205</text><rect x="682" y="214" width="29" height="126" rx="5" fill="#7c3aed"/><text x="696.5" y="368" text-anchor="middle" fill="#475569" font-size="14">2015</text><text x="696.5" y="206" text-anchor="middle" fill="#172033" font-size="13" font-weight="700">25,285</text><rect x="725" y="240" width="29" height="100" rx="5" fill="#7c3aed"/><text x="739.5" y="368" text-anchor="middle" fill="#475569" font-size="14">2016</text><text x="739.5" y="232" text-anchor="middle" fill="#172033" font-size="13" font-weight="700">20,081</text><rect x="768" y="187" width="29" height="153" rx="5" fill="#7c3aed"/><text x="782.5" y="368" text-anchor="middle" fill="#475569" font-size="14">2017</text><text x="782.5" y="179" text-anchor="middle" fill="#172033" font-size="13" font-weight="700">30,555</text><rect x="811" y="227" width="29" height="113" rx="5" fill="#7c3aed"/><text x="825.5" y="368" text-anchor="middle" fill="#475569" font-size="14">2018</text><text x="825.5" y="219" text-anchor="middle" fill="#172033" font-size="13" font-weight="700">22,580</text><rect x="854" y="212" width="29" height="128" rx="5" fill="#7c3aed"/><text x="868.5" y="368" text-anchor="middle" fill="#475569" font-size="14">2019</text><text x="868.5" y="204" text-anchor="middle" fill="#172033" font-size="13" font-weight="700">25,570</text><rect x="897" y="157" width="29" height="183" rx="5" fill="#7c3aed"/><text x="911.5" y="368" text-anchor="middle" fill="#475569" font-size="14">2020</text><text x="911.5" y="149" text-anchor="middle" fill="#172033" font-size="13" font-weight="700">36,586</text>
</svg>