<svg xmlns="http://www.w3.org/2000/svg" width="1000" height="420" viewBox="0 0 1000 420" role="img" aria-label="Yearly citation mass 2003-2017">
<rect width="100%" height="100%" fill="#ffffff"/>
<text x="32" y="38" fill="#0f172a" font-size="24" font-weight="800">Yearly Citation Mass, 2003-2017</text>
<text x="32" y="60" fill="#64748b" font-size="14">Citation counts among visible selected papers</text>
<line x1="80" y1="340" x2="930" y2="340" stroke="#cbd5e1" stroke-width="2"/>
<rect x="80" y="88" width="43" height="252" rx="5" fill="#7c3aed"/><text x="101.5" y="368" text-anchor="middle" fill="#475569" font-size="14">2003</text><text x="101.5" y="80" text-anchor="middle" fill="#172033" font-size="13" font-weight="700">47,719</text><rect x="137" y="77" width="43" height="263" rx="5" fill="#7c3aed"/><text x="158.5" y="368" text-anchor="middle" fill="#475569" font-size="14">2004</text><text x="158.5" y="69" text-anchor="middle" fill="#172033" font-size="13" font-weight="700">49,890</text><rect x="194" y="90" width="43" height="250" rx="5" fill="#7c3aed"/><text x="215.5" y="368" text-anchor="middle" fill="#475569" font-size="14">2005</text><text x="215.5" y="82" text-anchor="middle" fill="#172033" font-size="13" font-weight="700">47,352</text><rect x="251" y="119" width="43" height="221" rx="5" fill="#7c3aed"/><text x="272.5" y="368" text-anchor="middle" fill="#475569" font-size="14">2006</text><text x="272.5" y="111" text-anchor="middle" fill="#172033" font-size="13" font-weight="700">41,836</text><rect x="308" y="134" width="43" height="206" rx="5" fill="#7c3aed"/><text x="329.5" y="368" text-anchor="middle" fill="#475569" font-size="14">2007</text><text x="329.5" y="126" text-anchor="middle" fill="#172033" font-size="13" font-weight="700">38,982</text><rect x="365" y="121" width="43" height="219" rx="5" fill="#7c3aed"/><text x="386.5" y="368" text-anchor="middle" fill="#475569" font-size="14">2008</text><text x="386.5" y="113" text-anchor="middle" fill="#172033" font-size="13" font-weight="700">41,513</text><rect x="422" y="108" width="43" height="232" rx="5" fill="#7c3aed"/><text x="443.5" y="368" text-anchor="middle" fill="#475569" font-size="14">2009</text><text x="443.5" y="100" text-anchor="middle" fill="#172033" font-size="13" font-weight="700">43,953</text><rect x="479" y="141" width="43" height="199" rx="5" fill="#7c3aed"/><text x="500.5" y="368" text-anchor="middle" fill="#475569" font-size="14">2010</text><text x="500.5" y="133" text-anchor="middle" fill="#172033" font-size="13" font-weight="700">37,701</text><rect x="536" y="160" width="43" height="180" rx="5" fill="#7c3aed"/><text x="557.5" y="368" text-anchor="middle" fill="#475569" font-size="14">2011</text><text x="557.5" y="152" text-anchor="middle" fill="#172033" font-size="13" font-weight="700">34,084</text><rect x="593" y="145" width="43" height="195" rx="5" fill="#7c3aed"/><text x="614.5" y="368" text-anchor="middle" fill="#475569" font-size="14">2012</text><text x="614.5" y="137" text-anchor="middle" fill="#172033" font-size="13" font-weight="700">37,002</text><rect x="650" y="152" width="43" height="188" rx="5" fill="#7c3aed"/><text x="671.5" y="368" text-anchor="middle" fill="#475569" font-size="14">2013</text><text x="671.5" y="144" text-anchor="middle" fill="#172033" font-size="13" font-weight="700">35,595</text><rect x="707" y="177" width="43" height="163" rx="5" fill="#7c3aed"/><text x="728.5" y="368" text-anchor="middle" fill="#475569" font-size="14">2014</text><text x="728.5" y="169" text-anchor="middle" fill="#172033" font-size="13" font-weight="700">30,999</text><rect x="764" y="70" width="43" height="270" rx="5" fill="#7c3aed"/><text x="785.5" y="368" text-anchor="middle" fill="#475569" font-size="14">2015</text><text x="785.5" y="62" text-anchor="middle" fill="#172033" font-size="13" font-weight="700">51,060</text><rect x="821" y="203" width="43" height="137" rx="5" fill="#7c3aed"/><text x="842.5" y="368" text-anchor="middle" fill="#475569" font-size="14">2016</text><text x="842.5" y="195" text-anchor="middle" fill="#172033" font-size="13" font-weight="700">26,012</text><rect x="878" y="123" width="43" height="217" rx="5" fill="#7c3aed"/><text x="899.5" y="368" text-anchor="middle" fill="#475569" font-size="14">2017</text><text x="899.5" y="115" text-anchor="middle" fill="#172033" font-size="13" font-weight="700">41,195</text>
</svg>