<svg xmlns="http://www.w3.org/2000/svg" width="1000" height="420" viewBox="0 0 1000 420" role="img" aria-label="Yearly citation mass 2001-2015">
<rect width="100%" height="100%" fill="#ffffff"/>
<text x="32" y="38" fill="#0f172a" font-size="24" font-weight="800">Yearly Citation Mass, 2001-2015</text>
<text x="32" y="60" fill="#64748b" font-size="14">Citation counts among visible selected papers</text>
<line x1="80" y1="340" x2="930" y2="340" stroke="#cbd5e1" stroke-width="2"/>
<rect x="80" y="70" width="43" height="270" rx="5" fill="#7c3aed"/><text x="101.5" y="368" text-anchor="middle" fill="#475569" font-size="14">2001</text><text x="101.5" y="62" text-anchor="middle" fill="#172033" font-size="13" font-weight="700">57,380</text><rect x="137" y="104" width="43" height="236" rx="5" fill="#7c3aed"/><text x="158.5" y="368" text-anchor="middle" fill="#475569" font-size="14">2002</text><text x="158.5" y="96" text-anchor="middle" fill="#172033" font-size="13" font-weight="700">50,335</text><rect x="194" y="116" width="43" height="224" rx="5" fill="#7c3aed"/><text x="215.5" y="368" text-anchor="middle" fill="#475569" font-size="14">2003</text><text x="215.5" y="108" text-anchor="middle" fill="#172033" font-size="13" font-weight="700">47,719</text><rect x="251" y="106" width="43" height="234" rx="5" fill="#7c3aed"/><text x="272.5" y="368" text-anchor="middle" fill="#475569" font-size="14">2004</text><text x="272.5" y="98" text-anchor="middle" fill="#172033" font-size="13" font-weight="700">49,890</text><rect x="308" y="118" width="43" height="222" rx="5" fill="#7c3aed"/><text x="329.5" y="368" text-anchor="middle" fill="#475569" font-size="14">2005</text><text x="329.5" y="110" text-anchor="middle" fill="#172033" font-size="13" font-weight="700">47,352</text><rect x="365" y="144" width="43" height="196" rx="5" fill="#7c3aed"/><text x="386.5" y="368" text-anchor="middle" fill="#475569" font-size="14">2006</text><text x="386.5" y="136" text-anchor="middle" fill="#172033" font-size="13" font-weight="700">41,836</text><rect x="422" y="157" width="43" height="183" rx="5" fill="#7c3aed"/><text x="443.5" y="368" text-anchor="middle" fill="#475569" font-size="14">2007</text><text x="443.5" y="149" text-anchor="middle" fill="#172033" font-size="13" font-weight="700">38,982</text><rect x="479" y="145" width="43" height="195" rx="5" fill="#7c3aed"/><text x="500.5" y="368" text-anchor="middle" fill="#475569" font-size="14">2008</text><text x="500.5" y="137" text-anchor="middle" fill="#172033" font-size="13" font-weight="700">41,513</text><rect x="536" y="134" width="43" height="206" rx="5" fill="#7c3aed"/><text x="557.5" y="368" text-anchor="middle" fill="#475569" font-size="14">2009</text><text x="557.5" y="126" text-anchor="middle" fill="#172033" font-size="13" font-weight="700">43,953</text><rect x="593" y="163" width="43" height="177" rx="5" fill="#7c3aed"/><text x="614.5" y="368" text-anchor="middle" fill="#475569" font-size="14">2010</text><text x="614.5" y="155" text-anchor="middle" fill="#172033" font-size="13" font-weight="700">37,701</text><rect x="650" y="180" width="43" height="160" rx="5" fill="#7c3aed"/><text x="671.5" y="368" text-anchor="middle" fill="#475569" font-size="14">2011</text><text x="671.5" y="172" text-anchor="middle" fill="#172033" font-size="13" font-weight="700">34,084</text><rect x="707" y="166" width="43" height="174" rx="5" fill="#7c3aed"/><text x="728.5" y="368" text-anchor="middle" fill="#475569" font-size="14">2012</text><text x="728.5" y="158" text-anchor="middle" fill="#172033" font-size="13" font-weight="700">37,002</text><rect x="764" y="173" width="43" height="167" rx="5" fill="#7c3aed"/><text x="785.5" y="368" text-anchor="middle" fill="#475569" font-size="14">2013</text><text x="785.5" y="165" text-anchor="middle" fill="#172033" font-size="13" font-weight="700">35,595</text><rect x="821" y="195" width="43" height="145" rx="5" fill="#7c3aed"/><text x="842.5" y="368" text-anchor="middle" fill="#475569" font-size="14">2014</text><text x="842.5" y="187" text-anchor="middle" fill="#172033" font-size="13" font-weight="700">30,999</text><rect x="878" y="100" width="43" height="240" rx="5" fill="#7c3aed"/><text x="899.5" y="368" text-anchor="middle" fill="#475569" font-size="14">2015</text><text x="899.5" y="92" text-anchor="middle" fill="#172033" font-size="13" font-weight="700">51,060</text>
</svg>