<svg xmlns="http://www.w3.org/2000/svg" width="1000" height="420" viewBox="0 0 1000 420" role="img" aria-label="Yearly citation mass 2000-2017">
<rect width="100%" height="100%" fill="#ffffff"/>
<text x="32" y="38" fill="#0f172a" font-size="24" font-weight="800">Yearly Citation Mass, 2000-2017</text>
<text x="32" y="60" fill="#64748b" font-size="14">Citation counts among visible selected papers</text>
<line x1="80" y1="340" x2="930" y2="340" stroke="#cbd5e1" stroke-width="2"/>
<rect x="80" y="85" width="34" height="255" rx="5" fill="#7c3aed"/><text x="97.0" y="368" text-anchor="middle" fill="#475569" font-size="14">2000</text><text x="97.0" y="77" text-anchor="middle" fill="#172033" font-size="13" font-weight="700">50,901</text><rect x="128" y="70" width="34" height="270" rx="5" fill="#7c3aed"/><text x="145.0" y="368" text-anchor="middle" fill="#475569" font-size="14">2001</text><text x="145.0" y="62" text-anchor="middle" fill="#172033" font-size="13" font-weight="700">53,778</text><rect x="176" y="128" width="34" height="212" rx="5" fill="#7c3aed"/><text x="193.0" y="368" text-anchor="middle" fill="#475569" font-size="14">2002</text><text x="193.0" y="120" text-anchor="middle" fill="#172033" font-size="13" font-weight="700">42,298</text><rect x="224" y="139" width="34" height="201" rx="5" fill="#7c3aed"/><text x="241.0" y="368" text-anchor="middle" fill="#475569" font-size="14">2003</text><text x="241.0" y="131" text-anchor="middle" fill="#172033" font-size="13" font-weight="700">40,138</text><rect x="272" y="128" width="34" height="212" rx="5" fill="#7c3aed"/><text x="289.0" y="368" text-anchor="middle" fill="#475569" font-size="14">2004</text><text x="289.0" y="120" text-anchor="middle" fill="#172033" font-size="13" font-weight="700">42,252</text><rect x="320" y="131" width="34" height="209" rx="5" fill="#7c3aed"/><text x="337.0" y="368" text-anchor="middle" fill="#475569" font-size="14">2005</text><text x="337.0" y="123" text-anchor="middle" fill="#172033" font-size="13" font-weight="700">41,685</text><rect x="368" y="142" width="34" height="198" rx="5" fill="#7c3aed"/><text x="385.0" y="368" text-anchor="middle" fill="#475569" font-size="14">2006</text><text x="385.0" y="134" text-anchor="middle" fill="#172033" font-size="13" font-weight="700">39,573</text><rect x="416" y="157" width="34" height="183" rx="5" fill="#7c3aed"/><text x="433.0" y="368" text-anchor="middle" fill="#475569" font-size="14">2007</text><text x="433.0" y="149" text-anchor="middle" fill="#172033" font-size="13" font-weight="700">36,545</text><rect x="464" y="148" width="34" height="192" rx="5" fill="#7c3aed"/><text x="481.0" y="368" text-anchor="middle" fill="#475569" font-size="14">2008</text><text x="481.0" y="140" text-anchor="middle" fill="#172033" font-size="13" font-weight="700">38,309</text><rect x="512" y="138" width="34" height="202" rx="5" fill="#7c3aed"/><text x="529.0" y="368" text-anchor="middle" fill="#475569" font-size="14">2009</text><text x="529.0" y="130" text-anchor="middle" fill="#172033" font-size="13" font-weight="700">40,313</text><rect x="560" y="177" width="34" height="163" rx="5" fill="#7c3aed"/><text x="577.0" y="368" text-anchor="middle" fill="#475569" font-size="14">2010</text><text x="577.0" y="169" text-anchor="middle" fill="#172033" font-size="13" font-weight="700">32,551</text><rect x="608" y="184" width="34" height="156" rx="5" fill="#7c3aed"/><text x="625.0" y="368" text-anchor="middle" fill="#475569" font-size="14">2011</text><text x="625.0" y="176" text-anchor="middle" fill="#172033" font-size="13" font-weight="700">31,243</text><rect x="656" y="193" width="34" height="147" rx="5" fill="#7c3aed"/><text x="673.0" y="368" text-anchor="middle" fill="#475569" font-size="14">2012</text><text x="673.0" y="185" text-anchor="middle" fill="#172033" font-size="13" font-weight="700">29,411</text><rect x="704" y="174" width="34" height="166" rx="5" fill="#7c3aed"/><text x="721.0" y="368" text-anchor="middle" fill="#475569" font-size="14">2013</text><text x="721.0" y="166" text-anchor="middle" fill="#172033" font-size="13" font-weight="700">33,132</text><rect x="752" y="199" width="34" height="141" rx="5" fill="#7c3aed"/><text x="769.0" y="368" text-anchor="middle" fill="#475569" font-size="14">2014</text><text x="769.0" y="191" text-anchor="middle" fill="#172033" font-size="13" font-weight="700">28,205</text><rect x="800" y="214" width="34" height="126" rx="5" fill="#7c3aed"/><text x="817.0" y="368" text-anchor="middle" fill="#475569" font-size="14">2015</text><text x="817.0" y="206" text-anchor="middle" fill="#172033" font-size="13" font-weight="700">25,285</text><rect x="848" y="240" width="34" height="100" rx="5" fill="#7c3aed"/><text x="865.0" y="368" text-anchor="middle" fill="#475569" font-size="14">2016</text><text x="865.0" y="232" text-anchor="middle" fill="#172033" font-size="13" font-weight="700">20,081</text><rect x="896" y="187" width="34" height="153" rx="5" fill="#7c3aed"/><text x="913.0" y="368" text-anchor="middle" fill="#475569" font-size="14">2017</text><text x="913.0" y="179" text-anchor="middle" fill="#172033" font-size="13" font-weight="700">30,555</text>
</svg>