<svg xmlns="http://www.w3.org/2000/svg" width="1000" height="420" viewBox="0 0 1000 420" role="img" aria-label="Yearly citation mass 2004-2019">
<rect width="100%" height="100%" fill="#ffffff"/>
<text x="32" y="38" fill="#0f172a" font-size="24" font-weight="800">Yearly Citation Mass, 2004-2019</text>
<text x="32" y="60" fill="#64748b" font-size="14">Citation counts among visible selected papers</text>
<line x1="80" y1="340" x2="930" y2="340" stroke="#cbd5e1" stroke-width="2"/>
<rect x="80" y="70" width="40" height="270" rx="5" fill="#7c3aed"/><text x="100.0" y="368" text-anchor="middle" fill="#475569" font-size="14">2004</text><text x="100.0" y="62" text-anchor="middle" fill="#172033" font-size="13" font-weight="700">42,252</text><rect x="134" y="74" width="40" height="266" rx="5" fill="#7c3aed"/><text x="154.0" y="368" text-anchor="middle" fill="#475569" font-size="14">2005</text><text x="154.0" y="66" text-anchor="middle" fill="#172033" font-size="13" font-weight="700">41,685</text><rect x="188" y="88" width="40" height="252" rx="5" fill="#7c3aed"/><text x="208.0" y="368" text-anchor="middle" fill="#475569" font-size="14">2006</text><text x="208.0" y="80" text-anchor="middle" fill="#172033" font-size="13" font-weight="700">39,573</text><rect x="242" y="107" width="40" height="233" rx="5" fill="#7c3aed"/><text x="262.0" y="368" text-anchor="middle" fill="#475569" font-size="14">2007</text><text x="262.0" y="99" text-anchor="middle" fill="#172033" font-size="13" font-weight="700">36,545</text><rect x="296" y="96" width="40" height="244" rx="5" fill="#7c3aed"/><text x="316.0" y="368" text-anchor="middle" fill="#475569" font-size="14">2008</text><text x="316.0" y="88" text-anchor="middle" fill="#172033" font-size="13" font-weight="700">38,309</text><rect x="350" y="83" width="40" height="257" rx="5" fill="#7c3aed"/><text x="370.0" y="368" text-anchor="middle" fill="#475569" font-size="14">2009</text><text x="370.0" y="75" text-anchor="middle" fill="#172033" font-size="13" font-weight="700">40,313</text><rect x="404" y="132" width="40" height="208" rx="5" fill="#7c3aed"/><text x="424.0" y="368" text-anchor="middle" fill="#475569" font-size="14">2010</text><text x="424.0" y="124" text-anchor="middle" fill="#172033" font-size="13" font-weight="700">32,551</text><rect x="458" y="141" width="40" height="199" rx="5" fill="#7c3aed"/><text x="478.0" y="368" text-anchor="middle" fill="#475569" font-size="14">2011</text><text x="478.0" y="133" text-anchor="middle" fill="#172033" font-size="13" font-weight="700">31,243</text><rect x="512" y="153" width="40" height="187" rx="5" fill="#7c3aed"/><text x="532.0" y="368" text-anchor="middle" fill="#475569" font-size="14">2012</text><text x="532.0" y="145" text-anchor="middle" fill="#172033" font-size="13" font-weight="700">29,411</text><rect x="566" y="129" width="40" height="211" rx="5" fill="#7c3aed"/><text x="586.0" y="368" text-anchor="middle" fill="#475569" font-size="14">2013</text><text x="586.0" y="121" text-anchor="middle" fill="#172033" font-size="13" font-weight="700">33,132</text><rect x="620" y="160" width="40" height="180" rx="5" fill="#7c3aed"/><text x="640.0" y="368" text-anchor="middle" fill="#475569" font-size="14">2014</text><text x="640.0" y="152" text-anchor="middle" fill="#172033" font-size="13" font-weight="700">28,205</text><rect x="674" y="179" width="40" height="161" rx="5" fill="#7c3aed"/><text x="694.0" y="368" text-anchor="middle" fill="#475569" font-size="14">2015</text><text x="694.0" y="171" text-anchor="middle" fill="#172033" font-size="13" font-weight="700">25,285</text><rect x="728" y="212" width="40" height="128" rx="5" fill="#7c3aed"/><text x="748.0" y="368" text-anchor="middle" fill="#475569" font-size="14">2016</text><text x="748.0" y="204" text-anchor="middle" fill="#172033" font-size="13" font-weight="700">20,081</text><rect x="782" y="145" width="40" height="195" rx="5" fill="#7c3aed"/><text x="802.0" y="368" text-anchor="middle" fill="#475569" font-size="14">2017</text><text x="802.0" y="137" text-anchor="middle" fill="#172033" font-size="13" font-weight="700">30,555</text><rect x="836" y="196" width="40" height="144" rx="5" fill="#7c3aed"/><text x="856.0" y="368" text-anchor="middle" fill="#475569" font-size="14">2018</text><text x="856.0" y="188" text-anchor="middle" fill="#172033" font-size="13" font-weight="700">22,580</text><rect x="890" y="177" width="40" height="163" rx="5" fill="#7c3aed"/><text x="910.0" y="368" text-anchor="middle" fill="#475569" font-size="14">2019</text><text x="910.0" y="169" text-anchor="middle" fill="#172033" font-size="13" font-weight="700">25,570</text>
</svg>