<svg xmlns="http://www.w3.org/2000/svg" width="1000" height="420" viewBox="0 0 1000 420" role="img" aria-label="Yearly citation mass 2006-2020">
<rect width="100%" height="100%" fill="#ffffff"/>
<text x="32" y="38" fill="#0f172a" font-size="24" font-weight="800">Yearly Citation Mass, 2006-2020</text>
<text x="32" y="60" fill="#64748b" font-size="14">Citation counts among visible selected papers</text>
<line x1="80" y1="340" x2="930" y2="340" stroke="#cbd5e1" stroke-width="2"/>
<rect x="80" y="75" width="43" height="265" rx="5" fill="#7c3aed"/><text x="101.5" y="368" text-anchor="middle" fill="#475569" font-size="14">2006</text><text x="101.5" y="67" text-anchor="middle" fill="#172033" font-size="13" font-weight="700">39,573</text><rect x="137" y="96" width="43" height="244" rx="5" fill="#7c3aed"/><text x="158.5" y="368" text-anchor="middle" fill="#475569" font-size="14">2007</text><text x="158.5" y="88" text-anchor="middle" fill="#172033" font-size="13" font-weight="700">36,545</text><rect x="194" y="84" width="43" height="256" rx="5" fill="#7c3aed"/><text x="215.5" y="368" text-anchor="middle" fill="#475569" font-size="14">2008</text><text x="215.5" y="76" text-anchor="middle" fill="#172033" font-size="13" font-weight="700">38,309</text><rect x="251" y="70" width="43" height="270" rx="5" fill="#7c3aed"/><text x="272.5" y="368" text-anchor="middle" fill="#475569" font-size="14">2009</text><text x="272.5" y="62" text-anchor="middle" fill="#172033" font-size="13" font-weight="700">40,313</text><rect x="308" y="122" width="43" height="218" rx="5" fill="#7c3aed"/><text x="329.5" y="368" text-anchor="middle" fill="#475569" font-size="14">2010</text><text x="329.5" y="114" text-anchor="middle" fill="#172033" font-size="13" font-weight="700">32,551</text><rect x="365" y="131" width="43" height="209" rx="5" fill="#7c3aed"/><text x="386.5" y="368" text-anchor="middle" fill="#475569" font-size="14">2011</text><text x="386.5" y="123" text-anchor="middle" fill="#172033" font-size="13" font-weight="700">31,243</text><rect x="422" y="144" width="43" height="196" rx="5" fill="#7c3aed"/><text x="443.5" y="368" text-anchor="middle" fill="#475569" font-size="14">2012</text><text x="443.5" y="136" text-anchor="middle" fill="#172033" font-size="13" font-weight="700">29,411</text><rect x="479" y="119" width="43" height="221" rx="5" fill="#7c3aed"/><text x="500.5" y="368" text-anchor="middle" fill="#475569" font-size="14">2013</text><text x="500.5" y="111" text-anchor="middle" fill="#172033" font-size="13" font-weight="700">33,132</text><rect x="536" y="152" width="43" height="188" rx="5" fill="#7c3aed"/><text x="557.5" y="368" text-anchor="middle" fill="#475569" font-size="14">2014</text><text x="557.5" y="144" text-anchor="middle" fill="#172033" font-size="13" font-weight="700">28,205</text><rect x="593" y="171" width="43" height="169" rx="5" fill="#7c3aed"/><text x="614.5" y="368" text-anchor="middle" fill="#475569" font-size="14">2015</text><text x="614.5" y="163" text-anchor="middle" fill="#172033" font-size="13" font-weight="700">25,285</text><rect x="650" y="206" width="43" height="134" rx="5" fill="#7c3aed"/><text x="671.5" y="368" text-anchor="middle" fill="#475569" font-size="14">2016</text><text x="671.5" y="198" text-anchor="middle" fill="#172033" font-size="13" font-weight="700">20,081</text><rect x="707" y="136" width="43" height="204" rx="5" fill="#7c3aed"/><text x="728.5" y="368" text-anchor="middle" fill="#475569" font-size="14">2017</text><text x="728.5" y="128" text-anchor="middle" fill="#172033" font-size="13" font-weight="700">30,555</text><rect x="764" y="189" width="43" height="151" rx="5" fill="#7c3aed"/><text x="785.5" y="368" text-anchor="middle" fill="#475569" font-size="14">2018</text><text x="785.5" y="181" text-anchor="middle" fill="#172033" font-size="13" font-weight="700">22,580</text><rect x="821" y="169" width="43" height="171" rx="5" fill="#7c3aed"/><text x="842.5" y="368" text-anchor="middle" fill="#475569" font-size="14">2019</text><text x="842.5" y="161" text-anchor="middle" fill="#172033" font-size="13" font-weight="700">25,570</text><rect x="878" y="95" width="43" height="245" rx="5" fill="#7c3aed"/><text x="899.5" y="368" text-anchor="middle" fill="#475569" font-size="14">2020</text><text x="899.5" y="87" text-anchor="middle" fill="#172033" font-size="13" font-weight="700">36,586</text>
</svg>