<svg xmlns="http://www.w3.org/2000/svg" width="1000" height="420" viewBox="0 0 1000 420" role="img" aria-label="Yearly citation mass 2003-2012">
<rect width="100%" height="100%" fill="#ffffff"/>
<text x="32" y="38" fill="#0f172a" font-size="24" font-weight="800">Yearly Citation Mass, 2003-2012</text>
<text x="32" y="60" fill="#64748b" font-size="14">Citation counts among visible selected papers</text>
<line x1="80" y1="340" x2="930" y2="340" stroke="#cbd5e1" stroke-width="2"/>
<rect x="80" y="84" width="72" height="256" rx="5" fill="#7c3aed"/><text x="116.0" y="368" text-anchor="middle" fill="#475569" font-size="14">2003</text><text x="116.0" y="76" text-anchor="middle" fill="#172033" font-size="13" font-weight="700">40,138</text><rect x="166" y="70" width="72" height="270" rx="5" fill="#7c3aed"/><text x="202.0" y="368" text-anchor="middle" fill="#475569" font-size="14">2004</text><text x="202.0" y="62" text-anchor="middle" fill="#172033" font-size="13" font-weight="700">42,252</text><rect x="252" y="74" width="72" height="266" rx="5" fill="#7c3aed"/><text x="288.0" y="368" text-anchor="middle" fill="#475569" font-size="14">2005</text><text x="288.0" y="66" text-anchor="middle" fill="#172033" font-size="13" font-weight="700">41,685</text><rect x="338" y="88" width="72" height="252" rx="5" fill="#7c3aed"/><text x="374.0" y="368" text-anchor="middle" fill="#475569" font-size="14">2006</text><text x="374.0" y="80" text-anchor="middle" fill="#172033" font-size="13" font-weight="700">39,573</text><rect x="424" y="107" width="72" height="233" rx="5" fill="#7c3aed"/><text x="460.0" y="368" text-anchor="middle" fill="#475569" font-size="14">2007</text><text x="460.0" y="99" text-anchor="middle" fill="#172033" font-size="13" font-weight="700">36,545</text><rect x="510" y="96" width="72" height="244" rx="5" fill="#7c3aed"/><text x="546.0" y="368" text-anchor="middle" fill="#475569" font-size="14">2008</text><text x="546.0" y="88" text-anchor="middle" fill="#172033" font-size="13" font-weight="700">38,309</text><rect x="596" y="83" width="72" height="257" rx="5" fill="#7c3aed"/><text x="632.0" y="368" text-anchor="middle" fill="#475569" font-size="14">2009</text><text x="632.0" y="75" text-anchor="middle" fill="#172033" font-size="13" font-weight="700">40,313</text><rect x="682" y="132" width="72" height="208" rx="5" fill="#7c3aed"/><text x="718.0" y="368" text-anchor="middle" fill="#475569" font-size="14">2010</text><text x="718.0" y="124" text-anchor="middle" fill="#172033" font-size="13" font-weight="700">32,551</text><rect x="768" y="141" width="72" height="199" rx="5" fill="#7c3aed"/><text x="804.0" y="368" text-anchor="middle" fill="#475569" font-size="14">2011</text><text x="804.0" y="133" text-anchor="middle" fill="#172033" font-size="13" font-weight="700">31,243</text><rect x="854" y="153" width="72" height="187" rx="5" fill="#7c3aed"/><text x="890.0" y="368" text-anchor="middle" fill="#475569" font-size="14">2012</text><text x="890.0" y="145" text-anchor="middle" fill="#172033" font-size="13" font-weight="700">29,411</text>
</svg>