<svg xmlns="http://www.w3.org/2000/svg" width="1000" height="420" viewBox="0 0 1000 420" role="img" aria-label="Yearly citation mass 2004-2025">
<rect width="100%" height="100%" fill="#ffffff"/>
<text x="32" y="38" fill="#0f172a" font-size="24" font-weight="800">Yearly Citation Mass, 2004-2025</text>
<text x="32" y="60" fill="#64748b" font-size="14">Citation counts among visible selected papers</text>
<line x1="80" y1="340" x2="930" y2="340" stroke="#cbd5e1" stroke-width="2"/>
<rect x="80" y="77" width="25" height="263" rx="5" fill="#7c3aed"/><text x="92.5" y="368" text-anchor="middle" fill="#475569" font-size="14">2004</text><text x="92.5" y="69" text-anchor="middle" fill="#172033" font-size="13" font-weight="700">49,890</text><rect x="119" y="90" width="25" height="250" rx="5" fill="#7c3aed"/><text x="131.5" y="368" text-anchor="middle" fill="#475569" font-size="14">2005</text><text x="131.5" y="82" text-anchor="middle" fill="#172033" font-size="13" font-weight="700">47,352</text><rect x="158" y="119" width="25" height="221" rx="5" fill="#7c3aed"/><text x="170.5" y="368" text-anchor="middle" fill="#475569" font-size="14">2006</text><text x="170.5" y="111" text-anchor="middle" fill="#172033" font-size="13" font-weight="700">41,836</text><rect x="197" y="134" width="25" height="206" rx="5" fill="#7c3aed"/><text x="209.5" y="368" text-anchor="middle" fill="#475569" font-size="14">2007</text><text x="209.5" y="126" text-anchor="middle" fill="#172033" font-size="13" font-weight="700">38,982</text><rect x="236" y="121" width="25" height="219" rx="5" fill="#7c3aed"/><text x="248.5" y="368" text-anchor="middle" fill="#475569" font-size="14">2008</text><text x="248.5" y="113" text-anchor="middle" fill="#172033" font-size="13" font-weight="700">41,513</text><rect x="275" y="108" width="25" height="232" rx="5" fill="#7c3aed"/><text x="287.5" y="368" text-anchor="middle" fill="#475569" font-size="14">2009</text><text x="287.5" y="100" text-anchor="middle" fill="#172033" font-size="13" font-weight="700">43,953</text><rect x="314" y="141" width="25" height="199" rx="5" fill="#7c3aed"/><text x="326.5" y="368" text-anchor="middle" fill="#475569" font-size="14">2010</text><text x="326.5" y="133" text-anchor="middle" fill="#172033" font-size="13" font-weight="700">37,701</text><rect x="353" y="160" width="25" height="180" rx="5" fill="#7c3aed"/><text x="365.5" y="368" text-anchor="middle" fill="#475569" font-size="14">2011</text><text x="365.5" y="152" text-anchor="middle" fill="#172033" font-size="13" font-weight="700">34,084</text><rect x="392" y="145" width="25" height="195" rx="5" fill="#7c3aed"/><text x="404.5" y="368" text-anchor="middle" fill="#475569" font-size="14">2012</text><text x="404.5" y="137" text-anchor="middle" fill="#172033" font-size="13" font-weight="700">37,002</text><rect x="431" y="152" width="25" height="188" rx="5" fill="#7c3aed"/><text x="443.5" y="368" text-anchor="middle" fill="#475569" font-size="14">2013</text><text x="443.5" y="144" text-anchor="middle" fill="#172033" font-size="13" font-weight="700">35,595</text><rect x="470" y="177" width="25" height="163" rx="5" fill="#7c3aed"/><text x="482.5" y="368" text-anchor="middle" fill="#475569" font-size="14">2014</text><text x="482.5" y="169" text-anchor="middle" fill="#172033" font-size="13" font-weight="700">30,999</text><rect x="509" y="70" width="25" height="270" rx="5" fill="#7c3aed"/><text x="521.5" y="368" text-anchor="middle" fill="#475569" font-size="14">2015</text><text x="521.5" y="62" text-anchor="middle" fill="#172033" font-size="13" font-weight="700">51,060</text><rect x="548" y="203" width="25" height="137" rx="5" fill="#7c3aed"/><text x="560.5" y="368" text-anchor="middle" fill="#475569" font-size="14">2016</text><text x="560.5" y="195" text-anchor="middle" fill="#172033" font-size="13" font-weight="700">26,012</text><rect x="587" y="123" width="25" height="217" rx="5" fill="#7c3aed"/><text x="599.5" y="368" text-anchor="middle" fill="#475569" font-size="14">2017</text><text x="599.5" y="115" text-anchor="middle" fill="#172033" font-size="13" font-weight="700">41,195</text><rect x="626" y="128" width="25" height="212" rx="5" fill="#7c3aed"/><text x="638.5" y="368" text-anchor="middle" fill="#475569" font-size="14">2018</text><text x="638.5" y="120" text-anchor="middle" fill="#172033" font-size="13" font-weight="700">40,175</text><rect x="665" y="109" width="25" height="231" rx="5" fill="#7c3aed"/><text x="677.5" y="368" text-anchor="middle" fill="#475569" font-size="14">2019</text><text x="677.5" y="101" text-anchor="middle" fill="#172033" font-size="13" font-weight="700">43,754</text><rect x="704" y="109" width="25" height="231" rx="5" fill="#7c3aed"/><text x="716.5" y="368" text-anchor="middle" fill="#475569" font-size="14">2020</text><text x="716.5" y="101" text-anchor="middle" fill="#172033" font-size="13" font-weight="700">43,869</text><rect x="743" y="188" width="25" height="152" rx="5" fill="#7c3aed"/><text x="755.5" y="368" text-anchor="middle" fill="#475569" font-size="14">2021</text><text x="755.5" y="180" text-anchor="middle" fill="#172033" font-size="13" font-weight="700">28,778</text><rect x="782" y="236" width="25" height="104" rx="5" fill="#7c3aed"/><text x="794.5" y="368" text-anchor="middle" fill="#475569" font-size="14">2022</text><text x="794.5" y="228" text-anchor="middle" fill="#172033" font-size="13" font-weight="700">19,723</text><rect x="821" y="206" width="25" height="134" rx="5" fill="#7c3aed"/><text x="833.5" y="368" text-anchor="middle" fill="#475569" font-size="14">2023</text><text x="833.5" y="198" text-anchor="middle" fill="#172033" font-size="13" font-weight="700">25,444</text><rect x="860" y="285" width="25" height="55" rx="5" fill="#7c3aed"/><text x="872.5" y="368" text-anchor="middle" fill="#475569" font-size="14">2024</text><text x="872.5" y="277" text-anchor="middle" fill="#172033" font-size="13" font-weight="700">10,492</text><rect x="899" y="311" width="25" height="29" rx="5" fill="#7c3aed"/><text x="911.5" y="368" text-anchor="middle" fill="#475569" font-size="14">2025</text><text x="911.5" y="303" text-anchor="middle" fill="#172033" font-size="13" font-weight="700">5,571</text>
</svg>