<svg xmlns="http://www.w3.org/2000/svg" width="1000" height="420" viewBox="0 0 1000 420" role="img" aria-label="Yearly citation mass 2012-2018">
<rect width="100%" height="100%" fill="#ffffff"/>
<text x="32" y="38" fill="#0f172a" font-size="24" font-weight="800">Yearly Citation Mass, 2012-2018</text>
<text x="32" y="60" fill="#64748b" font-size="14">Citation counts among visible selected papers</text>
<line x1="80" y1="340" x2="930" y2="340" stroke="#cbd5e1" stroke-width="2"/>
<rect x="80" y="101" width="109" height="239" rx="5" fill="#7c3aed"/><text x="134.5" y="368" text-anchor="middle" fill="#475569" font-size="14">2012</text><text x="134.5" y="93" text-anchor="middle" fill="#172033" font-size="13" font-weight="700">29,411</text><rect x="203" y="70" width="109" height="270" rx="5" fill="#7c3aed"/><text x="257.5" y="368" text-anchor="middle" fill="#475569" font-size="14">2013</text><text x="257.5" y="62" text-anchor="middle" fill="#172033" font-size="13" font-weight="700">33,132</text><rect x="326" y="111" width="109" height="229" rx="5" fill="#7c3aed"/><text x="380.5" y="368" text-anchor="middle" fill="#475569" font-size="14">2014</text><text x="380.5" y="103" text-anchor="middle" fill="#172033" font-size="13" font-weight="700">28,205</text><rect x="449" y="134" width="109" height="206" rx="5" fill="#7c3aed"/><text x="503.5" y="368" text-anchor="middle" fill="#475569" font-size="14">2015</text><text x="503.5" y="126" text-anchor="middle" fill="#172033" font-size="13" font-weight="700">25,285</text><rect x="572" y="177" width="109" height="163" rx="5" fill="#7c3aed"/><text x="626.5" y="368" text-anchor="middle" fill="#475569" font-size="14">2016</text><text x="626.5" y="169" text-anchor="middle" fill="#172033" font-size="13" font-weight="700">20,081</text><rect x="695" y="92" width="109" height="248" rx="5" fill="#7c3aed"/><text x="749.5" y="368" text-anchor="middle" fill="#475569" font-size="14">2017</text><text x="749.5" y="84" text-anchor="middle" fill="#172033" font-size="13" font-weight="700">30,555</text><rect x="818" y="156" width="109" height="184" rx="5" fill="#7c3aed"/><text x="872.5" y="368" text-anchor="middle" fill="#475569" font-size="14">2018</text><text x="872.5" y="148" text-anchor="middle" fill="#172033" font-size="13" font-weight="700">22,580</text>
</svg>