<svg xmlns="http://www.w3.org/2000/svg" width="1000" height="420" viewBox="0 0 1000 420" role="img" aria-label="Yearly citation mass 2006-2024">
<rect width="100%" height="100%" fill="#ffffff"/>
<text x="32" y="38" fill="#0f172a" font-size="24" font-weight="800">Yearly Citation Mass, 2006-2024</text>
<text x="32" y="60" fill="#64748b" font-size="14">Citation counts among visible selected papers</text>
<line x1="80" y1="340" x2="930" y2="340" stroke="#cbd5e1" stroke-width="2"/>
<rect x="80" y="75" width="31" height="265" rx="5" fill="#7c3aed"/><text x="95.5" y="368" text-anchor="middle" fill="#475569" font-size="14">2006</text><text x="95.5" y="67" text-anchor="middle" fill="#172033" font-size="13" font-weight="700">39,573</text><rect x="125" y="96" width="31" height="244" rx="5" fill="#7c3aed"/><text x="140.5" y="368" text-anchor="middle" fill="#475569" font-size="14">2007</text><text x="140.5" y="88" text-anchor="middle" fill="#172033" font-size="13" font-weight="700">36,545</text><rect x="170" y="84" width="31" height="256" rx="5" fill="#7c3aed"/><text x="185.5" y="368" text-anchor="middle" fill="#475569" font-size="14">2008</text><text x="185.5" y="76" text-anchor="middle" fill="#172033" font-size="13" font-weight="700">38,309</text><rect x="215" y="70" width="31" height="270" rx="5" fill="#7c3aed"/><text x="230.5" y="368" text-anchor="middle" fill="#475569" font-size="14">2009</text><text x="230.5" y="62" text-anchor="middle" fill="#172033" font-size="13" font-weight="700">40,313</text><rect x="260" y="122" width="31" height="218" rx="5" fill="#7c3aed"/><text x="275.5" y="368" text-anchor="middle" fill="#475569" font-size="14">2010</text><text x="275.5" y="114" text-anchor="middle" fill="#172033" font-size="13" font-weight="700">32,551</text><rect x="305" y="131" width="31" height="209" rx="5" fill="#7c3aed"/><text x="320.5" y="368" text-anchor="middle" fill="#475569" font-size="14">2011</text><text x="320.5" y="123" text-anchor="middle" fill="#172033" font-size="13" font-weight="700">31,243</text><rect x="350" y="144" width="31" height="196" rx="5" fill="#7c3aed"/><text x="365.5" y="368" text-anchor="middle" fill="#475569" font-size="14">2012</text><text x="365.5" y="136" text-anchor="middle" fill="#172033" font-size="13" font-weight="700">29,411</text><rect x="395" y="119" width="31" height="221" rx="5" fill="#7c3aed"/><text x="410.5" y="368" text-anchor="middle" fill="#475569" font-size="14">2013</text><text x="410.5" y="111" text-anchor="middle" fill="#172033" font-size="13" font-weight="700">33,132</text><rect x="440" y="152" width="31" height="188" rx="5" fill="#7c3aed"/><text x="455.5" y="368" text-anchor="middle" fill="#475569" font-size="14">2014</text><text x="455.5" y="144" text-anchor="middle" fill="#172033" font-size="13" font-weight="700">28,205</text><rect x="485" y="171" width="31" height="169" rx="5" fill="#7c3aed"/><text x="500.5" y="368" text-anchor="middle" fill="#475569" font-size="14">2015</text><text x="500.5" y="163" text-anchor="middle" fill="#172033" font-size="13" font-weight="700">25,285</text><rect x="530" y="206" width="31" height="134" rx="5" fill="#7c3aed"/><text x="545.5" y="368" text-anchor="middle" fill="#475569" font-size="14">2016</text><text x="545.5" y="198" text-anchor="middle" fill="#172033" font-size="13" font-weight="700">20,081</text><rect x="575" y="136" width="31" height="204" rx="5" fill="#7c3aed"/><text x="590.5" y="368" text-anchor="middle" fill="#475569" font-size="14">2017</text><text x="590.5" y="128" text-anchor="middle" fill="#172033" font-size="13" font-weight="700">30,555</text><rect x="620" y="189" width="31" height="151" rx="5" fill="#7c3aed"/><text x="635.5" y="368" text-anchor="middle" fill="#475569" font-size="14">2018</text><text x="635.5" y="181" text-anchor="middle" fill="#172033" font-size="13" font-weight="700">22,580</text><rect x="665" y="169" width="31" height="171" rx="5" fill="#7c3aed"/><text x="680.5" y="368" text-anchor="middle" fill="#475569" font-size="14">2019</text><text x="680.5" y="161" text-anchor="middle" fill="#172033" font-size="13" font-weight="700">25,570</text><rect x="710" y="95" width="31" height="245" rx="5" fill="#7c3aed"/><text x="725.5" y="368" text-anchor="middle" fill="#475569" font-size="14">2020</text><text x="725.5" y="87" text-anchor="middle" fill="#172033" font-size="13" font-weight="700">36,586</text><rect x="755" y="213" width="31" height="127" rx="5" fill="#7c3aed"/><text x="770.5" y="368" text-anchor="middle" fill="#475569" font-size="14">2021</text><text x="770.5" y="205" text-anchor="middle" fill="#172033" font-size="13" font-weight="700">18,971</text><rect x="800" y="264" width="31" height="76" rx="5" fill="#7c3aed"/><text x="815.5" y="368" text-anchor="middle" fill="#475569" font-size="14">2022</text><text x="815.5" y="256" text-anchor="middle" fill="#172033" font-size="13" font-weight="700">11,479</text><rect x="845" y="274" width="31" height="66" rx="5" fill="#7c3aed"/><text x="860.5" y="368" text-anchor="middle" fill="#475569" font-size="14">2023</text><text x="860.5" y="266" text-anchor="middle" fill="#172033" font-size="13" font-weight="700">9,978</text><rect x="890" y="303" width="31" height="37" rx="5" fill="#7c3aed"/><text x="905.5" y="368" text-anchor="middle" fill="#475569" font-size="14">2024</text><text x="905.5" y="295" text-anchor="middle" fill="#172033" font-size="13" font-weight="700">5,525</text>
</svg>