<svg xmlns="http://www.w3.org/2000/svg" width="1000" height="420" viewBox="0 0 1000 420" role="img" aria-label="Yearly citation mass 2005-2024">
<rect width="100%" height="100%" fill="#ffffff"/>
<text x="32" y="38" fill="#0f172a" font-size="24" font-weight="800">Yearly Citation Mass, 2005-2024</text>
<text x="32" y="60" fill="#64748b" font-size="14">Citation counts among visible selected papers</text>
<line x1="80" y1="340" x2="930" y2="340" stroke="#cbd5e1" stroke-width="2"/>
<rect x="80" y="70" width="29" height="270" rx="5" fill="#7c3aed"/><text x="94.5" y="368" text-anchor="middle" fill="#475569" font-size="14">2005</text><text x="94.5" y="62" text-anchor="middle" fill="#172033" font-size="13" font-weight="700">41,685</text><rect x="123" y="84" width="29" height="256" rx="5" fill="#7c3aed"/><text x="137.5" y="368" text-anchor="middle" fill="#475569" font-size="14">2006</text><text x="137.5" y="76" text-anchor="middle" fill="#172033" font-size="13" font-weight="700">39,573</text><rect x="166" y="104" width="29" height="236" rx="5" fill="#7c3aed"/><text x="180.5" y="368" text-anchor="middle" fill="#475569" font-size="14">2007</text><text x="180.5" y="96" text-anchor="middle" fill="#172033" font-size="13" font-weight="700">36,545</text><rect x="209" y="92" width="29" height="248" rx="5" fill="#7c3aed"/><text x="223.5" y="368" text-anchor="middle" fill="#475569" font-size="14">2008</text><text x="223.5" y="84" text-anchor="middle" fill="#172033" font-size="13" font-weight="700">38,309</text><rect x="252" y="79" width="29" height="261" rx="5" fill="#7c3aed"/><text x="266.5" y="368" text-anchor="middle" fill="#475569" font-size="14">2009</text><text x="266.5" y="71" text-anchor="middle" fill="#172033" font-size="13" font-weight="700">40,313</text><rect x="295" y="130" width="29" height="210" rx="5" fill="#7c3aed"/><text x="309.5" y="368" text-anchor="middle" fill="#475569" font-size="14">2010</text><text x="309.5" y="122" text-anchor="middle" fill="#172033" font-size="13" font-weight="700">32,551</text><rect x="338" y="138" width="29" height="202" rx="5" fill="#7c3aed"/><text x="352.5" y="368" text-anchor="middle" fill="#475569" font-size="14">2011</text><text x="352.5" y="130" text-anchor="middle" fill="#172033" font-size="13" font-weight="700">31,243</text><rect x="381" y="150" width="29" height="190" rx="5" fill="#7c3aed"/><text x="395.5" y="368" text-anchor="middle" fill="#475569" font-size="14">2012</text><text x="395.5" y="142" text-anchor="middle" fill="#172033" font-size="13" font-weight="700">29,411</text><rect x="424" y="126" width="29" height="214" rx="5" fill="#7c3aed"/><text x="438.5" y="368" text-anchor="middle" fill="#475569" font-size="14">2013</text><text x="438.5" y="118" text-anchor="middle" fill="#172033" font-size="13" font-weight="700">33,132</text><rect x="467" y="158" width="29" height="182" rx="5" fill="#7c3aed"/><text x="481.5" y="368" text-anchor="middle" fill="#475569" font-size="14">2014</text><text x="481.5" y="150" text-anchor="middle" fill="#172033" font-size="13" font-weight="700">28,205</text><rect x="510" y="177" width="29" height="163" rx="5" fill="#7c3aed"/><text x="524.5" y="368" text-anchor="middle" fill="#475569" font-size="14">2015</text><text x="524.5" y="169" text-anchor="middle" fill="#172033" font-size="13" font-weight="700">25,285</text><rect x="553" y="210" width="29" height="130" rx="5" fill="#7c3aed"/><text x="567.5" y="368" text-anchor="middle" fill="#475569" font-size="14">2016</text><text x="567.5" y="202" text-anchor="middle" fill="#172033" font-size="13" font-weight="700">20,081</text><rect x="596" y="143" width="29" height="197" rx="5" fill="#7c3aed"/><text x="610.5" y="368" text-anchor="middle" fill="#475569" font-size="14">2017</text><text x="610.5" y="135" text-anchor="middle" fill="#172033" font-size="13" font-weight="700">30,555</text><rect x="639" y="194" width="29" height="146" rx="5" fill="#7c3aed"/><text x="653.5" y="368" text-anchor="middle" fill="#475569" font-size="14">2018</text><text x="653.5" y="186" text-anchor="middle" fill="#172033" font-size="13" font-weight="700">22,580</text><rect x="682" y="175" width="29" height="165" rx="5" fill="#7c3aed"/><text x="696.5" y="368" text-anchor="middle" fill="#475569" font-size="14">2019</text><text x="696.5" y="167" text-anchor="middle" fill="#172033" font-size="13" font-weight="700">25,570</text><rect x="725" y="104" width="29" height="236" rx="5" fill="#7c3aed"/><text x="739.5" y="368" text-anchor="middle" fill="#475569" font-size="14">2020</text><text x="739.5" y="96" text-anchor="middle" fill="#172033" font-size="13" font-weight="700">36,586</text><rect x="768" y="218" width="29" height="122" rx="5" fill="#7c3aed"/><text x="782.5" y="368" text-anchor="middle" fill="#475569" font-size="14">2021</text><text x="782.5" y="210" text-anchor="middle" fill="#172033" font-size="13" font-weight="700">18,971</text><rect x="811" y="266" width="29" height="74" rx="5" fill="#7c3aed"/><text x="825.5" y="368" text-anchor="middle" fill="#475569" font-size="14">2022</text><text x="825.5" y="258" text-anchor="middle" fill="#172033" font-size="13" font-weight="700">11,479</text><rect x="854" y="276" width="29" height="64" rx="5" fill="#7c3aed"/><text x="868.5" y="368" text-anchor="middle" fill="#475569" font-size="14">2023</text><text x="868.5" y="268" text-anchor="middle" fill="#172033" font-size="13" font-weight="700">9,978</text><rect x="897" y="305" width="29" height="35" rx="5" fill="#7c3aed"/><text x="911.5" y="368" text-anchor="middle" fill="#475569" font-size="14">2024</text><text x="911.5" y="297" text-anchor="middle" fill="#172033" font-size="13" font-weight="700">5,525</text>
</svg>