<svg xmlns="http://www.w3.org/2000/svg" width="1000" height="420" viewBox="0 0 1000 420" role="img" aria-label="Yearly citation mass 2001-2018">
<rect width="100%" height="100%" fill="#ffffff"/>
<text x="32" y="38" fill="#0f172a" font-size="24" font-weight="800">Yearly Citation Mass, 2001-2018</text>
<text x="32" y="60" fill="#64748b" font-size="14">Citation counts among visible selected papers</text>
<line x1="80" y1="340" x2="930" y2="340" stroke="#cbd5e1" stroke-width="2"/>
<rect x="80" y="70" width="34" height="270" rx="5" fill="#7c3aed"/><text x="97.0" y="368" text-anchor="middle" fill="#475569" font-size="14">2001</text><text x="97.0" y="62" text-anchor="middle" fill="#172033" font-size="13" font-weight="700">57,380</text><rect x="128" y="104" width="34" height="236" rx="5" fill="#7c3aed"/><text x="145.0" y="368" text-anchor="middle" fill="#475569" font-size="14">2002</text><text x="145.0" y="96" text-anchor="middle" fill="#172033" font-size="13" font-weight="700">50,335</text><rect x="176" y="116" width="34" height="224" rx="5" fill="#7c3aed"/><text x="193.0" y="368" text-anchor="middle" fill="#475569" font-size="14">2003</text><text x="193.0" y="108" text-anchor="middle" fill="#172033" font-size="13" font-weight="700">47,719</text><rect x="224" y="106" width="34" height="234" rx="5" fill="#7c3aed"/><text x="241.0" y="368" text-anchor="middle" fill="#475569" font-size="14">2004</text><text x="241.0" y="98" text-anchor="middle" fill="#172033" font-size="13" font-weight="700">49,890</text><rect x="272" y="118" width="34" height="222" rx="5" fill="#7c3aed"/><text x="289.0" y="368" text-anchor="middle" fill="#475569" font-size="14">2005</text><text x="289.0" y="110" text-anchor="middle" fill="#172033" font-size="13" font-weight="700">47,352</text><rect x="320" y="144" width="34" height="196" rx="5" fill="#7c3aed"/><text x="337.0" y="368" text-anchor="middle" fill="#475569" font-size="14">2006</text><text x="337.0" y="136" text-anchor="middle" fill="#172033" font-size="13" font-weight="700">41,836</text><rect x="368" y="157" width="34" height="183" rx="5" fill="#7c3aed"/><text x="385.0" y="368" text-anchor="middle" fill="#475569" font-size="14">2007</text><text x="385.0" y="149" text-anchor="middle" fill="#172033" font-size="13" font-weight="700">38,982</text><rect x="416" y="145" width="34" height="195" rx="5" fill="#7c3aed"/><text x="433.0" y="368" text-anchor="middle" fill="#475569" font-size="14">2008</text><text x="433.0" y="137" text-anchor="middle" fill="#172033" font-size="13" font-weight="700">41,513</text><rect x="464" y="134" width="34" height="206" rx="5" fill="#7c3aed"/><text x="481.0" y="368" text-anchor="middle" fill="#475569" font-size="14">2009</text><text x="481.0" y="126" text-anchor="middle" fill="#172033" font-size="13" font-weight="700">43,953</text><rect x="512" y="163" width="34" height="177" rx="5" fill="#7c3aed"/><text x="529.0" y="368" text-anchor="middle" fill="#475569" font-size="14">2010</text><text x="529.0" y="155" text-anchor="middle" fill="#172033" font-size="13" font-weight="700">37,701</text><rect x="560" y="180" width="34" height="160" rx="5" fill="#7c3aed"/><text x="577.0" y="368" text-anchor="middle" fill="#475569" font-size="14">2011</text><text x="577.0" y="172" text-anchor="middle" fill="#172033" font-size="13" font-weight="700">34,084</text><rect x="608" y="166" width="34" height="174" rx="5" fill="#7c3aed"/><text x="625.0" y="368" text-anchor="middle" fill="#475569" font-size="14">2012</text><text x="625.0" y="158" text-anchor="middle" fill="#172033" font-size="13" font-weight="700">37,002</text><rect x="656" y="173" width="34" height="167" rx="5" fill="#7c3aed"/><text x="673.0" y="368" text-anchor="middle" fill="#475569" font-size="14">2013</text><text x="673.0" y="165" text-anchor="middle" fill="#172033" font-size="13" font-weight="700">35,595</text><rect x="704" y="195" width="34" height="145" rx="5" fill="#7c3aed"/><text x="721.0" y="368" text-anchor="middle" fill="#475569" font-size="14">2014</text><text x="721.0" y="187" text-anchor="middle" fill="#172033" font-size="13" font-weight="700">30,999</text><rect x="752" y="100" width="34" height="240" rx="5" fill="#7c3aed"/><text x="769.0" y="368" text-anchor="middle" fill="#475569" font-size="14">2015</text><text x="769.0" y="92" text-anchor="middle" fill="#172033" font-size="13" font-weight="700">51,060</text><rect x="800" y="218" width="34" height="122" rx="5" fill="#7c3aed"/><text x="817.0" y="368" text-anchor="middle" fill="#475569" font-size="14">2016</text><text x="817.0" y="210" text-anchor="middle" fill="#172033" font-size="13" font-weight="700">26,012</text><rect x="848" y="147" width="34" height="193" rx="5" fill="#7c3aed"/><text x="865.0" y="368" text-anchor="middle" fill="#475569" font-size="14">2017</text><text x="865.0" y="139" text-anchor="middle" fill="#172033" font-size="13" font-weight="700">41,195</text><rect x="896" y="151" width="34" height="189" rx="5" fill="#7c3aed"/><text x="913.0" y="368" text-anchor="middle" fill="#475569" font-size="14">2018</text><text x="913.0" y="143" text-anchor="middle" fill="#172033" font-size="13" font-weight="700">40,175</text>
</svg>