<svg xmlns="http://www.w3.org/2000/svg" width="1000" height="420" viewBox="0 0 1000 420" role="img" aria-label="Yearly citation mass 2015-2021">
<rect width="100%" height="100%" fill="#ffffff"/>
<text x="32" y="38" fill="#0f172a" font-size="24" font-weight="800">Yearly Citation Mass, 2015-2021</text>
<text x="32" y="60" fill="#64748b" font-size="14">Citation counts among visible selected papers</text>
<line x1="80" y1="340" x2="930" y2="340" stroke="#cbd5e1" stroke-width="2"/>
<rect x="80" y="70" width="109" height="270" rx="5" fill="#7c3aed"/><text x="134.5" y="368" text-anchor="middle" fill="#475569" font-size="14">2015</text><text x="134.5" y="62" text-anchor="middle" fill="#172033" font-size="13" font-weight="700">51,060</text><rect x="203" y="203" width="109" height="137" rx="5" fill="#7c3aed"/><text x="257.5" y="368" text-anchor="middle" fill="#475569" font-size="14">2016</text><text x="257.5" y="195" text-anchor="middle" fill="#172033" font-size="13" font-weight="700">26,012</text><rect x="326" y="123" width="109" height="217" rx="5" fill="#7c3aed"/><text x="380.5" y="368" text-anchor="middle" fill="#475569" font-size="14">2017</text><text x="380.5" y="115" text-anchor="middle" fill="#172033" font-size="13" font-weight="700">41,195</text><rect x="449" y="128" width="109" height="212" rx="5" fill="#7c3aed"/><text x="503.5" y="368" text-anchor="middle" fill="#475569" font-size="14">2018</text><text x="503.5" y="120" text-anchor="middle" fill="#172033" font-size="13" font-weight="700">40,175</text><rect x="572" y="109" width="109" height="231" rx="5" fill="#7c3aed"/><text x="626.5" y="368" text-anchor="middle" fill="#475569" font-size="14">2019</text><text x="626.5" y="101" text-anchor="middle" fill="#172033" font-size="13" font-weight="700">43,754</text><rect x="695" y="109" width="109" height="231" rx="5" fill="#7c3aed"/><text x="749.5" y="368" text-anchor="middle" fill="#475569" font-size="14">2020</text><text x="749.5" y="101" text-anchor="middle" fill="#172033" font-size="13" font-weight="700">43,869</text><rect x="818" y="188" width="109" height="152" rx="5" fill="#7c3aed"/><text x="872.5" y="368" text-anchor="middle" fill="#475569" font-size="14">2021</text><text x="872.5" y="180" text-anchor="middle" fill="#172033" font-size="13" font-weight="700">28,778</text>
</svg>