<svg xmlns="http://www.w3.org/2000/svg" width="1000" height="420" viewBox="0 0 1000 420" role="img" aria-label="Yearly citation mass 2002-2009">
<rect width="100%" height="100%" fill="#ffffff"/>
<text x="32" y="38" fill="#0f172a" font-size="24" font-weight="800">Yearly Citation Mass, 2002-2009</text>
<text x="32" y="60" fill="#64748b" font-size="14">Citation counts among visible selected papers</text>
<line x1="80" y1="340" x2="930" y2="340" stroke="#cbd5e1" stroke-width="2"/>
<rect x="80" y="70" width="94" height="270" rx="5" fill="#7c3aed"/><text x="127.0" y="368" text-anchor="middle" fill="#475569" font-size="14">2002</text><text x="127.0" y="62" text-anchor="middle" fill="#172033" font-size="13" font-weight="700">50,335</text><rect x="188" y="85" width="94" height="255" rx="5" fill="#7c3aed"/><text x="235.0" y="368" text-anchor="middle" fill="#475569" font-size="14">2003</text><text x="235.0" y="77" text-anchor="middle" fill="#172033" font-size="13" font-weight="700">47,719</text><rect x="296" y="73" width="94" height="267" rx="5" fill="#7c3aed"/><text x="343.0" y="368" text-anchor="middle" fill="#475569" font-size="14">2004</text><text x="343.0" y="65" text-anchor="middle" fill="#172033" font-size="13" font-weight="700">49,890</text><rect x="404" y="87" width="94" height="253" rx="5" fill="#7c3aed"/><text x="451.0" y="368" text-anchor="middle" fill="#475569" font-size="14">2005</text><text x="451.0" y="79" text-anchor="middle" fill="#172033" font-size="13" font-weight="700">47,352</text><rect x="512" y="116" width="94" height="224" rx="5" fill="#7c3aed"/><text x="559.0" y="368" text-anchor="middle" fill="#475569" font-size="14">2006</text><text x="559.0" y="108" text-anchor="middle" fill="#172033" font-size="13" font-weight="700">41,836</text><rect x="620" y="131" width="94" height="209" rx="5" fill="#7c3aed"/><text x="667.0" y="368" text-anchor="middle" fill="#475569" font-size="14">2007</text><text x="667.0" y="123" text-anchor="middle" fill="#172033" font-size="13" font-weight="700">38,982</text><rect x="728" y="118" width="94" height="222" rx="5" fill="#7c3aed"/><text x="775.0" y="368" text-anchor="middle" fill="#475569" font-size="14">2008</text><text x="775.0" y="110" text-anchor="middle" fill="#172033" font-size="13" font-weight="700">41,513</text><rect x="836" y="105" width="94" height="235" rx="5" fill="#7c3aed"/><text x="883.0" y="368" text-anchor="middle" fill="#475569" font-size="14">2009</text><text x="883.0" y="97" text-anchor="middle" fill="#172033" font-size="13" font-weight="700">43,953</text>
</svg>