<svg xmlns="http://www.w3.org/2000/svg" width="1000" height="420" viewBox="0 0 1000 420" role="img" aria-label="Yearly citation mass 2017-2025">
<rect width="100%" height="100%" fill="#ffffff"/>
<text x="32" y="38" fill="#0f172a" font-size="24" font-weight="800">Yearly Citation Mass, 2017-2025</text>
<text x="32" y="60" fill="#64748b" font-size="14">Citation counts among visible selected papers</text>
<line x1="80" y1="340" x2="930" y2="340" stroke="#cbd5e1" stroke-width="2"/>
<rect x="80" y="115" width="82" height="225" rx="5" fill="#7c3aed"/><text x="121.0" y="368" text-anchor="middle" fill="#475569" font-size="14">2017</text><text x="121.0" y="107" text-anchor="middle" fill="#172033" font-size="13" font-weight="700">30,555</text><rect x="176" y="174" width="82" height="166" rx="5" fill="#7c3aed"/><text x="217.0" y="368" text-anchor="middle" fill="#475569" font-size="14">2018</text><text x="217.0" y="166" text-anchor="middle" fill="#172033" font-size="13" font-weight="700">22,580</text><rect x="272" y="152" width="82" height="188" rx="5" fill="#7c3aed"/><text x="313.0" y="368" text-anchor="middle" fill="#475569" font-size="14">2019</text><text x="313.0" y="144" text-anchor="middle" fill="#172033" font-size="13" font-weight="700">25,570</text><rect x="368" y="70" width="82" height="270" rx="5" fill="#7c3aed"/><text x="409.0" y="368" text-anchor="middle" fill="#475569" font-size="14">2020</text><text x="409.0" y="62" text-anchor="middle" fill="#172033" font-size="13" font-weight="700">36,586</text><rect x="464" y="200" width="82" height="140" rx="5" fill="#7c3aed"/><text x="505.0" y="368" text-anchor="middle" fill="#475569" font-size="14">2021</text><text x="505.0" y="192" text-anchor="middle" fill="#172033" font-size="13" font-weight="700">18,971</text><rect x="560" y="256" width="82" height="84" rx="5" fill="#7c3aed"/><text x="601.0" y="368" text-anchor="middle" fill="#475569" font-size="14">2022</text><text x="601.0" y="248" text-anchor="middle" fill="#172033" font-size="13" font-weight="700">11,479</text><rect x="656" y="267" width="82" height="73" rx="5" fill="#7c3aed"/><text x="697.0" y="368" text-anchor="middle" fill="#475569" font-size="14">2023</text><text x="697.0" y="259" text-anchor="middle" fill="#172033" font-size="13" font-weight="700">9,978</text><rect x="752" y="300" width="82" height="40" rx="5" fill="#7c3aed"/><text x="793.0" y="368" text-anchor="middle" fill="#475569" font-size="14">2024</text><text x="793.0" y="292" text-anchor="middle" fill="#172033" font-size="13" font-weight="700">5,525</text><rect x="848" y="323" width="82" height="17" rx="5" fill="#7c3aed"/><text x="889.0" y="368" text-anchor="middle" fill="#475569" font-size="14">2025</text><text x="889.0" y="315" text-anchor="middle" fill="#172033" font-size="13" font-weight="700">2,429</text>
</svg>