<svg xmlns="http://www.w3.org/2000/svg" width="1000" height="420" viewBox="0 0 1000 420" role="img" aria-label="Yearly citation mass 2021-2026">
<rect width="100%" height="100%" fill="#ffffff"/>
<text x="32" y="38" fill="#0f172a" font-size="24" font-weight="800">Yearly Citation Mass, 2021-2026</text>
<text x="32" y="60" fill="#64748b" font-size="14">Citation counts among visible selected papers</text>
<line x1="80" y1="340" x2="930" y2="340" stroke="#cbd5e1" stroke-width="2"/>
<rect x="80" y="70" width="130" height="270" rx="5" fill="#7c3aed"/><text x="145.0" y="368" text-anchor="middle" fill="#475569" font-size="14">2021</text><text x="145.0" y="62" text-anchor="middle" fill="#172033" font-size="13" font-weight="700">28,778</text><rect x="224" y="155" width="130" height="185" rx="5" fill="#7c3aed"/><text x="289.0" y="368" text-anchor="middle" fill="#475569" font-size="14">2022</text><text x="289.0" y="147" text-anchor="middle" fill="#172033" font-size="13" font-weight="700">19,723</text><rect x="368" y="102" width="130" height="238" rx="5" fill="#7c3aed"/><text x="433.0" y="368" text-anchor="middle" fill="#475569" font-size="14">2023</text><text x="433.0" y="94" text-anchor="middle" fill="#172033" font-size="13" font-weight="700">25,444</text><rect x="512" y="242" width="130" height="98" rx="5" fill="#7c3aed"/><text x="577.0" y="368" text-anchor="middle" fill="#475569" font-size="14">2024</text><text x="577.0" y="234" text-anchor="middle" fill="#172033" font-size="13" font-weight="700">10,492</text><rect x="656" y="288" width="130" height="52" rx="5" fill="#7c3aed"/><text x="721.0" y="368" text-anchor="middle" fill="#475569" font-size="14">2025</text><text x="721.0" y="280" text-anchor="middle" fill="#172033" font-size="13" font-weight="700">5,571</text><rect x="800" y="334" width="130" height="6" rx="5" fill="#7c3aed"/><text x="865.0" y="368" text-anchor="middle" fill="#475569" font-size="14">2026</text><text x="865.0" y="326" text-anchor="middle" fill="#172033" font-size="13" font-weight="700">713</text>
</svg>