<svg xmlns="http://www.w3.org/2000/svg" width="1000" height="420" viewBox="0 0 1000 420" role="img" aria-label="Yearly citation mass 2010-2024">
<rect width="100%" height="100%" fill="#ffffff"/>
<text x="32" y="38" fill="#0f172a" font-size="24" font-weight="800">Yearly Citation Mass, 2010-2024</text>
<text x="32" y="60" fill="#64748b" font-size="14">Citation counts among visible selected papers</text>
<line x1="80" y1="340" x2="930" y2="340" stroke="#cbd5e1" stroke-width="2"/>
<rect x="80" y="100" width="43" height="240" rx="5" fill="#7c3aed"/><text x="101.5" y="368" text-anchor="middle" fill="#475569" font-size="14">2010</text><text x="101.5" y="92" text-anchor="middle" fill="#172033" font-size="13" font-weight="700">32,551</text><rect x="137" y="110" width="43" height="230" rx="5" fill="#7c3aed"/><text x="158.5" y="368" text-anchor="middle" fill="#475569" font-size="14">2011</text><text x="158.5" y="102" text-anchor="middle" fill="#172033" font-size="13" font-weight="700">31,243</text><rect x="194" y="123" width="43" height="217" rx="5" fill="#7c3aed"/><text x="215.5" y="368" text-anchor="middle" fill="#475569" font-size="14">2012</text><text x="215.5" y="115" text-anchor="middle" fill="#172033" font-size="13" font-weight="700">29,411</text><rect x="251" y="96" width="43" height="244" rx="5" fill="#7c3aed"/><text x="272.5" y="368" text-anchor="middle" fill="#475569" font-size="14">2013</text><text x="272.5" y="88" text-anchor="middle" fill="#172033" font-size="13" font-weight="700">33,132</text><rect x="308" y="132" width="43" height="208" rx="5" fill="#7c3aed"/><text x="329.5" y="368" text-anchor="middle" fill="#475569" font-size="14">2014</text><text x="329.5" y="124" text-anchor="middle" fill="#172033" font-size="13" font-weight="700">28,205</text><rect x="365" y="154" width="43" height="186" rx="5" fill="#7c3aed"/><text x="386.5" y="368" text-anchor="middle" fill="#475569" font-size="14">2015</text><text x="386.5" y="146" text-anchor="middle" fill="#172033" font-size="13" font-weight="700">25,285</text><rect x="422" y="192" width="43" height="148" rx="5" fill="#7c3aed"/><text x="443.5" y="368" text-anchor="middle" fill="#475569" font-size="14">2016</text><text x="443.5" y="184" text-anchor="middle" fill="#172033" font-size="13" font-weight="700">20,081</text><rect x="479" y="115" width="43" height="225" rx="5" fill="#7c3aed"/><text x="500.5" y="368" text-anchor="middle" fill="#475569" font-size="14">2017</text><text x="500.5" y="107" text-anchor="middle" fill="#172033" font-size="13" font-weight="700">30,555</text><rect x="536" y="174" width="43" height="166" rx="5" fill="#7c3aed"/><text x="557.5" y="368" text-anchor="middle" fill="#475569" font-size="14">2018</text><text x="557.5" y="166" text-anchor="middle" fill="#172033" font-size="13" font-weight="700">22,580</text><rect x="593" y="152" width="43" height="188" rx="5" fill="#7c3aed"/><text x="614.5" y="368" text-anchor="middle" fill="#475569" font-size="14">2019</text><text x="614.5" y="144" text-anchor="middle" fill="#172033" font-size="13" font-weight="700">25,570</text><rect x="650" y="70" width="43" height="270" rx="5" fill="#7c3aed"/><text x="671.5" y="368" text-anchor="middle" fill="#475569" font-size="14">2020</text><text x="671.5" y="62" text-anchor="middle" fill="#172033" font-size="13" font-weight="700">36,586</text><rect x="707" y="200" width="43" height="140" rx="5" fill="#7c3aed"/><text x="728.5" y="368" text-anchor="middle" fill="#475569" font-size="14">2021</text><text x="728.5" y="192" text-anchor="middle" fill="#172033" font-size="13" font-weight="700">18,971</text><rect x="764" y="256" width="43" height="84" rx="5" fill="#7c3aed"/><text x="785.5" y="368" text-anchor="middle" fill="#475569" font-size="14">2022</text><text x="785.5" y="248" text-anchor="middle" fill="#172033" font-size="13" font-weight="700">11,479</text><rect x="821" y="267" width="43" height="73" rx="5" fill="#7c3aed"/><text x="842.5" y="368" text-anchor="middle" fill="#475569" font-size="14">2023</text><text x="842.5" y="259" text-anchor="middle" fill="#172033" font-size="13" font-weight="700">9,978</text><rect x="878" y="300" width="43" height="40" rx="5" fill="#7c3aed"/><text x="899.5" y="368" text-anchor="middle" fill="#475569" font-size="14">2024</text><text x="899.5" y="292" text-anchor="middle" fill="#172033" font-size="13" font-weight="700">5,525</text>
</svg>