<svg xmlns="http://www.w3.org/2000/svg" width="1000" height="420" viewBox="0 0 1000 420" role="img" aria-label="Yearly citation mass 2006-2026">
<rect width="100%" height="100%" fill="#ffffff"/>
<text x="32" y="38" fill="#0f172a" font-size="24" font-weight="800">Yearly Citation Mass, 2006-2026</text>
<text x="32" y="60" fill="#64748b" font-size="14">Citation counts among visible selected papers</text>
<line x1="80" y1="340" x2="930" y2="340" stroke="#cbd5e1" stroke-width="2"/>
<rect x="80" y="119" width="27" height="221" rx="5" fill="#7c3aed"/><text x="93.5" y="368" text-anchor="middle" fill="#475569" font-size="14">2006</text><text x="93.5" y="111" text-anchor="middle" fill="#172033" font-size="13" font-weight="700">41,836</text><rect x="121" y="134" width="27" height="206" rx="5" fill="#7c3aed"/><text x="134.5" y="368" text-anchor="middle" fill="#475569" font-size="14">2007</text><text x="134.5" y="126" text-anchor="middle" fill="#172033" font-size="13" font-weight="700">38,982</text><rect x="162" y="121" width="27" height="219" rx="5" fill="#7c3aed"/><text x="175.5" y="368" text-anchor="middle" fill="#475569" font-size="14">2008</text><text x="175.5" y="113" text-anchor="middle" fill="#172033" font-size="13" font-weight="700">41,513</text><rect x="203" y="108" width="27" height="232" rx="5" fill="#7c3aed"/><text x="216.5" y="368" text-anchor="middle" fill="#475569" font-size="14">2009</text><text x="216.5" y="100" text-anchor="middle" fill="#172033" font-size="13" font-weight="700">43,953</text><rect x="244" y="141" width="27" height="199" rx="5" fill="#7c3aed"/><text x="257.5" y="368" text-anchor="middle" fill="#475569" font-size="14">2010</text><text x="257.5" y="133" text-anchor="middle" fill="#172033" font-size="13" font-weight="700">37,701</text><rect x="285" y="160" width="27" height="180" rx="5" fill="#7c3aed"/><text x="298.5" y="368" text-anchor="middle" fill="#475569" font-size="14">2011</text><text x="298.5" y="152" text-anchor="middle" fill="#172033" font-size="13" font-weight="700">34,084</text><rect x="326" y="145" width="27" height="195" rx="5" fill="#7c3aed"/><text x="339.5" y="368" text-anchor="middle" fill="#475569" font-size="14">2012</text><text x="339.5" y="137" text-anchor="middle" fill="#172033" font-size="13" font-weight="700">37,002</text><rect x="367" y="152" width="27" height="188" rx="5" fill="#7c3aed"/><text x="380.5" y="368" text-anchor="middle" fill="#475569" font-size="14">2013</text><text x="380.5" y="144" text-anchor="middle" fill="#172033" font-size="13" font-weight="700">35,595</text><rect x="408" y="177" width="27" height="163" rx="5" fill="#7c3aed"/><text x="421.5" y="368" text-anchor="middle" fill="#475569" font-size="14">2014</text><text x="421.5" y="169" text-anchor="middle" fill="#172033" font-size="13" font-weight="700">30,999</text><rect x="449" y="70" width="27" height="270" rx="5" fill="#7c3aed"/><text x="462.5" y="368" text-anchor="middle" fill="#475569" font-size="14">2015</text><text x="462.5" y="62" text-anchor="middle" fill="#172033" font-size="13" font-weight="700">51,060</text><rect x="490" y="203" width="27" height="137" rx="5" fill="#7c3aed"/><text x="503.5" y="368" text-anchor="middle" fill="#475569" font-size="14">2016</text><text x="503.5" y="195" text-anchor="middle" fill="#172033" font-size="13" font-weight="700">26,012</text><rect x="531" y="123" width="27" height="217" rx="5" fill="#7c3aed"/><text x="544.5" y="368" text-anchor="middle" fill="#475569" font-size="14">2017</text><text x="544.5" y="115" text-anchor="middle" fill="#172033" font-size="13" font-weight="700">41,195</text><rect x="572" y="128" width="27" height="212" rx="5" fill="#7c3aed"/><text x="585.5" y="368" text-anchor="middle" fill="#475569" font-size="14">2018</text><text x="585.5" y="120" text-anchor="middle" fill="#172033" font-size="13" font-weight="700">40,175</text><rect x="613" y="109" width="27" height="231" rx="5" fill="#7c3aed"/><text x="626.5" y="368" text-anchor="middle" fill="#475569" font-size="14">2019</text><text x="626.5" y="101" text-anchor="middle" fill="#172033" font-size="13" font-weight="700">43,754</text><rect x="654" y="109" width="27" height="231" rx="5" fill="#7c3aed"/><text x="667.5" y="368" text-anchor="middle" fill="#475569" font-size="14">2020</text><text x="667.5" y="101" text-anchor="middle" fill="#172033" font-size="13" font-weight="700">43,869</text><rect x="695" y="188" width="27" height="152" rx="5" fill="#7c3aed"/><text x="708.5" y="368" text-anchor="middle" fill="#475569" font-size="14">2021</text><text x="708.5" y="180" text-anchor="middle" fill="#172033" font-size="13" font-weight="700">28,778</text><rect x="736" y="236" width="27" height="104" rx="5" fill="#7c3aed"/><text x="749.5" y="368" text-anchor="middle" fill="#475569" font-size="14">2022</text><text x="749.5" y="228" text-anchor="middle" fill="#172033" font-size="13" font-weight="700">19,723</text><rect x="777" y="206" width="27" height="134" rx="5" fill="#7c3aed"/><text x="790.5" y="368" text-anchor="middle" fill="#475569" font-size="14">2023</text><text x="790.5" y="198" text-anchor="middle" fill="#172033" font-size="13" font-weight="700">25,444</text><rect x="818" y="285" width="27" height="55" rx="5" fill="#7c3aed"/><text x="831.5" y="368" text-anchor="middle" fill="#475569" font-size="14">2024</text><text x="831.5" y="277" text-anchor="middle" fill="#172033" font-size="13" font-weight="700">10,492</text><rect x="859" y="311" width="27" height="29" rx="5" fill="#7c3aed"/><text x="872.5" y="368" text-anchor="middle" fill="#475569" font-size="14">2025</text><text x="872.5" y="303" text-anchor="middle" fill="#172033" font-size="13" font-weight="700">5,571</text><rect x="900" y="337" width="27" height="3" rx="5" fill="#7c3aed"/><text x="913.5" y="368" text-anchor="middle" fill="#475569" font-size="14">2026</text><text x="913.5" y="329" text-anchor="middle" fill="#172033" font-size="13" font-weight="700">713</text>
</svg>