<svg xmlns="http://www.w3.org/2000/svg" width="1000" height="420" viewBox="0 0 1000 420" role="img" aria-label="Yearly citation mass 2013-2018">
<rect width="100%" height="100%" fill="#ffffff"/>
<text x="32" y="38" fill="#0f172a" font-size="24" font-weight="800">Yearly Citation Mass, 2013-2018</text>
<text x="32" y="60" fill="#64748b" font-size="14">Citation counts among visible selected papers</text>
<line x1="80" y1="340" x2="930" y2="340" stroke="#cbd5e1" stroke-width="2"/>
<rect x="80" y="152" width="130" height="188" rx="5" fill="#7c3aed"/><text x="145.0" y="368" text-anchor="middle" fill="#475569" font-size="14">2013</text><text x="145.0" y="144" text-anchor="middle" fill="#172033" font-size="13" font-weight="700">35,595</text><rect x="224" y="177" width="130" height="163" rx="5" fill="#7c3aed"/><text x="289.0" y="368" text-anchor="middle" fill="#475569" font-size="14">2014</text><text x="289.0" y="169" text-anchor="middle" fill="#172033" font-size="13" font-weight="700">30,999</text><rect x="368" y="70" width="130" height="270" rx="5" fill="#7c3aed"/><text x="433.0" y="368" text-anchor="middle" fill="#475569" font-size="14">2015</text><text x="433.0" y="62" text-anchor="middle" fill="#172033" font-size="13" font-weight="700">51,060</text><rect x="512" y="203" width="130" height="137" rx="5" fill="#7c3aed"/><text x="577.0" y="368" text-anchor="middle" fill="#475569" font-size="14">2016</text><text x="577.0" y="195" text-anchor="middle" fill="#172033" font-size="13" font-weight="700">26,012</text><rect x="656" y="123" width="130" height="217" rx="5" fill="#7c3aed"/><text x="721.0" y="368" text-anchor="middle" fill="#475569" font-size="14">2017</text><text x="721.0" y="115" text-anchor="middle" fill="#172033" font-size="13" font-weight="700">41,195</text><rect x="800" y="128" width="130" height="212" rx="5" fill="#7c3aed"/><text x="865.0" y="368" text-anchor="middle" fill="#475569" font-size="14">2018</text><text x="865.0" y="120" text-anchor="middle" fill="#172033" font-size="13" font-weight="700">40,175</text>
</svg>