<svg xmlns="http://www.w3.org/2000/svg" width="1000" height="420" viewBox="0 0 1000 420" role="img" aria-label="Yearly citation mass 2011-2026">
<rect width="100%" height="100%" fill="#ffffff"/>
<text x="32" y="38" fill="#0f172a" font-size="24" font-weight="800">Yearly Citation Mass, 2011-2026</text>
<text x="32" y="60" fill="#64748b" font-size="14">Citation counts among visible selected papers</text>
<line x1="80" y1="340" x2="930" y2="340" stroke="#cbd5e1" stroke-width="2"/>
<rect x="80" y="110" width="40" height="230" rx="5" fill="#7c3aed"/><text x="100.0" y="368" text-anchor="middle" fill="#475569" font-size="14">2011</text><text x="100.0" y="102" text-anchor="middle" fill="#172033" font-size="13" font-weight="700">31,243</text><rect x="134" y="123" width="40" height="217" rx="5" fill="#7c3aed"/><text x="154.0" y="368" text-anchor="middle" fill="#475569" font-size="14">2012</text><text x="154.0" y="115" text-anchor="middle" fill="#172033" font-size="13" font-weight="700">29,411</text><rect x="188" y="96" width="40" height="244" rx="5" fill="#7c3aed"/><text x="208.0" y="368" text-anchor="middle" fill="#475569" font-size="14">2013</text><text x="208.0" y="88" text-anchor="middle" fill="#172033" font-size="13" font-weight="700">33,132</text><rect x="242" y="132" width="40" height="208" rx="5" fill="#7c3aed"/><text x="262.0" y="368" text-anchor="middle" fill="#475569" font-size="14">2014</text><text x="262.0" y="124" text-anchor="middle" fill="#172033" font-size="13" font-weight="700">28,205</text><rect x="296" y="154" width="40" height="186" rx="5" fill="#7c3aed"/><text x="316.0" y="368" text-anchor="middle" fill="#475569" font-size="14">2015</text><text x="316.0" y="146" text-anchor="middle" fill="#172033" font-size="13" font-weight="700">25,285</text><rect x="350" y="192" width="40" height="148" rx="5" fill="#7c3aed"/><text x="370.0" y="368" text-anchor="middle" fill="#475569" font-size="14">2016</text><text x="370.0" y="184" text-anchor="middle" fill="#172033" font-size="13" font-weight="700">20,081</text><rect x="404" y="115" width="40" height="225" rx="5" fill="#7c3aed"/><text x="424.0" y="368" text-anchor="middle" fill="#475569" font-size="14">2017</text><text x="424.0" y="107" text-anchor="middle" fill="#172033" font-size="13" font-weight="700">30,555</text><rect x="458" y="174" width="40" height="166" rx="5" fill="#7c3aed"/><text x="478.0" y="368" text-anchor="middle" fill="#475569" font-size="14">2018</text><text x="478.0" y="166" text-anchor="middle" fill="#172033" font-size="13" font-weight="700">22,580</text><rect x="512" y="152" width="40" height="188" rx="5" fill="#7c3aed"/><text x="532.0" y="368" text-anchor="middle" fill="#475569" font-size="14">2019</text><text x="532.0" y="144" text-anchor="middle" fill="#172033" font-size="13" font-weight="700">25,570</text><rect x="566" y="70" width="40" height="270" rx="5" fill="#7c3aed"/><text x="586.0" y="368" text-anchor="middle" fill="#475569" font-size="14">2020</text><text x="586.0" y="62" text-anchor="middle" fill="#172033" font-size="13" font-weight="700">36,586</text><rect x="620" y="200" width="40" height="140" rx="5" fill="#7c3aed"/><text x="640.0" y="368" text-anchor="middle" fill="#475569" font-size="14">2021</text><text x="640.0" y="192" text-anchor="middle" fill="#172033" font-size="13" font-weight="700">18,971</text><rect x="674" y="256" width="40" height="84" rx="5" fill="#7c3aed"/><text x="694.0" y="368" text-anchor="middle" fill="#475569" font-size="14">2022</text><text x="694.0" y="248" text-anchor="middle" fill="#172033" font-size="13" font-weight="700">11,479</text><rect x="728" y="267" width="40" height="73" rx="5" fill="#7c3aed"/><text x="748.0" y="368" text-anchor="middle" fill="#475569" font-size="14">2023</text><text x="748.0" y="259" text-anchor="middle" fill="#172033" font-size="13" font-weight="700">9,978</text><rect x="782" y="300" width="40" height="40" rx="5" fill="#7c3aed"/><text x="802.0" y="368" text-anchor="middle" fill="#475569" font-size="14">2024</text><text x="802.0" y="292" text-anchor="middle" fill="#172033" font-size="13" font-weight="700">5,525</text><rect x="836" y="323" width="40" height="17" rx="5" fill="#7c3aed"/><text x="856.0" y="368" text-anchor="middle" fill="#475569" font-size="14">2025</text><text x="856.0" y="315" text-anchor="middle" fill="#172033" font-size="13" font-weight="700">2,429</text><rect x="890" y="338" width="40" height="2" rx="5" fill="#7c3aed"/><text x="910.0" y="368" text-anchor="middle" fill="#475569" font-size="14">2026</text><text x="910.0" y="330" text-anchor="middle" fill="#172033" font-size="13" font-weight="700">297</text>
</svg>