<svg xmlns="http://www.w3.org/2000/svg" width="1000" height="420" viewBox="0 0 1000 420" role="img" aria-label="Yearly citation mass 2003-2023">
<rect width="100%" height="100%" fill="#ffffff"/>
<text x="32" y="38" fill="#0f172a" font-size="24" font-weight="800">Yearly Citation Mass, 2003-2023</text>
<text x="32" y="60" fill="#64748b" font-size="14">Citation counts among visible selected papers</text>
<line x1="80" y1="340" x2="930" y2="340" stroke="#cbd5e1" stroke-width="2"/>
<rect x="80" y="84" width="27" height="256" rx="5" fill="#7c3aed"/><text x="93.5" y="368" text-anchor="middle" fill="#475569" font-size="14">2003</text><text x="93.5" y="76" text-anchor="middle" fill="#172033" font-size="13" font-weight="700">40,138</text><rect x="121" y="70" width="27" height="270" rx="5" fill="#7c3aed"/><text x="134.5" y="368" text-anchor="middle" fill="#475569" font-size="14">2004</text><text x="134.5" y="62" text-anchor="middle" fill="#172033" font-size="13" font-weight="700">42,252</text><rect x="162" y="74" width="27" height="266" rx="5" fill="#7c3aed"/><text x="175.5" y="368" text-anchor="middle" fill="#475569" font-size="14">2005</text><text x="175.5" y="66" text-anchor="middle" fill="#172033" font-size="13" font-weight="700">41,685</text><rect x="203" y="88" width="27" height="252" rx="5" fill="#7c3aed"/><text x="216.5" y="368" text-anchor="middle" fill="#475569" font-size="14">2006</text><text x="216.5" y="80" text-anchor="middle" fill="#172033" font-size="13" font-weight="700">39,573</text><rect x="244" y="107" width="27" height="233" rx="5" fill="#7c3aed"/><text x="257.5" y="368" text-anchor="middle" fill="#475569" font-size="14">2007</text><text x="257.5" y="99" text-anchor="middle" fill="#172033" font-size="13" font-weight="700">36,545</text><rect x="285" y="96" width="27" height="244" rx="5" fill="#7c3aed"/><text x="298.5" y="368" text-anchor="middle" fill="#475569" font-size="14">2008</text><text x="298.5" y="88" text-anchor="middle" fill="#172033" font-size="13" font-weight="700">38,309</text><rect x="326" y="83" width="27" height="257" rx="5" fill="#7c3aed"/><text x="339.5" y="368" text-anchor="middle" fill="#475569" font-size="14">2009</text><text x="339.5" y="75" text-anchor="middle" fill="#172033" font-size="13" font-weight="700">40,313</text><rect x="367" y="132" width="27" height="208" rx="5" fill="#7c3aed"/><text x="380.5" y="368" text-anchor="middle" fill="#475569" font-size="14">2010</text><text x="380.5" y="124" text-anchor="middle" fill="#172033" font-size="13" font-weight="700">32,551</text><rect x="408" y="141" width="27" height="199" rx="5" fill="#7c3aed"/><text x="421.5" y="368" text-anchor="middle" fill="#475569" font-size="14">2011</text><text x="421.5" y="133" text-anchor="middle" fill="#172033" font-size="13" font-weight="700">31,243</text><rect x="449" y="153" width="27" height="187" rx="5" fill="#7c3aed"/><text x="462.5" y="368" text-anchor="middle" fill="#475569" font-size="14">2012</text><text x="462.5" y="145" text-anchor="middle" fill="#172033" font-size="13" font-weight="700">29,411</text><rect x="490" y="129" width="27" height="211" rx="5" fill="#7c3aed"/><text x="503.5" y="368" text-anchor="middle" fill="#475569" font-size="14">2013</text><text x="503.5" y="121" text-anchor="middle" fill="#172033" font-size="13" font-weight="700">33,132</text><rect x="531" y="160" width="27" height="180" rx="5" fill="#7c3aed"/><text x="544.5" y="368" text-anchor="middle" fill="#475569" font-size="14">2014</text><text x="544.5" y="152" text-anchor="middle" fill="#172033" font-size="13" font-weight="700">28,205</text><rect x="572" y="179" width="27" height="161" rx="5" fill="#7c3aed"/><text x="585.5" y="368" text-anchor="middle" fill="#475569" font-size="14">2015</text><text x="585.5" y="171" text-anchor="middle" fill="#172033" font-size="13" font-weight="700">25,285</text><rect x="613" y="212" width="27" height="128" rx="5" fill="#7c3aed"/><text x="626.5" y="368" text-anchor="middle" fill="#475569" font-size="14">2016</text><text x="626.5" y="204" text-anchor="middle" fill="#172033" font-size="13" font-weight="700">20,081</text><rect x="654" y="145" width="27" height="195" rx="5" fill="#7c3aed"/><text x="667.5" y="368" text-anchor="middle" fill="#475569" font-size="14">2017</text><text x="667.5" y="137" text-anchor="middle" fill="#172033" font-size="13" font-weight="700">30,555</text><rect x="695" y="196" width="27" height="144" rx="5" fill="#7c3aed"/><text x="708.5" y="368" text-anchor="middle" fill="#475569" font-size="14">2018</text><text x="708.5" y="188" text-anchor="middle" fill="#172033" font-size="13" font-weight="700">22,580</text><rect x="736" y="177" width="27" height="163" rx="5" fill="#7c3aed"/><text x="749.5" y="368" text-anchor="middle" fill="#475569" font-size="14">2019</text><text x="749.5" y="169" text-anchor="middle" fill="#172033" font-size="13" font-weight="700">25,570</text><rect x="777" y="107" width="27" height="233" rx="5" fill="#7c3aed"/><text x="790.5" y="368" text-anchor="middle" fill="#475569" font-size="14">2020</text><text x="790.5" y="99" text-anchor="middle" fill="#172033" font-size="13" font-weight="700">36,586</text><rect x="818" y="219" width="27" height="121" rx="5" fill="#7c3aed"/><text x="831.5" y="368" text-anchor="middle" fill="#475569" font-size="14">2021</text><text x="831.5" y="211" text-anchor="middle" fill="#172033" font-size="13" font-weight="700">18,971</text><rect x="859" y="267" width="27" height="73" rx="5" fill="#7c3aed"/><text x="872.5" y="368" text-anchor="middle" fill="#475569" font-size="14">2022</text><text x="872.5" y="259" text-anchor="middle" fill="#172033" font-size="13" font-weight="700">11,479</text><rect x="900" y="277" width="27" height="63" rx="5" fill="#7c3aed"/><text x="913.5" y="368" text-anchor="middle" fill="#475569" font-size="14">2023</text><text x="913.5" y="269" text-anchor="middle" fill="#172033" font-size="13" font-weight="700">9,978</text>
</svg>