<svg xmlns="http://www.w3.org/2000/svg" width="1000" height="420" viewBox="0 0 1000 420" role="img" aria-label="Yearly citation mass 2016-2026">
<rect width="100%" height="100%" fill="#ffffff"/>
<text x="32" y="38" fill="#0f172a" font-size="24" font-weight="800">Yearly Citation Mass, 2016-2026</text>
<text x="32" y="60" fill="#64748b" font-size="14">Citation counts among visible selected papers</text>
<line x1="80" y1="340" x2="930" y2="340" stroke="#cbd5e1" stroke-width="2"/>
<rect x="80" y="192" width="64" height="148" rx="5" fill="#7c3aed"/><text x="112.0" y="368" text-anchor="middle" fill="#475569" font-size="14">2016</text><text x="112.0" y="184" text-anchor="middle" fill="#172033" font-size="13" font-weight="700">20,081</text><rect x="158" y="115" width="64" height="225" rx="5" fill="#7c3aed"/><text x="190.0" y="368" text-anchor="middle" fill="#475569" font-size="14">2017</text><text x="190.0" y="107" text-anchor="middle" fill="#172033" font-size="13" font-weight="700">30,555</text><rect x="236" y="174" width="64" height="166" rx="5" fill="#7c3aed"/><text x="268.0" y="368" text-anchor="middle" fill="#475569" font-size="14">2018</text><text x="268.0" y="166" text-anchor="middle" fill="#172033" font-size="13" font-weight="700">22,580</text><rect x="314" y="152" width="64" height="188" rx="5" fill="#7c3aed"/><text x="346.0" y="368" text-anchor="middle" fill="#475569" font-size="14">2019</text><text x="346.0" y="144" text-anchor="middle" fill="#172033" font-size="13" font-weight="700">25,570</text><rect x="392" y="70" width="64" height="270" rx="5" fill="#7c3aed"/><text x="424.0" y="368" text-anchor="middle" fill="#475569" font-size="14">2020</text><text x="424.0" y="62" text-anchor="middle" fill="#172033" font-size="13" font-weight="700">36,586</text><rect x="470" y="200" width="64" height="140" rx="5" fill="#7c3aed"/><text x="502.0" y="368" text-anchor="middle" fill="#475569" font-size="14">2021</text><text x="502.0" y="192" text-anchor="middle" fill="#172033" font-size="13" font-weight="700">18,971</text><rect x="548" y="256" width="64" height="84" rx="5" fill="#7c3aed"/><text x="580.0" y="368" text-anchor="middle" fill="#475569" font-size="14">2022</text><text x="580.0" y="248" text-anchor="middle" fill="#172033" font-size="13" font-weight="700">11,479</text><rect x="626" y="267" width="64" height="73" rx="5" fill="#7c3aed"/><text x="658.0" y="368" text-anchor="middle" fill="#475569" font-size="14">2023</text><text x="658.0" y="259" text-anchor="middle" fill="#172033" font-size="13" font-weight="700">9,978</text><rect x="704" y="300" width="64" height="40" rx="5" fill="#7c3aed"/><text x="736.0" y="368" text-anchor="middle" fill="#475569" font-size="14">2024</text><text x="736.0" y="292" text-anchor="middle" fill="#172033" font-size="13" font-weight="700">5,525</text><rect x="782" y="323" width="64" height="17" rx="5" fill="#7c3aed"/><text x="814.0" y="368" text-anchor="middle" fill="#475569" font-size="14">2025</text><text x="814.0" y="315" text-anchor="middle" fill="#172033" font-size="13" font-weight="700">2,429</text><rect x="860" y="338" width="64" height="2" rx="5" fill="#7c3aed"/><text x="892.0" y="368" text-anchor="middle" fill="#475569" font-size="14">2026</text><text x="892.0" y="330" text-anchor="middle" fill="#172033" font-size="13" font-weight="700">297</text>
</svg>