<svg xmlns="http://www.w3.org/2000/svg" width="1000" height="420" viewBox="0 0 1000 420" role="img" aria-label="Yearly citation mass 2018-2025">
<rect width="100%" height="100%" fill="#ffffff"/>
<text x="32" y="38" fill="#0f172a" font-size="24" font-weight="800">Yearly Citation Mass, 2018-2025</text>
<text x="32" y="60" fill="#64748b" font-size="14">Citation counts among visible selected papers</text>
<line x1="80" y1="340" x2="930" y2="340" stroke="#cbd5e1" stroke-width="2"/>
<rect x="80" y="93" width="94" height="247" rx="5" fill="#7c3aed"/><text x="127.0" y="368" text-anchor="middle" fill="#475569" font-size="14">2018</text><text x="127.0" y="85" text-anchor="middle" fill="#172033" font-size="13" font-weight="700">40,175</text><rect x="188" y="71" width="94" height="269" rx="5" fill="#7c3aed"/><text x="235.0" y="368" text-anchor="middle" fill="#475569" font-size="14">2019</text><text x="235.0" y="63" text-anchor="middle" fill="#172033" font-size="13" font-weight="700">43,754</text><rect x="296" y="70" width="94" height="270" rx="5" fill="#7c3aed"/><text x="343.0" y="368" text-anchor="middle" fill="#475569" font-size="14">2020</text><text x="343.0" y="62" text-anchor="middle" fill="#172033" font-size="13" font-weight="700">43,869</text><rect x="404" y="163" width="94" height="177" rx="5" fill="#7c3aed"/><text x="451.0" y="368" text-anchor="middle" fill="#475569" font-size="14">2021</text><text x="451.0" y="155" text-anchor="middle" fill="#172033" font-size="13" font-weight="700">28,778</text><rect x="512" y="219" width="94" height="121" rx="5" fill="#7c3aed"/><text x="559.0" y="368" text-anchor="middle" fill="#475569" font-size="14">2022</text><text x="559.0" y="211" text-anchor="middle" fill="#172033" font-size="13" font-weight="700">19,723</text><rect x="620" y="184" width="94" height="156" rx="5" fill="#7c3aed"/><text x="667.0" y="368" text-anchor="middle" fill="#475569" font-size="14">2023</text><text x="667.0" y="176" text-anchor="middle" fill="#172033" font-size="13" font-weight="700">25,444</text><rect x="728" y="276" width="94" height="64" rx="5" fill="#7c3aed"/><text x="775.0" y="368" text-anchor="middle" fill="#475569" font-size="14">2024</text><text x="775.0" y="268" text-anchor="middle" fill="#172033" font-size="13" font-weight="700">10,492</text><rect x="836" y="306" width="94" height="34" rx="5" fill="#7c3aed"/><text x="883.0" y="368" text-anchor="middle" fill="#475569" font-size="14">2025</text><text x="883.0" y="298" text-anchor="middle" fill="#172033" font-size="13" font-weight="700">5,571</text>
</svg>