<svg xmlns="http://www.w3.org/2000/svg" width="1000" height="420" viewBox="0 0 1000 420" role="img" aria-label="Yearly citation mass 2006-2014">
<rect width="100%" height="100%" fill="#ffffff"/>
<text x="32" y="38" fill="#0f172a" font-size="24" font-weight="800">Yearly Citation Mass, 2006-2014</text>
<text x="32" y="60" fill="#64748b" font-size="14">Citation counts among visible selected papers</text>
<line x1="80" y1="340" x2="930" y2="340" stroke="#cbd5e1" stroke-width="2"/>
<rect x="80" y="84" width="82" height="256" rx="5" fill="#7c3aed"/><text x="121.0" y="368" text-anchor="middle" fill="#475569" font-size="14">2006</text><text x="121.0" y="76" text-anchor="middle" fill="#172033" font-size="13" font-weight="700">41,836</text><rect x="176" y="101" width="82" height="239" rx="5" fill="#7c3aed"/><text x="217.0" y="368" text-anchor="middle" fill="#475569" font-size="14">2007</text><text x="217.0" y="93" text-anchor="middle" fill="#172033" font-size="13" font-weight="700">38,982</text><rect x="272" y="85" width="82" height="255" rx="5" fill="#7c3aed"/><text x="313.0" y="368" text-anchor="middle" fill="#475569" font-size="14">2008</text><text x="313.0" y="77" text-anchor="middle" fill="#172033" font-size="13" font-weight="700">41,513</text><rect x="368" y="70" width="82" height="270" rx="5" fill="#7c3aed"/><text x="409.0" y="368" text-anchor="middle" fill="#475569" font-size="14">2009</text><text x="409.0" y="62" text-anchor="middle" fill="#172033" font-size="13" font-weight="700">43,953</text><rect x="464" y="109" width="82" height="231" rx="5" fill="#7c3aed"/><text x="505.0" y="368" text-anchor="middle" fill="#475569" font-size="14">2010</text><text x="505.0" y="101" text-anchor="middle" fill="#172033" font-size="13" font-weight="700">37,701</text><rect x="560" y="131" width="82" height="209" rx="5" fill="#7c3aed"/><text x="601.0" y="368" text-anchor="middle" fill="#475569" font-size="14">2011</text><text x="601.0" y="123" text-anchor="middle" fill="#172033" font-size="13" font-weight="700">34,084</text><rect x="656" y="113" width="82" height="227" rx="5" fill="#7c3aed"/><text x="697.0" y="368" text-anchor="middle" fill="#475569" font-size="14">2012</text><text x="697.0" y="105" text-anchor="middle" fill="#172033" font-size="13" font-weight="700">37,002</text><rect x="752" y="122" width="82" height="218" rx="5" fill="#7c3aed"/><text x="793.0" y="368" text-anchor="middle" fill="#475569" font-size="14">2013</text><text x="793.0" y="114" text-anchor="middle" fill="#172033" font-size="13" font-weight="700">35,595</text><rect x="848" y="150" width="82" height="190" rx="5" fill="#7c3aed"/><text x="889.0" y="368" text-anchor="middle" fill="#475569" font-size="14">2014</text><text x="889.0" y="142" text-anchor="middle" fill="#172033" font-size="13" font-weight="700">30,999</text>
</svg>