<svg xmlns="http://www.w3.org/2000/svg" width="1000" height="420" viewBox="0 0 1000 420" role="img" aria-label="Yearly citation mass 2016-2024">
<rect width="100%" height="100%" fill="#ffffff"/>
<text x="32" y="38" fill="#0f172a" font-size="24" font-weight="800">Yearly Citation Mass, 2016-2024</text>
<text x="32" y="60" fill="#64748b" font-size="14">Citation counts among visible selected papers</text>
<line x1="80" y1="340" x2="930" y2="340" stroke="#cbd5e1" stroke-width="2"/>
<rect x="80" y="180" width="82" height="160" rx="5" fill="#7c3aed"/><text x="121.0" y="368" text-anchor="middle" fill="#475569" font-size="14">2016</text><text x="121.0" y="172" text-anchor="middle" fill="#172033" font-size="13" font-weight="700">26,012</text><rect x="176" y="87" width="82" height="253" rx="5" fill="#7c3aed"/><text x="217.0" y="368" text-anchor="middle" fill="#475569" font-size="14">2017</text><text x="217.0" y="79" text-anchor="middle" fill="#172033" font-size="13" font-weight="700">41,195</text><rect x="272" y="93" width="82" height="247" rx="5" fill="#7c3aed"/><text x="313.0" y="368" text-anchor="middle" fill="#475569" font-size="14">2018</text><text x="313.0" y="85" text-anchor="middle" fill="#172033" font-size="13" font-weight="700">40,175</text><rect x="368" y="71" width="82" height="269" rx="5" fill="#7c3aed"/><text x="409.0" y="368" text-anchor="middle" fill="#475569" font-size="14">2019</text><text x="409.0" y="63" text-anchor="middle" fill="#172033" font-size="13" font-weight="700">43,754</text><rect x="464" y="70" width="82" height="270" rx="5" fill="#7c3aed"/><text x="505.0" y="368" text-anchor="middle" fill="#475569" font-size="14">2020</text><text x="505.0" y="62" text-anchor="middle" fill="#172033" font-size="13" font-weight="700">43,869</text><rect x="560" y="163" width="82" height="177" rx="5" fill="#7c3aed"/><text x="601.0" y="368" text-anchor="middle" fill="#475569" font-size="14">2021</text><text x="601.0" y="155" text-anchor="middle" fill="#172033" font-size="13" font-weight="700">28,778</text><rect x="656" y="219" width="82" height="121" rx="5" fill="#7c3aed"/><text x="697.0" y="368" text-anchor="middle" fill="#475569" font-size="14">2022</text><text x="697.0" y="211" text-anchor="middle" fill="#172033" font-size="13" font-weight="700">19,723</text><rect x="752" y="184" width="82" height="156" rx="5" fill="#7c3aed"/><text x="793.0" y="368" text-anchor="middle" fill="#475569" font-size="14">2023</text><text x="793.0" y="176" text-anchor="middle" fill="#172033" font-size="13" font-weight="700">25,444</text><rect x="848" y="276" width="82" height="64" rx="5" fill="#7c3aed"/><text x="889.0" y="368" text-anchor="middle" fill="#475569" font-size="14">2024</text><text x="889.0" y="268" text-anchor="middle" fill="#172033" font-size="13" font-weight="700">10,492</text>
</svg>