<svg xmlns="http://www.w3.org/2000/svg" width="1000" height="420" viewBox="0 0 1000 420" role="img" aria-label="Yearly citation mass 2001-2016">
<rect width="100%" height="100%" fill="#ffffff"/>
<text x="32" y="38" fill="#0f172a" font-size="24" font-weight="800">Yearly Citation Mass, 2001-2016</text>
<text x="32" y="60" fill="#64748b" font-size="14">Citation counts among visible selected papers</text>
<line x1="80" y1="340" x2="930" y2="340" stroke="#cbd5e1" stroke-width="2"/>
<rect x="80" y="70" width="40" height="270" rx="5" fill="#7c3aed"/><text x="100.0" y="368" text-anchor="middle" fill="#475569" font-size="14">2001</text><text x="100.0" y="62" text-anchor="middle" fill="#172033" font-size="13" font-weight="700">53,778</text><rect x="134" y="128" width="40" height="212" rx="5" fill="#7c3aed"/><text x="154.0" y="368" text-anchor="middle" fill="#475569" font-size="14">2002</text><text x="154.0" y="120" text-anchor="middle" fill="#172033" font-size="13" font-weight="700">42,298</text><rect x="188" y="139" width="40" height="201" rx="5" fill="#7c3aed"/><text x="208.0" y="368" text-anchor="middle" fill="#475569" font-size="14">2003</text><text x="208.0" y="131" text-anchor="middle" fill="#172033" font-size="13" font-weight="700">40,138</text><rect x="242" y="128" width="40" height="212" rx="5" fill="#7c3aed"/><text x="262.0" y="368" text-anchor="middle" fill="#475569" font-size="14">2004</text><text x="262.0" y="120" text-anchor="middle" fill="#172033" font-size="13" font-weight="700">42,252</text><rect x="296" y="131" width="40" height="209" rx="5" fill="#7c3aed"/><text x="316.0" y="368" text-anchor="middle" fill="#475569" font-size="14">2005</text><text x="316.0" y="123" text-anchor="middle" fill="#172033" font-size="13" font-weight="700">41,685</text><rect x="350" y="142" width="40" height="198" rx="5" fill="#7c3aed"/><text x="370.0" y="368" text-anchor="middle" fill="#475569" font-size="14">2006</text><text x="370.0" y="134" text-anchor="middle" fill="#172033" font-size="13" font-weight="700">39,573</text><rect x="404" y="157" width="40" height="183" rx="5" fill="#7c3aed"/><text x="424.0" y="368" text-anchor="middle" fill="#475569" font-size="14">2007</text><text x="424.0" y="149" text-anchor="middle" fill="#172033" font-size="13" font-weight="700">36,545</text><rect x="458" y="148" width="40" height="192" rx="5" fill="#7c3aed"/><text x="478.0" y="368" text-anchor="middle" fill="#475569" font-size="14">2008</text><text x="478.0" y="140" text-anchor="middle" fill="#172033" font-size="13" font-weight="700">38,309</text><rect x="512" y="138" width="40" height="202" rx="5" fill="#7c3aed"/><text x="532.0" y="368" text-anchor="middle" fill="#475569" font-size="14">2009</text><text x="532.0" y="130" text-anchor="middle" fill="#172033" font-size="13" font-weight="700">40,313</text><rect x="566" y="177" width="40" height="163" rx="5" fill="#7c3aed"/><text x="586.0" y="368" text-anchor="middle" fill="#475569" font-size="14">2010</text><text x="586.0" y="169" text-anchor="middle" fill="#172033" font-size="13" font-weight="700">32,551</text><rect x="620" y="184" width="40" height="156" rx="5" fill="#7c3aed"/><text x="640.0" y="368" text-anchor="middle" fill="#475569" font-size="14">2011</text><text x="640.0" y="176" text-anchor="middle" fill="#172033" font-size="13" font-weight="700">31,243</text><rect x="674" y="193" width="40" height="147" rx="5" fill="#7c3aed"/><text x="694.0" y="368" text-anchor="middle" fill="#475569" font-size="14">2012</text><text x="694.0" y="185" text-anchor="middle" fill="#172033" font-size="13" font-weight="700">29,411</text><rect x="728" y="174" width="40" height="166" rx="5" fill="#7c3aed"/><text x="748.0" y="368" text-anchor="middle" fill="#475569" font-size="14">2013</text><text x="748.0" y="166" text-anchor="middle" fill="#172033" font-size="13" font-weight="700">33,132</text><rect x="782" y="199" width="40" height="141" rx="5" fill="#7c3aed"/><text x="802.0" y="368" text-anchor="middle" fill="#475569" font-size="14">2014</text><text x="802.0" y="191" text-anchor="middle" fill="#172033" font-size="13" font-weight="700">28,205</text><rect x="836" y="214" width="40" height="126" rx="5" fill="#7c3aed"/><text x="856.0" y="368" text-anchor="middle" fill="#475569" font-size="14">2015</text><text x="856.0" y="206" text-anchor="middle" fill="#172033" font-size="13" font-weight="700">25,285</text><rect x="890" y="240" width="40" height="100" rx="5" fill="#7c3aed"/><text x="910.0" y="368" text-anchor="middle" fill="#475569" font-size="14">2016</text><text x="910.0" y="232" text-anchor="middle" fill="#172033" font-size="13" font-weight="700">20,081</text>
</svg>