<svg xmlns="http://www.w3.org/2000/svg" width="1000" height="420" viewBox="0 0 1000 420" role="img" aria-label="Yearly citation mass 2009-2015">
<rect width="100%" height="100%" fill="#ffffff"/>
<text x="32" y="38" fill="#0f172a" font-size="24" font-weight="800">Yearly Citation Mass, 2009-2015</text>
<text x="32" y="60" fill="#64748b" font-size="14">Citation counts among visible selected papers</text>
<line x1="80" y1="340" x2="930" y2="340" stroke="#cbd5e1" stroke-width="2"/>
<rect x="80" y="70" width="109" height="270" rx="5" fill="#7c3aed"/><text x="134.5" y="368" text-anchor="middle" fill="#475569" font-size="14">2009</text><text x="134.5" y="62" text-anchor="middle" fill="#172033" font-size="13" font-weight="700">40,313</text><rect x="203" y="122" width="109" height="218" rx="5" fill="#7c3aed"/><text x="257.5" y="368" text-anchor="middle" fill="#475569" font-size="14">2010</text><text x="257.5" y="114" text-anchor="middle" fill="#172033" font-size="13" font-weight="700">32,551</text><rect x="326" y="131" width="109" height="209" rx="5" fill="#7c3aed"/><text x="380.5" y="368" text-anchor="middle" fill="#475569" font-size="14">2011</text><text x="380.5" y="123" text-anchor="middle" fill="#172033" font-size="13" font-weight="700">31,243</text><rect x="449" y="144" width="109" height="196" rx="5" fill="#7c3aed"/><text x="503.5" y="368" text-anchor="middle" fill="#475569" font-size="14">2012</text><text x="503.5" y="136" text-anchor="middle" fill="#172033" font-size="13" font-weight="700">29,411</text><rect x="572" y="119" width="109" height="221" rx="5" fill="#7c3aed"/><text x="626.5" y="368" text-anchor="middle" fill="#475569" font-size="14">2013</text><text x="626.5" y="111" text-anchor="middle" fill="#172033" font-size="13" font-weight="700">33,132</text><rect x="695" y="152" width="109" height="188" rx="5" fill="#7c3aed"/><text x="749.5" y="368" text-anchor="middle" fill="#475569" font-size="14">2014</text><text x="749.5" y="144" text-anchor="middle" fill="#172033" font-size="13" font-weight="700">28,205</text><rect x="818" y="171" width="109" height="169" rx="5" fill="#7c3aed"/><text x="872.5" y="368" text-anchor="middle" fill="#475569" font-size="14">2015</text><text x="872.5" y="163" text-anchor="middle" fill="#172033" font-size="13" font-weight="700">25,285</text>
</svg>