<svg xmlns="http://www.w3.org/2000/svg" width="1000" height="420" viewBox="0 0 1000 420" role="img" aria-label="Yearly citation mass 2001-2008">
<rect width="100%" height="100%" fill="#ffffff"/>
<text x="32" y="38" fill="#0f172a" font-size="24" font-weight="800">Yearly Citation Mass, 2001-2008</text>
<text x="32" y="60" fill="#64748b" font-size="14">Citation counts among visible selected papers</text>
<line x1="80" y1="340" x2="930" y2="340" stroke="#cbd5e1" stroke-width="2"/>
<rect x="80" y="70" width="94" height="270" rx="5" fill="#7c3aed"/><text x="127.0" y="368" text-anchor="middle" fill="#475569" font-size="14">2001</text><text x="127.0" y="62" text-anchor="middle" fill="#172033" font-size="13" font-weight="700">53,778</text><rect x="188" y="128" width="94" height="212" rx="5" fill="#7c3aed"/><text x="235.0" y="368" text-anchor="middle" fill="#475569" font-size="14">2002</text><text x="235.0" y="120" text-anchor="middle" fill="#172033" font-size="13" font-weight="700">42,298</text><rect x="296" y="139" width="94" height="201" rx="5" fill="#7c3aed"/><text x="343.0" y="368" text-anchor="middle" fill="#475569" font-size="14">2003</text><text x="343.0" y="131" text-anchor="middle" fill="#172033" font-size="13" font-weight="700">40,138</text><rect x="404" y="128" width="94" height="212" rx="5" fill="#7c3aed"/><text x="451.0" y="368" text-anchor="middle" fill="#475569" font-size="14">2004</text><text x="451.0" y="120" text-anchor="middle" fill="#172033" font-size="13" font-weight="700">42,252</text><rect x="512" y="131" width="94" height="209" rx="5" fill="#7c3aed"/><text x="559.0" y="368" text-anchor="middle" fill="#475569" font-size="14">2005</text><text x="559.0" y="123" text-anchor="middle" fill="#172033" font-size="13" font-weight="700">41,685</text><rect x="620" y="142" width="94" height="198" rx="5" fill="#7c3aed"/><text x="667.0" y="368" text-anchor="middle" fill="#475569" font-size="14">2006</text><text x="667.0" y="134" text-anchor="middle" fill="#172033" font-size="13" font-weight="700">39,573</text><rect x="728" y="157" width="94" height="183" rx="5" fill="#7c3aed"/><text x="775.0" y="368" text-anchor="middle" fill="#475569" font-size="14">2007</text><text x="775.0" y="149" text-anchor="middle" fill="#172033" font-size="13" font-weight="700">36,545</text><rect x="836" y="148" width="94" height="192" rx="5" fill="#7c3aed"/><text x="883.0" y="368" text-anchor="middle" fill="#475569" font-size="14">2008</text><text x="883.0" y="140" text-anchor="middle" fill="#172033" font-size="13" font-weight="700">38,309</text>
</svg>