<svg xmlns="http://www.w3.org/2000/svg" width="1000" height="420" viewBox="0 0 1000 420" role="img" aria-label="Yearly citation mass 2017-2023">
<rect width="100%" height="100%" fill="#ffffff"/>
<text x="32" y="38" fill="#0f172a" font-size="24" font-weight="800">Yearly Citation Mass, 2017-2023</text>
<text x="32" y="60" fill="#64748b" font-size="14">Citation counts among visible selected papers</text>
<line x1="80" y1="340" x2="930" y2="340" stroke="#cbd5e1" stroke-width="2"/>
<rect x="80" y="115" width="109" height="225" rx="5" fill="#7c3aed"/><text x="134.5" y="368" text-anchor="middle" fill="#475569" font-size="14">2017</text><text x="134.5" y="107" text-anchor="middle" fill="#172033" font-size="13" font-weight="700">30,555</text><rect x="203" y="174" width="109" height="166" rx="5" fill="#7c3aed"/><text x="257.5" y="368" text-anchor="middle" fill="#475569" font-size="14">2018</text><text x="257.5" y="166" text-anchor="middle" fill="#172033" font-size="13" font-weight="700">22,580</text><rect x="326" y="152" width="109" height="188" rx="5" fill="#7c3aed"/><text x="380.5" y="368" text-anchor="middle" fill="#475569" font-size="14">2019</text><text x="380.5" y="144" text-anchor="middle" fill="#172033" font-size="13" font-weight="700">25,570</text><rect x="449" y="70" width="109" height="270" rx="5" fill="#7c3aed"/><text x="503.5" y="368" text-anchor="middle" fill="#475569" font-size="14">2020</text><text x="503.5" y="62" text-anchor="middle" fill="#172033" font-size="13" font-weight="700">36,586</text><rect x="572" y="200" width="109" height="140" rx="5" fill="#7c3aed"/><text x="626.5" y="368" text-anchor="middle" fill="#475569" font-size="14">2021</text><text x="626.5" y="192" text-anchor="middle" fill="#172033" font-size="13" font-weight="700">18,971</text><rect x="695" y="256" width="109" height="84" rx="5" fill="#7c3aed"/><text x="749.5" y="368" text-anchor="middle" fill="#475569" font-size="14">2022</text><text x="749.5" y="248" text-anchor="middle" fill="#172033" font-size="13" font-weight="700">11,479</text><rect x="818" y="267" width="109" height="73" rx="5" fill="#7c3aed"/><text x="872.5" y="368" text-anchor="middle" fill="#475569" font-size="14">2023</text><text x="872.5" y="259" text-anchor="middle" fill="#172033" font-size="13" font-weight="700">9,978</text>
</svg>