<svg xmlns="http://www.w3.org/2000/svg" width="1000" height="420" viewBox="0 0 1000 420" role="img" aria-label="Yearly citation mass 2005-2022">
<rect width="100%" height="100%" fill="#ffffff"/>
<text x="32" y="38" fill="#0f172a" font-size="24" font-weight="800">Yearly Citation Mass, 2005-2022</text>
<text x="32" y="60" fill="#64748b" font-size="14">Citation counts among visible selected papers</text>
<line x1="80" y1="340" x2="930" y2="340" stroke="#cbd5e1" stroke-width="2"/>
<rect x="80" y="70" width="34" height="270" rx="5" fill="#7c3aed"/><text x="97.0" y="368" text-anchor="middle" fill="#475569" font-size="14">2005</text><text x="97.0" y="62" text-anchor="middle" fill="#172033" font-size="13" font-weight="700">41,685</text><rect x="128" y="84" width="34" height="256" rx="5" fill="#7c3aed"/><text x="145.0" y="368" text-anchor="middle" fill="#475569" font-size="14">2006</text><text x="145.0" y="76" text-anchor="middle" fill="#172033" font-size="13" font-weight="700">39,573</text><rect x="176" y="104" width="34" height="236" rx="5" fill="#7c3aed"/><text x="193.0" y="368" text-anchor="middle" fill="#475569" font-size="14">2007</text><text x="193.0" y="96" text-anchor="middle" fill="#172033" font-size="13" font-weight="700">36,545</text><rect x="224" y="92" width="34" height="248" rx="5" fill="#7c3aed"/><text x="241.0" y="368" text-anchor="middle" fill="#475569" font-size="14">2008</text><text x="241.0" y="84" text-anchor="middle" fill="#172033" font-size="13" font-weight="700">38,309</text><rect x="272" y="79" width="34" height="261" rx="5" fill="#7c3aed"/><text x="289.0" y="368" text-anchor="middle" fill="#475569" font-size="14">2009</text><text x="289.0" y="71" text-anchor="middle" fill="#172033" font-size="13" font-weight="700">40,313</text><rect x="320" y="130" width="34" height="210" rx="5" fill="#7c3aed"/><text x="337.0" y="368" text-anchor="middle" fill="#475569" font-size="14">2010</text><text x="337.0" y="122" text-anchor="middle" fill="#172033" font-size="13" font-weight="700">32,551</text><rect x="368" y="138" width="34" height="202" rx="5" fill="#7c3aed"/><text x="385.0" y="368" text-anchor="middle" fill="#475569" font-size="14">2011</text><text x="385.0" y="130" text-anchor="middle" fill="#172033" font-size="13" font-weight="700">31,243</text><rect x="416" y="150" width="34" height="190" rx="5" fill="#7c3aed"/><text x="433.0" y="368" text-anchor="middle" fill="#475569" font-size="14">2012</text><text x="433.0" y="142" text-anchor="middle" fill="#172033" font-size="13" font-weight="700">29,411</text><rect x="464" y="126" width="34" height="214" rx="5" fill="#7c3aed"/><text x="481.0" y="368" text-anchor="middle" fill="#475569" font-size="14">2013</text><text x="481.0" y="118" text-anchor="middle" fill="#172033" font-size="13" font-weight="700">33,132</text><rect x="512" y="158" width="34" height="182" rx="5" fill="#7c3aed"/><text x="529.0" y="368" text-anchor="middle" fill="#475569" font-size="14">2014</text><text x="529.0" y="150" text-anchor="middle" fill="#172033" font-size="13" font-weight="700">28,205</text><rect x="560" y="177" width="34" height="163" rx="5" fill="#7c3aed"/><text x="577.0" y="368" text-anchor="middle" fill="#475569" font-size="14">2015</text><text x="577.0" y="169" text-anchor="middle" fill="#172033" font-size="13" font-weight="700">25,285</text><rect x="608" y="210" width="34" height="130" rx="5" fill="#7c3aed"/><text x="625.0" y="368" text-anchor="middle" fill="#475569" font-size="14">2016</text><text x="625.0" y="202" text-anchor="middle" fill="#172033" font-size="13" font-weight="700">20,081</text><rect x="656" y="143" width="34" height="197" rx="5" fill="#7c3aed"/><text x="673.0" y="368" text-anchor="middle" fill="#475569" font-size="14">2017</text><text x="673.0" y="135" text-anchor="middle" fill="#172033" font-size="13" font-weight="700">30,555</text><rect x="704" y="194" width="34" height="146" rx="5" fill="#7c3aed"/><text x="721.0" y="368" text-anchor="middle" fill="#475569" font-size="14">2018</text><text x="721.0" y="186" text-anchor="middle" fill="#172033" font-size="13" font-weight="700">22,580</text><rect x="752" y="175" width="34" height="165" rx="5" fill="#7c3aed"/><text x="769.0" y="368" text-anchor="middle" fill="#475569" font-size="14">2019</text><text x="769.0" y="167" text-anchor="middle" fill="#172033" font-size="13" font-weight="700">25,570</text><rect x="800" y="104" width="34" height="236" rx="5" fill="#7c3aed"/><text x="817.0" y="368" text-anchor="middle" fill="#475569" font-size="14">2020</text><text x="817.0" y="96" text-anchor="middle" fill="#172033" font-size="13" font-weight="700">36,586</text><rect x="848" y="218" width="34" height="122" rx="5" fill="#7c3aed"/><text x="865.0" y="368" text-anchor="middle" fill="#475569" font-size="14">2021</text><text x="865.0" y="210" text-anchor="middle" fill="#172033" font-size="13" font-weight="700">18,971</text><rect x="896" y="266" width="34" height="74" rx="5" fill="#7c3aed"/><text x="913.0" y="368" text-anchor="middle" fill="#475569" font-size="14">2022</text><text x="913.0" y="258" text-anchor="middle" fill="#172033" font-size="13" font-weight="700">11,479</text>
</svg>