<svg xmlns="http://www.w3.org/2000/svg" width="1000" height="420" viewBox="0 0 1000 420" role="img" aria-label="Yearly citation mass 2006-2026">
<rect width="100%" height="100%" fill="#ffffff"/>
<text x="32" y="38" fill="#0f172a" font-size="24" font-weight="800">Yearly Citation Mass, 2006-2026</text>
<text x="32" y="60" fill="#64748b" font-size="14">Citation counts among visible selected papers</text>
<line x1="80" y1="340" x2="930" y2="340" stroke="#cbd5e1" stroke-width="2"/>
<rect x="80" y="75" width="27" height="265" rx="5" fill="#7c3aed"/><text x="93.5" y="368" text-anchor="middle" fill="#475569" font-size="14">2006</text><text x="93.5" y="67" text-anchor="middle" fill="#172033" font-size="13" font-weight="700">39,573</text><rect x="121" y="96" width="27" height="244" rx="5" fill="#7c3aed"/><text x="134.5" y="368" text-anchor="middle" fill="#475569" font-size="14">2007</text><text x="134.5" y="88" text-anchor="middle" fill="#172033" font-size="13" font-weight="700">36,545</text><rect x="162" y="84" width="27" height="256" rx="5" fill="#7c3aed"/><text x="175.5" y="368" text-anchor="middle" fill="#475569" font-size="14">2008</text><text x="175.5" y="76" text-anchor="middle" fill="#172033" font-size="13" font-weight="700">38,309</text><rect x="203" y="70" width="27" height="270" rx="5" fill="#7c3aed"/><text x="216.5" y="368" text-anchor="middle" fill="#475569" font-size="14">2009</text><text x="216.5" y="62" text-anchor="middle" fill="#172033" font-size="13" font-weight="700">40,313</text><rect x="244" y="122" width="27" height="218" rx="5" fill="#7c3aed"/><text x="257.5" y="368" text-anchor="middle" fill="#475569" font-size="14">2010</text><text x="257.5" y="114" text-anchor="middle" fill="#172033" font-size="13" font-weight="700">32,551</text><rect x="285" y="131" width="27" height="209" rx="5" fill="#7c3aed"/><text x="298.5" y="368" text-anchor="middle" fill="#475569" font-size="14">2011</text><text x="298.5" y="123" text-anchor="middle" fill="#172033" font-size="13" font-weight="700">31,243</text><rect x="326" y="144" width="27" height="196" rx="5" fill="#7c3aed"/><text x="339.5" y="368" text-anchor="middle" fill="#475569" font-size="14">2012</text><text x="339.5" y="136" text-anchor="middle" fill="#172033" font-size="13" font-weight="700">29,411</text><rect x="367" y="119" width="27" height="221" rx="5" fill="#7c3aed"/><text x="380.5" y="368" text-anchor="middle" fill="#475569" font-size="14">2013</text><text x="380.5" y="111" text-anchor="middle" fill="#172033" font-size="13" font-weight="700">33,132</text><rect x="408" y="152" width="27" height="188" rx="5" fill="#7c3aed"/><text x="421.5" y="368" text-anchor="middle" fill="#475569" font-size="14">2014</text><text x="421.5" y="144" text-anchor="middle" fill="#172033" font-size="13" font-weight="700">28,205</text><rect x="449" y="171" width="27" height="169" rx="5" fill="#7c3aed"/><text x="462.5" y="368" text-anchor="middle" fill="#475569" font-size="14">2015</text><text x="462.5" y="163" text-anchor="middle" fill="#172033" font-size="13" font-weight="700">25,285</text><rect x="490" y="206" width="27" height="134" rx="5" fill="#7c3aed"/><text x="503.5" y="368" text-anchor="middle" fill="#475569" font-size="14">2016</text><text x="503.5" y="198" text-anchor="middle" fill="#172033" font-size="13" font-weight="700">20,081</text><rect x="531" y="136" width="27" height="204" rx="5" fill="#7c3aed"/><text x="544.5" y="368" text-anchor="middle" fill="#475569" font-size="14">2017</text><text x="544.5" y="128" text-anchor="middle" fill="#172033" font-size="13" font-weight="700">30,555</text><rect x="572" y="189" width="27" height="151" rx="5" fill="#7c3aed"/><text x="585.5" y="368" text-anchor="middle" fill="#475569" font-size="14">2018</text><text x="585.5" y="181" text-anchor="middle" fill="#172033" font-size="13" font-weight="700">22,580</text><rect x="613" y="169" width="27" height="171" rx="5" fill="#7c3aed"/><text x="626.5" y="368" text-anchor="middle" fill="#475569" font-size="14">2019</text><text x="626.5" y="161" text-anchor="middle" fill="#172033" font-size="13" font-weight="700">25,570</text><rect x="654" y="95" width="27" height="245" rx="5" fill="#7c3aed"/><text x="667.5" y="368" text-anchor="middle" fill="#475569" font-size="14">2020</text><text x="667.5" y="87" text-anchor="middle" fill="#172033" font-size="13" font-weight="700">36,586</text><rect x="695" y="213" width="27" height="127" rx="5" fill="#7c3aed"/><text x="708.5" y="368" text-anchor="middle" fill="#475569" font-size="14">2021</text><text x="708.5" y="205" text-anchor="middle" fill="#172033" font-size="13" font-weight="700">18,971</text><rect x="736" y="264" width="27" height="76" rx="5" fill="#7c3aed"/><text x="749.5" y="368" text-anchor="middle" fill="#475569" font-size="14">2022</text><text x="749.5" y="256" text-anchor="middle" fill="#172033" font-size="13" font-weight="700">11,479</text><rect x="777" y="274" width="27" height="66" rx="5" fill="#7c3aed"/><text x="790.5" y="368" text-anchor="middle" fill="#475569" font-size="14">2023</text><text x="790.5" y="266" text-anchor="middle" fill="#172033" font-size="13" font-weight="700">9,978</text><rect x="818" y="303" width="27" height="37" rx="5" fill="#7c3aed"/><text x="831.5" y="368" text-anchor="middle" fill="#475569" font-size="14">2024</text><text x="831.5" y="295" text-anchor="middle" fill="#172033" font-size="13" font-weight="700">5,525</text><rect x="859" y="324" width="27" height="16" rx="5" fill="#7c3aed"/><text x="872.5" y="368" text-anchor="middle" fill="#475569" font-size="14">2025</text><text x="872.5" y="316" text-anchor="middle" fill="#172033" font-size="13" font-weight="700">2,429</text><rect x="900" y="339" width="27" height="1" rx="5" fill="#7c3aed"/><text x="913.5" y="368" text-anchor="middle" fill="#475569" font-size="14">2026</text><text x="913.5" y="331" text-anchor="middle" fill="#172033" font-size="13" font-weight="700">297</text>
</svg>