<svg xmlns="http://www.w3.org/2000/svg" width="1000" height="420" viewBox="0 0 1000 420" role="img" aria-label="Yearly citation mass 2004-2023">
<rect width="100%" height="100%" fill="#ffffff"/>
<text x="32" y="38" fill="#0f172a" font-size="24" font-weight="800">Yearly Citation Mass, 2004-2023</text>
<text x="32" y="60" fill="#64748b" font-size="14">Citation counts among visible selected papers</text>
<line x1="80" y1="340" x2="930" y2="340" stroke="#cbd5e1" stroke-width="2"/>
<rect x="80" y="70" width="29" height="270" rx="5" fill="#7c3aed"/><text x="94.5" y="368" text-anchor="middle" fill="#475569" font-size="14">2004</text><text x="94.5" y="62" text-anchor="middle" fill="#172033" font-size="13" font-weight="700">42,252</text><rect x="123" y="74" width="29" height="266" rx="5" fill="#7c3aed"/><text x="137.5" y="368" text-anchor="middle" fill="#475569" font-size="14">2005</text><text x="137.5" y="66" text-anchor="middle" fill="#172033" font-size="13" font-weight="700">41,685</text><rect x="166" y="88" width="29" height="252" rx="5" fill="#7c3aed"/><text x="180.5" y="368" text-anchor="middle" fill="#475569" font-size="14">2006</text><text x="180.5" y="80" text-anchor="middle" fill="#172033" font-size="13" font-weight="700">39,573</text><rect x="209" y="107" width="29" height="233" rx="5" fill="#7c3aed"/><text x="223.5" y="368" text-anchor="middle" fill="#475569" font-size="14">2007</text><text x="223.5" y="99" text-anchor="middle" fill="#172033" font-size="13" font-weight="700">36,545</text><rect x="252" y="96" width="29" height="244" rx="5" fill="#7c3aed"/><text x="266.5" y="368" text-anchor="middle" fill="#475569" font-size="14">2008</text><text x="266.5" y="88" text-anchor="middle" fill="#172033" font-size="13" font-weight="700">38,309</text><rect x="295" y="83" width="29" height="257" rx="5" fill="#7c3aed"/><text x="309.5" y="368" text-anchor="middle" fill="#475569" font-size="14">2009</text><text x="309.5" y="75" text-anchor="middle" fill="#172033" font-size="13" font-weight="700">40,313</text><rect x="338" y="132" width="29" height="208" rx="5" fill="#7c3aed"/><text x="352.5" y="368" text-anchor="middle" fill="#475569" font-size="14">2010</text><text x="352.5" y="124" text-anchor="middle" fill="#172033" font-size="13" font-weight="700">32,551</text><rect x="381" y="141" width="29" height="199" rx="5" fill="#7c3aed"/><text x="395.5" y="368" text-anchor="middle" fill="#475569" font-size="14">2011</text><text x="395.5" y="133" text-anchor="middle" fill="#172033" font-size="13" font-weight="700">31,243</text><rect x="424" y="153" width="29" height="187" rx="5" fill="#7c3aed"/><text x="438.5" y="368" text-anchor="middle" fill="#475569" font-size="14">2012</text><text x="438.5" y="145" text-anchor="middle" fill="#172033" font-size="13" font-weight="700">29,411</text><rect x="467" y="129" width="29" height="211" rx="5" fill="#7c3aed"/><text x="481.5" y="368" text-anchor="middle" fill="#475569" font-size="14">2013</text><text x="481.5" y="121" text-anchor="middle" fill="#172033" font-size="13" font-weight="700">33,132</text><rect x="510" y="160" width="29" height="180" rx="5" fill="#7c3aed"/><text x="524.5" y="368" text-anchor="middle" fill="#475569" font-size="14">2014</text><text x="524.5" y="152" text-anchor="middle" fill="#172033" font-size="13" font-weight="700">28,205</text><rect x="553" y="179" width="29" height="161" rx="5" fill="#7c3aed"/><text x="567.5" y="368" text-anchor="middle" fill="#475569" font-size="14">2015</text><text x="567.5" y="171" text-anchor="middle" fill="#172033" font-size="13" font-weight="700">25,285</text><rect x="596" y="212" width="29" height="128" rx="5" fill="#7c3aed"/><text x="610.5" y="368" text-anchor="middle" fill="#475569" font-size="14">2016</text><text x="610.5" y="204" text-anchor="middle" fill="#172033" font-size="13" font-weight="700">20,081</text><rect x="639" y="145" width="29" height="195" rx="5" fill="#7c3aed"/><text x="653.5" y="368" text-anchor="middle" fill="#475569" font-size="14">2017</text><text x="653.5" y="137" text-anchor="middle" fill="#172033" font-size="13" font-weight="700">30,555</text><rect x="682" y="196" width="29" height="144" rx="5" fill="#7c3aed"/><text x="696.5" y="368" text-anchor="middle" fill="#475569" font-size="14">2018</text><text x="696.5" y="188" text-anchor="middle" fill="#172033" font-size="13" font-weight="700">22,580</text><rect x="725" y="177" width="29" height="163" rx="5" fill="#7c3aed"/><text x="739.5" y="368" text-anchor="middle" fill="#475569" font-size="14">2019</text><text x="739.5" y="169" text-anchor="middle" fill="#172033" font-size="13" font-weight="700">25,570</text><rect x="768" y="107" width="29" height="233" rx="5" fill="#7c3aed"/><text x="782.5" y="368" text-anchor="middle" fill="#475569" font-size="14">2020</text><text x="782.5" y="99" text-anchor="middle" fill="#172033" font-size="13" font-weight="700">36,586</text><rect x="811" y="219" width="29" height="121" rx="5" fill="#7c3aed"/><text x="825.5" y="368" text-anchor="middle" fill="#475569" font-size="14">2021</text><text x="825.5" y="211" text-anchor="middle" fill="#172033" font-size="13" font-weight="700">18,971</text><rect x="854" y="267" width="29" height="73" rx="5" fill="#7c3aed"/><text x="868.5" y="368" text-anchor="middle" fill="#475569" font-size="14">2022</text><text x="868.5" y="259" text-anchor="middle" fill="#172033" font-size="13" font-weight="700">11,479</text><rect x="897" y="277" width="29" height="63" rx="5" fill="#7c3aed"/><text x="911.5" y="368" text-anchor="middle" fill="#475569" font-size="14">2023</text><text x="911.5" y="269" text-anchor="middle" fill="#172033" font-size="13" font-weight="700">9,978</text>
</svg>