<svg xmlns="http://www.w3.org/2000/svg" width="1000" height="420" viewBox="0 0 1000 420" role="img" aria-label="Yearly citation mass 2004-2018">
<rect width="100%" height="100%" fill="#ffffff"/>
<text x="32" y="38" fill="#0f172a" font-size="24" font-weight="800">Yearly Citation Mass, 2004-2018</text>
<text x="32" y="60" fill="#64748b" font-size="14">Citation counts among visible selected papers</text>
<line x1="80" y1="340" x2="930" y2="340" stroke="#cbd5e1" stroke-width="2"/>
<rect x="80" y="70" width="43" height="270" rx="5" fill="#7c3aed"/><text x="101.5" y="368" text-anchor="middle" fill="#475569" font-size="14">2004</text><text x="101.5" y="62" text-anchor="middle" fill="#172033" font-size="13" font-weight="700">42,252</text><rect x="137" y="74" width="43" height="266" rx="5" fill="#7c3aed"/><text x="158.5" y="368" text-anchor="middle" fill="#475569" font-size="14">2005</text><text x="158.5" y="66" text-anchor="middle" fill="#172033" font-size="13" font-weight="700">41,685</text><rect x="194" y="88" width="43" height="252" rx="5" fill="#7c3aed"/><text x="215.5" y="368" text-anchor="middle" fill="#475569" font-size="14">2006</text><text x="215.5" y="80" text-anchor="middle" fill="#172033" font-size="13" font-weight="700">39,573</text><rect x="251" y="107" width="43" height="233" rx="5" fill="#7c3aed"/><text x="272.5" y="368" text-anchor="middle" fill="#475569" font-size="14">2007</text><text x="272.5" y="99" text-anchor="middle" fill="#172033" font-size="13" font-weight="700">36,545</text><rect x="308" y="96" width="43" height="244" rx="5" fill="#7c3aed"/><text x="329.5" y="368" text-anchor="middle" fill="#475569" font-size="14">2008</text><text x="329.5" y="88" text-anchor="middle" fill="#172033" font-size="13" font-weight="700">38,309</text><rect x="365" y="83" width="43" height="257" rx="5" fill="#7c3aed"/><text x="386.5" y="368" text-anchor="middle" fill="#475569" font-size="14">2009</text><text x="386.5" y="75" text-anchor="middle" fill="#172033" font-size="13" font-weight="700">40,313</text><rect x="422" y="132" width="43" height="208" rx="5" fill="#7c3aed"/><text x="443.5" y="368" text-anchor="middle" fill="#475569" font-size="14">2010</text><text x="443.5" y="124" text-anchor="middle" fill="#172033" font-size="13" font-weight="700">32,551</text><rect x="479" y="141" width="43" height="199" rx="5" fill="#7c3aed"/><text x="500.5" y="368" text-anchor="middle" fill="#475569" font-size="14">2011</text><text x="500.5" y="133" text-anchor="middle" fill="#172033" font-size="13" font-weight="700">31,243</text><rect x="536" y="153" width="43" height="187" rx="5" fill="#7c3aed"/><text x="557.5" y="368" text-anchor="middle" fill="#475569" font-size="14">2012</text><text x="557.5" y="145" text-anchor="middle" fill="#172033" font-size="13" font-weight="700">29,411</text><rect x="593" y="129" width="43" height="211" rx="5" fill="#7c3aed"/><text x="614.5" y="368" text-anchor="middle" fill="#475569" font-size="14">2013</text><text x="614.5" y="121" text-anchor="middle" fill="#172033" font-size="13" font-weight="700">33,132</text><rect x="650" y="160" width="43" height="180" rx="5" fill="#7c3aed"/><text x="671.5" y="368" text-anchor="middle" fill="#475569" font-size="14">2014</text><text x="671.5" y="152" text-anchor="middle" fill="#172033" font-size="13" font-weight="700">28,205</text><rect x="707" y="179" width="43" height="161" rx="5" fill="#7c3aed"/><text x="728.5" y="368" text-anchor="middle" fill="#475569" font-size="14">2015</text><text x="728.5" y="171" text-anchor="middle" fill="#172033" font-size="13" font-weight="700">25,285</text><rect x="764" y="212" width="43" height="128" rx="5" fill="#7c3aed"/><text x="785.5" y="368" text-anchor="middle" fill="#475569" font-size="14">2016</text><text x="785.5" y="204" text-anchor="middle" fill="#172033" font-size="13" font-weight="700">20,081</text><rect x="821" y="145" width="43" height="195" rx="5" fill="#7c3aed"/><text x="842.5" y="368" text-anchor="middle" fill="#475569" font-size="14">2017</text><text x="842.5" y="137" text-anchor="middle" fill="#172033" font-size="13" font-weight="700">30,555</text><rect x="878" y="196" width="43" height="144" rx="5" fill="#7c3aed"/><text x="899.5" y="368" text-anchor="middle" fill="#475569" font-size="14">2018</text><text x="899.5" y="188" text-anchor="middle" fill="#172033" font-size="13" font-weight="700">22,580</text>
</svg>