<svg xmlns="http://www.w3.org/2000/svg" width="1000" height="420" viewBox="0 0 1000 420" role="img" aria-label="Yearly citation mass 2003-2012">
<rect width="100%" height="100%" fill="#ffffff"/>
<text x="32" y="38" fill="#0f172a" font-size="24" font-weight="800">Yearly Citation Mass, 2003-2012</text>
<text x="32" y="60" fill="#64748b" font-size="14">Citation counts among visible selected papers</text>
<line x1="80" y1="340" x2="930" y2="340" stroke="#cbd5e1" stroke-width="2"/>
<rect x="80" y="82" width="72" height="258" rx="5" fill="#7c3aed"/><text x="116.0" y="368" text-anchor="middle" fill="#475569" font-size="14">2003</text><text x="116.0" y="74" text-anchor="middle" fill="#172033" font-size="13" font-weight="700">47,719</text><rect x="166" y="70" width="72" height="270" rx="5" fill="#7c3aed"/><text x="202.0" y="368" text-anchor="middle" fill="#475569" font-size="14">2004</text><text x="202.0" y="62" text-anchor="middle" fill="#172033" font-size="13" font-weight="700">49,890</text><rect x="252" y="84" width="72" height="256" rx="5" fill="#7c3aed"/><text x="288.0" y="368" text-anchor="middle" fill="#475569" font-size="14">2005</text><text x="288.0" y="76" text-anchor="middle" fill="#172033" font-size="13" font-weight="700">47,352</text><rect x="338" y="114" width="72" height="226" rx="5" fill="#7c3aed"/><text x="374.0" y="368" text-anchor="middle" fill="#475569" font-size="14">2006</text><text x="374.0" y="106" text-anchor="middle" fill="#172033" font-size="13" font-weight="700">41,836</text><rect x="424" y="130" width="72" height="210" rx="5" fill="#7c3aed"/><text x="460.0" y="368" text-anchor="middle" fill="#475569" font-size="14">2007</text><text x="460.0" y="122" text-anchor="middle" fill="#172033" font-size="13" font-weight="700">38,982</text><rect x="510" y="116" width="72" height="224" rx="5" fill="#7c3aed"/><text x="546.0" y="368" text-anchor="middle" fill="#475569" font-size="14">2008</text><text x="546.0" y="108" text-anchor="middle" fill="#172033" font-size="13" font-weight="700">41,513</text><rect x="596" y="103" width="72" height="237" rx="5" fill="#7c3aed"/><text x="632.0" y="368" text-anchor="middle" fill="#475569" font-size="14">2009</text><text x="632.0" y="95" text-anchor="middle" fill="#172033" font-size="13" font-weight="700">43,953</text><rect x="682" y="136" width="72" height="204" rx="5" fill="#7c3aed"/><text x="718.0" y="368" text-anchor="middle" fill="#475569" font-size="14">2010</text><text x="718.0" y="128" text-anchor="middle" fill="#172033" font-size="13" font-weight="700">37,701</text><rect x="768" y="156" width="72" height="184" rx="5" fill="#7c3aed"/><text x="804.0" y="368" text-anchor="middle" fill="#475569" font-size="14">2011</text><text x="804.0" y="148" text-anchor="middle" fill="#172033" font-size="13" font-weight="700">34,084</text><rect x="854" y="140" width="72" height="200" rx="5" fill="#7c3aed"/><text x="890.0" y="368" text-anchor="middle" fill="#475569" font-size="14">2012</text><text x="890.0" y="132" text-anchor="middle" fill="#172033" font-size="13" font-weight="700">37,002</text>
</svg>