<svg xmlns="http://www.w3.org/2000/svg" width="1000" height="420" viewBox="0 0 1000 420" role="img" aria-label="Yearly citation mass 2005-2011">
<rect width="100%" height="100%" fill="#ffffff"/>
<text x="32" y="38" fill="#0f172a" font-size="24" font-weight="800">Yearly Citation Mass, 2005-2011</text>
<text x="32" y="60" fill="#64748b" font-size="14">Citation counts among visible selected papers</text>
<line x1="80" y1="340" x2="930" y2="340" stroke="#cbd5e1" stroke-width="2"/>
<rect x="80" y="70" width="109" height="270" rx="5" fill="#7c3aed"/><text x="134.5" y="368" text-anchor="middle" fill="#475569" font-size="14">2005</text><text x="134.5" y="62" text-anchor="middle" fill="#172033" font-size="13" font-weight="700">47,352</text><rect x="203" y="102" width="109" height="238" rx="5" fill="#7c3aed"/><text x="257.5" y="368" text-anchor="middle" fill="#475569" font-size="14">2006</text><text x="257.5" y="94" text-anchor="middle" fill="#172033" font-size="13" font-weight="700">41,836</text><rect x="326" y="118" width="109" height="222" rx="5" fill="#7c3aed"/><text x="380.5" y="368" text-anchor="middle" fill="#475569" font-size="14">2007</text><text x="380.5" y="110" text-anchor="middle" fill="#172033" font-size="13" font-weight="700">38,982</text><rect x="449" y="104" width="109" height="236" rx="5" fill="#7c3aed"/><text x="503.5" y="368" text-anchor="middle" fill="#475569" font-size="14">2008</text><text x="503.5" y="96" text-anchor="middle" fill="#172033" font-size="13" font-weight="700">41,513</text><rect x="572" y="90" width="109" height="250" rx="5" fill="#7c3aed"/><text x="626.5" y="368" text-anchor="middle" fill="#475569" font-size="14">2009</text><text x="626.5" y="82" text-anchor="middle" fill="#172033" font-size="13" font-weight="700">43,953</text><rect x="695" y="126" width="109" height="214" rx="5" fill="#7c3aed"/><text x="749.5" y="368" text-anchor="middle" fill="#475569" font-size="14">2010</text><text x="749.5" y="118" text-anchor="middle" fill="#172033" font-size="13" font-weight="700">37,701</text><rect x="818" y="146" width="109" height="194" rx="5" fill="#7c3aed"/><text x="872.5" y="368" text-anchor="middle" fill="#475569" font-size="14">2011</text><text x="872.5" y="138" text-anchor="middle" fill="#172033" font-size="13" font-weight="700">34,084</text>
</svg>