<svg xmlns="http://www.w3.org/2000/svg" width="1000" height="420" viewBox="0 0 1000 420" role="img" aria-label="Yearly citation mass 2004-2017">
<rect width="100%" height="100%" fill="#ffffff"/>
<text x="32" y="38" fill="#0f172a" font-size="24" font-weight="800">Yearly Citation Mass, 2004-2017</text>
<text x="32" y="60" fill="#64748b" font-size="14">Citation counts among visible selected papers</text>
<line x1="80" y1="340" x2="930" y2="340" stroke="#cbd5e1" stroke-width="2"/>
<rect x="80" y="70" width="47" height="270" rx="5" fill="#7c3aed"/><text x="103.5" y="368" text-anchor="middle" fill="#475569" font-size="14">2004</text><text x="103.5" y="62" text-anchor="middle" fill="#172033" font-size="13" font-weight="700">42,252</text><rect x="141" y="74" width="47" height="266" rx="5" fill="#7c3aed"/><text x="164.5" y="368" text-anchor="middle" fill="#475569" font-size="14">2005</text><text x="164.5" y="66" text-anchor="middle" fill="#172033" font-size="13" font-weight="700">41,685</text><rect x="202" y="88" width="47" height="252" rx="5" fill="#7c3aed"/><text x="225.5" y="368" text-anchor="middle" fill="#475569" font-size="14">2006</text><text x="225.5" y="80" text-anchor="middle" fill="#172033" font-size="13" font-weight="700">39,573</text><rect x="263" y="107" width="47" height="233" rx="5" fill="#7c3aed"/><text x="286.5" y="368" text-anchor="middle" fill="#475569" font-size="14">2007</text><text x="286.5" y="99" text-anchor="middle" fill="#172033" font-size="13" font-weight="700">36,545</text><rect x="324" y="96" width="47" height="244" rx="5" fill="#7c3aed"/><text x="347.5" y="368" text-anchor="middle" fill="#475569" font-size="14">2008</text><text x="347.5" y="88" text-anchor="middle" fill="#172033" font-size="13" font-weight="700">38,309</text><rect x="385" y="83" width="47" height="257" rx="5" fill="#7c3aed"/><text x="408.5" y="368" text-anchor="middle" fill="#475569" font-size="14">2009</text><text x="408.5" y="75" text-anchor="middle" fill="#172033" font-size="13" font-weight="700">40,313</text><rect x="446" y="132" width="47" height="208" rx="5" fill="#7c3aed"/><text x="469.5" y="368" text-anchor="middle" fill="#475569" font-size="14">2010</text><text x="469.5" y="124" text-anchor="middle" fill="#172033" font-size="13" font-weight="700">32,551</text><rect x="507" y="141" width="47" height="199" rx="5" fill="#7c3aed"/><text x="530.5" y="368" text-anchor="middle" fill="#475569" font-size="14">2011</text><text x="530.5" y="133" text-anchor="middle" fill="#172033" font-size="13" font-weight="700">31,243</text><rect x="568" y="153" width="47" height="187" rx="5" fill="#7c3aed"/><text x="591.5" y="368" text-anchor="middle" fill="#475569" font-size="14">2012</text><text x="591.5" y="145" text-anchor="middle" fill="#172033" font-size="13" font-weight="700">29,411</text><rect x="629" y="129" width="47" height="211" rx="5" fill="#7c3aed"/><text x="652.5" y="368" text-anchor="middle" fill="#475569" font-size="14">2013</text><text x="652.5" y="121" text-anchor="middle" fill="#172033" font-size="13" font-weight="700">33,132</text><rect x="690" y="160" width="47" height="180" rx="5" fill="#7c3aed"/><text x="713.5" y="368" text-anchor="middle" fill="#475569" font-size="14">2014</text><text x="713.5" y="152" text-anchor="middle" fill="#172033" font-size="13" font-weight="700">28,205</text><rect x="751" y="179" width="47" height="161" rx="5" fill="#7c3aed"/><text x="774.5" y="368" text-anchor="middle" fill="#475569" font-size="14">2015</text><text x="774.5" y="171" text-anchor="middle" fill="#172033" font-size="13" font-weight="700">25,285</text><rect x="812" y="212" width="47" height="128" rx="5" fill="#7c3aed"/><text x="835.5" y="368" text-anchor="middle" fill="#475569" font-size="14">2016</text><text x="835.5" y="204" text-anchor="middle" fill="#172033" font-size="13" font-weight="700">20,081</text><rect x="873" y="145" width="47" height="195" rx="5" fill="#7c3aed"/><text x="896.5" y="368" text-anchor="middle" fill="#475569" font-size="14">2017</text><text x="896.5" y="137" text-anchor="middle" fill="#172033" font-size="13" font-weight="700">30,555</text>
</svg>