<svg xmlns="http://www.w3.org/2000/svg" width="1000" height="420" viewBox="0 0 1000 420" role="img" aria-label="Yearly citation mass 2000-2014">
<rect width="100%" height="100%" fill="#ffffff"/>
<text x="32" y="38" fill="#0f172a" font-size="24" font-weight="800">Yearly Citation Mass, 2000-2014</text>
<text x="32" y="60" fill="#64748b" font-size="14">Citation counts among visible selected papers</text>
<line x1="80" y1="340" x2="930" y2="340" stroke="#cbd5e1" stroke-width="2"/>
<rect x="80" y="85" width="43" height="255" rx="5" fill="#7c3aed"/><text x="101.5" y="368" text-anchor="middle" fill="#475569" font-size="14">2000</text><text x="101.5" y="77" text-anchor="middle" fill="#172033" font-size="13" font-weight="700">50,901</text><rect x="137" y="70" width="43" height="270" rx="5" fill="#7c3aed"/><text x="158.5" y="368" text-anchor="middle" fill="#475569" font-size="14">2001</text><text x="158.5" y="62" text-anchor="middle" fill="#172033" font-size="13" font-weight="700">53,778</text><rect x="194" y="128" width="43" height="212" rx="5" fill="#7c3aed"/><text x="215.5" y="368" text-anchor="middle" fill="#475569" font-size="14">2002</text><text x="215.5" y="120" text-anchor="middle" fill="#172033" font-size="13" font-weight="700">42,298</text><rect x="251" y="139" width="43" height="201" rx="5" fill="#7c3aed"/><text x="272.5" y="368" text-anchor="middle" fill="#475569" font-size="14">2003</text><text x="272.5" y="131" text-anchor="middle" fill="#172033" font-size="13" font-weight="700">40,138</text><rect x="308" y="128" width="43" height="212" rx="5" fill="#7c3aed"/><text x="329.5" y="368" text-anchor="middle" fill="#475569" font-size="14">2004</text><text x="329.5" y="120" text-anchor="middle" fill="#172033" font-size="13" font-weight="700">42,252</text><rect x="365" y="131" width="43" height="209" rx="5" fill="#7c3aed"/><text x="386.5" y="368" text-anchor="middle" fill="#475569" font-size="14">2005</text><text x="386.5" y="123" text-anchor="middle" fill="#172033" font-size="13" font-weight="700">41,685</text><rect x="422" y="142" width="43" height="198" rx="5" fill="#7c3aed"/><text x="443.5" y="368" text-anchor="middle" fill="#475569" font-size="14">2006</text><text x="443.5" y="134" text-anchor="middle" fill="#172033" font-size="13" font-weight="700">39,573</text><rect x="479" y="157" width="43" height="183" rx="5" fill="#7c3aed"/><text x="500.5" y="368" text-anchor="middle" fill="#475569" font-size="14">2007</text><text x="500.5" y="149" text-anchor="middle" fill="#172033" font-size="13" font-weight="700">36,545</text><rect x="536" y="148" width="43" height="192" rx="5" fill="#7c3aed"/><text x="557.5" y="368" text-anchor="middle" fill="#475569" font-size="14">2008</text><text x="557.5" y="140" text-anchor="middle" fill="#172033" font-size="13" font-weight="700">38,309</text><rect x="593" y="138" width="43" height="202" rx="5" fill="#7c3aed"/><text x="614.5" y="368" text-anchor="middle" fill="#475569" font-size="14">2009</text><text x="614.5" y="130" text-anchor="middle" fill="#172033" font-size="13" font-weight="700">40,313</text><rect x="650" y="177" width="43" height="163" rx="5" fill="#7c3aed"/><text x="671.5" y="368" text-anchor="middle" fill="#475569" font-size="14">2010</text><text x="671.5" y="169" text-anchor="middle" fill="#172033" font-size="13" font-weight="700">32,551</text><rect x="707" y="184" width="43" height="156" rx="5" fill="#7c3aed"/><text x="728.5" y="368" text-anchor="middle" fill="#475569" font-size="14">2011</text><text x="728.5" y="176" text-anchor="middle" fill="#172033" font-size="13" font-weight="700">31,243</text><rect x="764" y="193" width="43" height="147" rx="5" fill="#7c3aed"/><text x="785.5" y="368" text-anchor="middle" fill="#475569" font-size="14">2012</text><text x="785.5" y="185" text-anchor="middle" fill="#172033" font-size="13" font-weight="700">29,411</text><rect x="821" y="174" width="43" height="166" rx="5" fill="#7c3aed"/><text x="842.5" y="368" text-anchor="middle" fill="#475569" font-size="14">2013</text><text x="842.5" y="166" text-anchor="middle" fill="#172033" font-size="13" font-weight="700">33,132</text><rect x="878" y="199" width="43" height="141" rx="5" fill="#7c3aed"/><text x="899.5" y="368" text-anchor="middle" fill="#475569" font-size="14">2014</text><text x="899.5" y="191" text-anchor="middle" fill="#172033" font-size="13" font-weight="700">28,205</text>
</svg>