<svg xmlns="http://www.w3.org/2000/svg" width="1000" height="420" viewBox="0 0 1000 420" role="img" aria-label="Yearly citation mass 2000-2024">
<rect width="100%" height="100%" fill="#ffffff"/>
<text x="32" y="38" fill="#0f172a" font-size="24" font-weight="800">Yearly Citation Mass, 2000-2024</text>
<text x="32" y="60" fill="#64748b" font-size="14">Citation counts among visible selected papers</text>
<line x1="80" y1="340" x2="930" y2="340" stroke="#cbd5e1" stroke-width="2"/>
<rect x="80" y="85" width="24" height="255" rx="5" fill="#7c3aed"/><text x="92.0" y="368" text-anchor="middle" fill="#475569" font-size="14">2000</text><text x="92.0" y="77" text-anchor="middle" fill="#172033" font-size="13" font-weight="700">50,901</text><rect x="118" y="70" width="24" height="270" rx="5" fill="#7c3aed"/><text x="130.0" y="368" text-anchor="middle" fill="#475569" font-size="14">2001</text><text x="130.0" y="62" text-anchor="middle" fill="#172033" font-size="13" font-weight="700">53,778</text><rect x="156" y="128" width="24" height="212" rx="5" fill="#7c3aed"/><text x="168.0" y="368" text-anchor="middle" fill="#475569" font-size="14">2002</text><text x="168.0" y="120" text-anchor="middle" fill="#172033" font-size="13" font-weight="700">42,298</text><rect x="194" y="139" width="24" height="201" rx="5" fill="#7c3aed"/><text x="206.0" y="368" text-anchor="middle" fill="#475569" font-size="14">2003</text><text x="206.0" y="131" text-anchor="middle" fill="#172033" font-size="13" font-weight="700">40,138</text><rect x="232" y="128" width="24" height="212" rx="5" fill="#7c3aed"/><text x="244.0" y="368" text-anchor="middle" fill="#475569" font-size="14">2004</text><text x="244.0" y="120" text-anchor="middle" fill="#172033" font-size="13" font-weight="700">42,252</text><rect x="270" y="131" width="24" height="209" rx="5" fill="#7c3aed"/><text x="282.0" y="368" text-anchor="middle" fill="#475569" font-size="14">2005</text><text x="282.0" y="123" text-anchor="middle" fill="#172033" font-size="13" font-weight="700">41,685</text><rect x="308" y="142" width="24" height="198" rx="5" fill="#7c3aed"/><text x="320.0" y="368" text-anchor="middle" fill="#475569" font-size="14">2006</text><text x="320.0" y="134" text-anchor="middle" fill="#172033" font-size="13" font-weight="700">39,573</text><rect x="346" y="157" width="24" height="183" rx="5" fill="#7c3aed"/><text x="358.0" y="368" text-anchor="middle" fill="#475569" font-size="14">2007</text><text x="358.0" y="149" text-anchor="middle" fill="#172033" font-size="13" font-weight="700">36,545</text><rect x="384" y="148" width="24" height="192" rx="5" fill="#7c3aed"/><text x="396.0" y="368" text-anchor="middle" fill="#475569" font-size="14">2008</text><text x="396.0" y="140" text-anchor="middle" fill="#172033" font-size="13" font-weight="700">38,309</text><rect x="422" y="138" width="24" height="202" rx="5" fill="#7c3aed"/><text x="434.0" y="368" text-anchor="middle" fill="#475569" font-size="14">2009</text><text x="434.0" y="130" text-anchor="middle" fill="#172033" font-size="13" font-weight="700">40,313</text><rect x="460" y="177" width="24" height="163" rx="5" fill="#7c3aed"/><text x="472.0" y="368" text-anchor="middle" fill="#475569" font-size="14">2010</text><text x="472.0" y="169" text-anchor="middle" fill="#172033" font-size="13" font-weight="700">32,551</text><rect x="498" y="184" width="24" height="156" rx="5" fill="#7c3aed"/><text x="510.0" y="368" text-anchor="middle" fill="#475569" font-size="14">2011</text><text x="510.0" y="176" text-anchor="middle" fill="#172033" font-size="13" font-weight="700">31,243</text><rect x="536" y="193" width="24" height="147" rx="5" fill="#7c3aed"/><text x="548.0" y="368" text-anchor="middle" fill="#475569" font-size="14">2012</text><text x="548.0" y="185" text-anchor="middle" fill="#172033" font-size="13" font-weight="700">29,411</text><rect x="574" y="174" width="24" height="166" rx="5" fill="#7c3aed"/><text x="586.0" y="368" text-anchor="middle" fill="#475569" font-size="14">2013</text><text x="586.0" y="166" text-anchor="middle" fill="#172033" font-size="13" font-weight="700">33,132</text><rect x="612" y="199" width="24" height="141" rx="5" fill="#7c3aed"/><text x="624.0" y="368" text-anchor="middle" fill="#475569" font-size="14">2014</text><text x="624.0" y="191" text-anchor="middle" fill="#172033" font-size="13" font-weight="700">28,205</text><rect x="650" y="214" width="24" height="126" rx="5" fill="#7c3aed"/><text x="662.0" y="368" text-anchor="middle" fill="#475569" font-size="14">2015</text><text x="662.0" y="206" text-anchor="middle" fill="#172033" font-size="13" font-weight="700">25,285</text><rect x="688" y="240" width="24" height="100" rx="5" fill="#7c3aed"/><text x="700.0" y="368" text-anchor="middle" fill="#475569" font-size="14">2016</text><text x="700.0" y="232" text-anchor="middle" fill="#172033" font-size="13" font-weight="700">20,081</text><rect x="726" y="187" width="24" height="153" rx="5" fill="#7c3aed"/><text x="738.0" y="368" text-anchor="middle" fill="#475569" font-size="14">2017</text><text x="738.0" y="179" text-anchor="middle" fill="#172033" font-size="13" font-weight="700">30,555</text><rect x="764" y="227" width="24" height="113" rx="5" fill="#7c3aed"/><text x="776.0" y="368" text-anchor="middle" fill="#475569" font-size="14">2018</text><text x="776.0" y="219" text-anchor="middle" fill="#172033" font-size="13" font-weight="700">22,580</text><rect x="802" y="212" width="24" height="128" rx="5" fill="#7c3aed"/><text x="814.0" y="368" text-anchor="middle" fill="#475569" font-size="14">2019</text><text x="814.0" y="204" text-anchor="middle" fill="#172033" font-size="13" font-weight="700">25,570</text><rect x="840" y="157" width="24" height="183" rx="5" fill="#7c3aed"/><text x="852.0" y="368" text-anchor="middle" fill="#475569" font-size="14">2020</text><text x="852.0" y="149" text-anchor="middle" fill="#172033" font-size="13" font-weight="700">36,586</text><rect x="878" y="245" width="24" height="95" rx="5" fill="#7c3aed"/><text x="890.0" y="368" text-anchor="middle" fill="#475569" font-size="14">2021</text><text x="890.0" y="237" text-anchor="middle" fill="#172033" font-size="13" font-weight="700">18,971</text><rect x="916" y="283" width="24" height="57" rx="5" fill="#7c3aed"/><text x="928.0" y="368" text-anchor="middle" fill="#475569" font-size="14">2022</text><text x="928.0" y="275" text-anchor="middle" fill="#172033" font-size="13" font-weight="700">11,479</text><rect x="954" y="290" width="24" height="50" rx="5" fill="#7c3aed"/><text x="966.0" y="368" text-anchor="middle" fill="#475569" font-size="14">2023</text><text x="966.0" y="282" text-anchor="middle" fill="#172033" font-size="13" font-weight="700">9,978</text><rect x="992" y="313" width="24" height="27" rx="5" fill="#7c3aed"/><text x="1004.0" y="368" text-anchor="middle" fill="#475569" font-size="14">2024</text><text x="1004.0" y="305" text-anchor="middle" fill="#172033" font-size="13" font-weight="700">5,525</text>
</svg>