<svg xmlns="http://www.w3.org/2000/svg" width="1000" height="420" viewBox="0 0 1000 420" role="img" aria-label="Yearly citation mass 2001-2013">
<rect width="100%" height="100%" fill="#ffffff"/>
<text x="32" y="38" fill="#0f172a" font-size="24" font-weight="800">Yearly Citation Mass, 2001-2013</text>
<text x="32" y="60" fill="#64748b" font-size="14">Citation counts among visible selected papers</text>
<line x1="80" y1="340" x2="930" y2="340" stroke="#cbd5e1" stroke-width="2"/>
<rect x="80" y="70" width="52" height="270" rx="5" fill="#7c3aed"/><text x="106.0" y="368" text-anchor="middle" fill="#475569" font-size="14">2001</text><text x="106.0" y="62" text-anchor="middle" fill="#172033" font-size="13" font-weight="700">57,380</text><rect x="146" y="104" width="52" height="236" rx="5" fill="#7c3aed"/><text x="172.0" y="368" text-anchor="middle" fill="#475569" font-size="14">2002</text><text x="172.0" y="96" text-anchor="middle" fill="#172033" font-size="13" font-weight="700">50,335</text><rect x="212" y="116" width="52" height="224" rx="5" fill="#7c3aed"/><text x="238.0" y="368" text-anchor="middle" fill="#475569" font-size="14">2003</text><text x="238.0" y="108" text-anchor="middle" fill="#172033" font-size="13" font-weight="700">47,719</text><rect x="278" y="106" width="52" height="234" rx="5" fill="#7c3aed"/><text x="304.0" y="368" text-anchor="middle" fill="#475569" font-size="14">2004</text><text x="304.0" y="98" text-anchor="middle" fill="#172033" font-size="13" font-weight="700">49,890</text><rect x="344" y="118" width="52" height="222" rx="5" fill="#7c3aed"/><text x="370.0" y="368" text-anchor="middle" fill="#475569" font-size="14">2005</text><text x="370.0" y="110" text-anchor="middle" fill="#172033" font-size="13" font-weight="700">47,352</text><rect x="410" y="144" width="52" height="196" rx="5" fill="#7c3aed"/><text x="436.0" y="368" text-anchor="middle" fill="#475569" font-size="14">2006</text><text x="436.0" y="136" text-anchor="middle" fill="#172033" font-size="13" font-weight="700">41,836</text><rect x="476" y="157" width="52" height="183" rx="5" fill="#7c3aed"/><text x="502.0" y="368" text-anchor="middle" fill="#475569" font-size="14">2007</text><text x="502.0" y="149" text-anchor="middle" fill="#172033" font-size="13" font-weight="700">38,982</text><rect x="542" y="145" width="52" height="195" rx="5" fill="#7c3aed"/><text x="568.0" y="368" text-anchor="middle" fill="#475569" font-size="14">2008</text><text x="568.0" y="137" text-anchor="middle" fill="#172033" font-size="13" font-weight="700">41,513</text><rect x="608" y="134" width="52" height="206" rx="5" fill="#7c3aed"/><text x="634.0" y="368" text-anchor="middle" fill="#475569" font-size="14">2009</text><text x="634.0" y="126" text-anchor="middle" fill="#172033" font-size="13" font-weight="700">43,953</text><rect x="674" y="163" width="52" height="177" rx="5" fill="#7c3aed"/><text x="700.0" y="368" text-anchor="middle" fill="#475569" font-size="14">2010</text><text x="700.0" y="155" text-anchor="middle" fill="#172033" font-size="13" font-weight="700">37,701</text><rect x="740" y="180" width="52" height="160" rx="5" fill="#7c3aed"/><text x="766.0" y="368" text-anchor="middle" fill="#475569" font-size="14">2011</text><text x="766.0" y="172" text-anchor="middle" fill="#172033" font-size="13" font-weight="700">34,084</text><rect x="806" y="166" width="52" height="174" rx="5" fill="#7c3aed"/><text x="832.0" y="368" text-anchor="middle" fill="#475569" font-size="14">2012</text><text x="832.0" y="158" text-anchor="middle" fill="#172033" font-size="13" font-weight="700">37,002</text><rect x="872" y="173" width="52" height="167" rx="5" fill="#7c3aed"/><text x="898.0" y="368" text-anchor="middle" fill="#475569" font-size="14">2013</text><text x="898.0" y="165" text-anchor="middle" fill="#172033" font-size="13" font-weight="700">35,595</text>
</svg>