<svg xmlns="http://www.w3.org/2000/svg" width="1000" height="420" viewBox="0 0 1000 420" role="img" aria-label="Yearly citation mass 2000-2018">
<rect width="100%" height="100%" fill="#ffffff"/>
<text x="32" y="38" fill="#0f172a" font-size="24" font-weight="800">Yearly Citation Mass, 2000-2018</text>
<text x="32" y="60" fill="#64748b" font-size="14">Citation counts among visible selected papers</text>
<line x1="80" y1="340" x2="930" y2="340" stroke="#cbd5e1" stroke-width="2"/>
<rect x="80" y="98" width="31" height="242" rx="5" fill="#7c3aed"/><text x="95.5" y="368" text-anchor="middle" fill="#475569" font-size="14">2000</text><text x="95.5" y="90" text-anchor="middle" fill="#172033" font-size="13" font-weight="700">51,577</text><rect x="125" y="70" width="31" height="270" rx="5" fill="#7c3aed"/><text x="140.5" y="368" text-anchor="middle" fill="#475569" font-size="14">2001</text><text x="140.5" y="62" text-anchor="middle" fill="#172033" font-size="13" font-weight="700">57,380</text><rect x="170" y="104" width="31" height="236" rx="5" fill="#7c3aed"/><text x="185.5" y="368" text-anchor="middle" fill="#475569" font-size="14">2002</text><text x="185.5" y="96" text-anchor="middle" fill="#172033" font-size="13" font-weight="700">50,335</text><rect x="215" y="116" width="31" height="224" rx="5" fill="#7c3aed"/><text x="230.5" y="368" text-anchor="middle" fill="#475569" font-size="14">2003</text><text x="230.5" y="108" text-anchor="middle" fill="#172033" font-size="13" font-weight="700">47,719</text><rect x="260" y="106" width="31" height="234" rx="5" fill="#7c3aed"/><text x="275.5" y="368" text-anchor="middle" fill="#475569" font-size="14">2004</text><text x="275.5" y="98" text-anchor="middle" fill="#172033" font-size="13" font-weight="700">49,890</text><rect x="305" y="118" width="31" height="222" rx="5" fill="#7c3aed"/><text x="320.5" y="368" text-anchor="middle" fill="#475569" font-size="14">2005</text><text x="320.5" y="110" text-anchor="middle" fill="#172033" font-size="13" font-weight="700">47,352</text><rect x="350" y="144" width="31" height="196" rx="5" fill="#7c3aed"/><text x="365.5" y="368" text-anchor="middle" fill="#475569" font-size="14">2006</text><text x="365.5" y="136" text-anchor="middle" fill="#172033" font-size="13" font-weight="700">41,836</text><rect x="395" y="157" width="31" height="183" rx="5" fill="#7c3aed"/><text x="410.5" y="368" text-anchor="middle" fill="#475569" font-size="14">2007</text><text x="410.5" y="149" text-anchor="middle" fill="#172033" font-size="13" font-weight="700">38,982</text><rect x="440" y="145" width="31" height="195" rx="5" fill="#7c3aed"/><text x="455.5" y="368" text-anchor="middle" fill="#475569" font-size="14">2008</text><text x="455.5" y="137" text-anchor="middle" fill="#172033" font-size="13" font-weight="700">41,513</text><rect x="485" y="134" width="31" height="206" rx="5" fill="#7c3aed"/><text x="500.5" y="368" text-anchor="middle" fill="#475569" font-size="14">2009</text><text x="500.5" y="126" text-anchor="middle" fill="#172033" font-size="13" font-weight="700">43,953</text><rect x="530" y="163" width="31" height="177" rx="5" fill="#7c3aed"/><text x="545.5" y="368" text-anchor="middle" fill="#475569" font-size="14">2010</text><text x="545.5" y="155" text-anchor="middle" fill="#172033" font-size="13" font-weight="700">37,701</text><rect x="575" y="180" width="31" height="160" rx="5" fill="#7c3aed"/><text x="590.5" y="368" text-anchor="middle" fill="#475569" font-size="14">2011</text><text x="590.5" y="172" text-anchor="middle" fill="#172033" font-size="13" font-weight="700">34,084</text><rect x="620" y="166" width="31" height="174" rx="5" fill="#7c3aed"/><text x="635.5" y="368" text-anchor="middle" fill="#475569" font-size="14">2012</text><text x="635.5" y="158" text-anchor="middle" fill="#172033" font-size="13" font-weight="700">37,002</text><rect x="665" y="173" width="31" height="167" rx="5" fill="#7c3aed"/><text x="680.5" y="368" text-anchor="middle" fill="#475569" font-size="14">2013</text><text x="680.5" y="165" text-anchor="middle" fill="#172033" font-size="13" font-weight="700">35,595</text><rect x="710" y="195" width="31" height="145" rx="5" fill="#7c3aed"/><text x="725.5" y="368" text-anchor="middle" fill="#475569" font-size="14">2014</text><text x="725.5" y="187" text-anchor="middle" fill="#172033" font-size="13" font-weight="700">30,999</text><rect x="755" y="100" width="31" height="240" rx="5" fill="#7c3aed"/><text x="770.5" y="368" text-anchor="middle" fill="#475569" font-size="14">2015</text><text x="770.5" y="92" text-anchor="middle" fill="#172033" font-size="13" font-weight="700">51,060</text><rect x="800" y="218" width="31" height="122" rx="5" fill="#7c3aed"/><text x="815.5" y="368" text-anchor="middle" fill="#475569" font-size="14">2016</text><text x="815.5" y="210" text-anchor="middle" fill="#172033" font-size="13" font-weight="700">26,012</text><rect x="845" y="147" width="31" height="193" rx="5" fill="#7c3aed"/><text x="860.5" y="368" text-anchor="middle" fill="#475569" font-size="14">2017</text><text x="860.5" y="139" text-anchor="middle" fill="#172033" font-size="13" font-weight="700">41,195</text><rect x="890" y="151" width="31" height="189" rx="5" fill="#7c3aed"/><text x="905.5" y="368" text-anchor="middle" fill="#475569" font-size="14">2018</text><text x="905.5" y="143" text-anchor="middle" fill="#172033" font-size="13" font-weight="700">40,175</text>
</svg>