<svg xmlns="http://www.w3.org/2000/svg" width="1000" height="420" viewBox="0 0 1000 420" role="img" aria-label="Yearly citation mass 2010-2018">
<rect width="100%" height="100%" fill="#ffffff"/>
<text x="32" y="38" fill="#0f172a" font-size="24" font-weight="800">Yearly Citation Mass, 2010-2018</text>
<text x="32" y="60" fill="#64748b" font-size="14">Citation counts among visible selected papers</text>
<line x1="80" y1="340" x2="930" y2="340" stroke="#cbd5e1" stroke-width="2"/>
<rect x="80" y="141" width="82" height="199" rx="5" fill="#7c3aed"/><text x="121.0" y="368" text-anchor="middle" fill="#475569" font-size="14">2010</text><text x="121.0" y="133" text-anchor="middle" fill="#172033" font-size="13" font-weight="700">37,701</text><rect x="176" y="160" width="82" height="180" rx="5" fill="#7c3aed"/><text x="217.0" y="368" text-anchor="middle" fill="#475569" font-size="14">2011</text><text x="217.0" y="152" text-anchor="middle" fill="#172033" font-size="13" font-weight="700">34,084</text><rect x="272" y="145" width="82" height="195" rx="5" fill="#7c3aed"/><text x="313.0" y="368" text-anchor="middle" fill="#475569" font-size="14">2012</text><text x="313.0" y="137" text-anchor="middle" fill="#172033" font-size="13" font-weight="700">37,002</text><rect x="368" y="152" width="82" height="188" rx="5" fill="#7c3aed"/><text x="409.0" y="368" text-anchor="middle" fill="#475569" font-size="14">2013</text><text x="409.0" y="144" text-anchor="middle" fill="#172033" font-size="13" font-weight="700">35,595</text><rect x="464" y="177" width="82" height="163" rx="5" fill="#7c3aed"/><text x="505.0" y="368" text-anchor="middle" fill="#475569" font-size="14">2014</text><text x="505.0" y="169" text-anchor="middle" fill="#172033" font-size="13" font-weight="700">30,999</text><rect x="560" y="70" width="82" height="270" rx="5" fill="#7c3aed"/><text x="601.0" y="368" text-anchor="middle" fill="#475569" font-size="14">2015</text><text x="601.0" y="62" text-anchor="middle" fill="#172033" font-size="13" font-weight="700">51,060</text><rect x="656" y="203" width="82" height="137" rx="5" fill="#7c3aed"/><text x="697.0" y="368" text-anchor="middle" fill="#475569" font-size="14">2016</text><text x="697.0" y="195" text-anchor="middle" fill="#172033" font-size="13" font-weight="700">26,012</text><rect x="752" y="123" width="82" height="217" rx="5" fill="#7c3aed"/><text x="793.0" y="368" text-anchor="middle" fill="#475569" font-size="14">2017</text><text x="793.0" y="115" text-anchor="middle" fill="#172033" font-size="13" font-weight="700">41,195</text><rect x="848" y="128" width="82" height="212" rx="5" fill="#7c3aed"/><text x="889.0" y="368" text-anchor="middle" fill="#475569" font-size="14">2018</text><text x="889.0" y="120" text-anchor="middle" fill="#172033" font-size="13" font-weight="700">40,175</text>
</svg>