<svg xmlns="http://www.w3.org/2000/svg" width="1000" height="420" viewBox="0 0 1000 420" role="img" aria-label="Yearly citation mass 2005-2021">
<rect width="100%" height="100%" fill="#ffffff"/>
<text x="32" y="38" fill="#0f172a" font-size="24" font-weight="800">Yearly Citation Mass, 2005-2021</text>
<text x="32" y="60" fill="#64748b" font-size="14">Citation counts among visible selected papers</text>
<line x1="80" y1="340" x2="930" y2="340" stroke="#cbd5e1" stroke-width="2"/>
<rect x="80" y="70" width="36" height="270" rx="5" fill="#7c3aed"/><text x="98.0" y="368" text-anchor="middle" fill="#475569" font-size="14">2005</text><text x="98.0" y="62" text-anchor="middle" fill="#172033" font-size="13" font-weight="700">41,685</text><rect x="130" y="84" width="36" height="256" rx="5" fill="#7c3aed"/><text x="148.0" y="368" text-anchor="middle" fill="#475569" font-size="14">2006</text><text x="148.0" y="76" text-anchor="middle" fill="#172033" font-size="13" font-weight="700">39,573</text><rect x="180" y="104" width="36" height="236" rx="5" fill="#7c3aed"/><text x="198.0" y="368" text-anchor="middle" fill="#475569" font-size="14">2007</text><text x="198.0" y="96" text-anchor="middle" fill="#172033" font-size="13" font-weight="700">36,545</text><rect x="230" y="92" width="36" height="248" rx="5" fill="#7c3aed"/><text x="248.0" y="368" text-anchor="middle" fill="#475569" font-size="14">2008</text><text x="248.0" y="84" text-anchor="middle" fill="#172033" font-size="13" font-weight="700">38,309</text><rect x="280" y="79" width="36" height="261" rx="5" fill="#7c3aed"/><text x="298.0" y="368" text-anchor="middle" fill="#475569" font-size="14">2009</text><text x="298.0" y="71" text-anchor="middle" fill="#172033" font-size="13" font-weight="700">40,313</text><rect x="330" y="130" width="36" height="210" rx="5" fill="#7c3aed"/><text x="348.0" y="368" text-anchor="middle" fill="#475569" font-size="14">2010</text><text x="348.0" y="122" text-anchor="middle" fill="#172033" font-size="13" font-weight="700">32,551</text><rect x="380" y="138" width="36" height="202" rx="5" fill="#7c3aed"/><text x="398.0" y="368" text-anchor="middle" fill="#475569" font-size="14">2011</text><text x="398.0" y="130" text-anchor="middle" fill="#172033" font-size="13" font-weight="700">31,243</text><rect x="430" y="150" width="36" height="190" rx="5" fill="#7c3aed"/><text x="448.0" y="368" text-anchor="middle" fill="#475569" font-size="14">2012</text><text x="448.0" y="142" text-anchor="middle" fill="#172033" font-size="13" font-weight="700">29,411</text><rect x="480" y="126" width="36" height="214" rx="5" fill="#7c3aed"/><text x="498.0" y="368" text-anchor="middle" fill="#475569" font-size="14">2013</text><text x="498.0" y="118" text-anchor="middle" fill="#172033" font-size="13" font-weight="700">33,132</text><rect x="530" y="158" width="36" height="182" rx="5" fill="#7c3aed"/><text x="548.0" y="368" text-anchor="middle" fill="#475569" font-size="14">2014</text><text x="548.0" y="150" text-anchor="middle" fill="#172033" font-size="13" font-weight="700">28,205</text><rect x="580" y="177" width="36" height="163" rx="5" fill="#7c3aed"/><text x="598.0" y="368" text-anchor="middle" fill="#475569" font-size="14">2015</text><text x="598.0" y="169" text-anchor="middle" fill="#172033" font-size="13" font-weight="700">25,285</text><rect x="630" y="210" width="36" height="130" rx="5" fill="#7c3aed"/><text x="648.0" y="368" text-anchor="middle" fill="#475569" font-size="14">2016</text><text x="648.0" y="202" text-anchor="middle" fill="#172033" font-size="13" font-weight="700">20,081</text><rect x="680" y="143" width="36" height="197" rx="5" fill="#7c3aed"/><text x="698.0" y="368" text-anchor="middle" fill="#475569" font-size="14">2017</text><text x="698.0" y="135" text-anchor="middle" fill="#172033" font-size="13" font-weight="700">30,555</text><rect x="730" y="194" width="36" height="146" rx="5" fill="#7c3aed"/><text x="748.0" y="368" text-anchor="middle" fill="#475569" font-size="14">2018</text><text x="748.0" y="186" text-anchor="middle" fill="#172033" font-size="13" font-weight="700">22,580</text><rect x="780" y="175" width="36" height="165" rx="5" fill="#7c3aed"/><text x="798.0" y="368" text-anchor="middle" fill="#475569" font-size="14">2019</text><text x="798.0" y="167" text-anchor="middle" fill="#172033" font-size="13" font-weight="700">25,570</text><rect x="830" y="104" width="36" height="236" rx="5" fill="#7c3aed"/><text x="848.0" y="368" text-anchor="middle" fill="#475569" font-size="14">2020</text><text x="848.0" y="96" text-anchor="middle" fill="#172033" font-size="13" font-weight="700">36,586</text><rect x="880" y="218" width="36" height="122" rx="5" fill="#7c3aed"/><text x="898.0" y="368" text-anchor="middle" fill="#475569" font-size="14">2021</text><text x="898.0" y="210" text-anchor="middle" fill="#172033" font-size="13" font-weight="700">18,971</text>
</svg>