<svg xmlns="http://www.w3.org/2000/svg" width="1000" height="420" viewBox="0 0 1000 420" role="img" aria-label="Yearly citation mass 2015-2022">
<rect width="100%" height="100%" fill="#ffffff"/>
<text x="32" y="38" fill="#0f172a" font-size="24" font-weight="800">Yearly Citation Mass, 2015-2022</text>
<text x="32" y="60" fill="#64748b" font-size="14">Citation counts among visible selected papers</text>
<line x1="80" y1="340" x2="930" y2="340" stroke="#cbd5e1" stroke-width="2"/>
<rect x="80" y="154" width="94" height="186" rx="5" fill="#7c3aed"/><text x="127.0" y="368" text-anchor="middle" fill="#475569" font-size="14">2015</text><text x="127.0" y="146" text-anchor="middle" fill="#172033" font-size="13" font-weight="700">25,285</text><rect x="188" y="192" width="94" height="148" rx="5" fill="#7c3aed"/><text x="235.0" y="368" text-anchor="middle" fill="#475569" font-size="14">2016</text><text x="235.0" y="184" text-anchor="middle" fill="#172033" font-size="13" font-weight="700">20,081</text><rect x="296" y="115" width="94" height="225" rx="5" fill="#7c3aed"/><text x="343.0" y="368" text-anchor="middle" fill="#475569" font-size="14">2017</text><text x="343.0" y="107" text-anchor="middle" fill="#172033" font-size="13" font-weight="700">30,555</text><rect x="404" y="174" width="94" height="166" rx="5" fill="#7c3aed"/><text x="451.0" y="368" text-anchor="middle" fill="#475569" font-size="14">2018</text><text x="451.0" y="166" text-anchor="middle" fill="#172033" font-size="13" font-weight="700">22,580</text><rect x="512" y="152" width="94" height="188" rx="5" fill="#7c3aed"/><text x="559.0" y="368" text-anchor="middle" fill="#475569" font-size="14">2019</text><text x="559.0" y="144" text-anchor="middle" fill="#172033" font-size="13" font-weight="700">25,570</text><rect x="620" y="70" width="94" height="270" rx="5" fill="#7c3aed"/><text x="667.0" y="368" text-anchor="middle" fill="#475569" font-size="14">2020</text><text x="667.0" y="62" text-anchor="middle" fill="#172033" font-size="13" font-weight="700">36,586</text><rect x="728" y="200" width="94" height="140" rx="5" fill="#7c3aed"/><text x="775.0" y="368" text-anchor="middle" fill="#475569" font-size="14">2021</text><text x="775.0" y="192" text-anchor="middle" fill="#172033" font-size="13" font-weight="700">18,971</text><rect x="836" y="256" width="94" height="84" rx="5" fill="#7c3aed"/><text x="883.0" y="368" text-anchor="middle" fill="#475569" font-size="14">2022</text><text x="883.0" y="248" text-anchor="middle" fill="#172033" font-size="13" font-weight="700">11,479</text>
</svg>