<svg xmlns="http://www.w3.org/2000/svg" width="1000" height="420" viewBox="0 0 1000 420" role="img" aria-label="Yearly citation mass 2010-2019">
<rect width="100%" height="100%" fill="#ffffff"/>
<text x="32" y="38" fill="#0f172a" font-size="24" font-weight="800">Yearly Citation Mass, 2010-2019</text>
<text x="32" y="60" fill="#64748b" font-size="14">Citation counts among visible selected papers</text>
<line x1="80" y1="340" x2="930" y2="340" stroke="#cbd5e1" stroke-width="2"/>
<rect x="80" y="75" width="72" height="265" rx="5" fill="#7c3aed"/><text x="116.0" y="368" text-anchor="middle" fill="#475569" font-size="14">2010</text><text x="116.0" y="67" text-anchor="middle" fill="#172033" font-size="13" font-weight="700">32,551</text><rect x="166" y="86" width="72" height="254" rx="5" fill="#7c3aed"/><text x="202.0" y="368" text-anchor="middle" fill="#475569" font-size="14">2011</text><text x="202.0" y="78" text-anchor="middle" fill="#172033" font-size="13" font-weight="700">31,243</text><rect x="252" y="101" width="72" height="239" rx="5" fill="#7c3aed"/><text x="288.0" y="368" text-anchor="middle" fill="#475569" font-size="14">2012</text><text x="288.0" y="93" text-anchor="middle" fill="#172033" font-size="13" font-weight="700">29,411</text><rect x="338" y="70" width="72" height="270" rx="5" fill="#7c3aed"/><text x="374.0" y="368" text-anchor="middle" fill="#475569" font-size="14">2013</text><text x="374.0" y="62" text-anchor="middle" fill="#172033" font-size="13" font-weight="700">33,132</text><rect x="424" y="111" width="72" height="229" rx="5" fill="#7c3aed"/><text x="460.0" y="368" text-anchor="middle" fill="#475569" font-size="14">2014</text><text x="460.0" y="103" text-anchor="middle" fill="#172033" font-size="13" font-weight="700">28,205</text><rect x="510" y="134" width="72" height="206" rx="5" fill="#7c3aed"/><text x="546.0" y="368" text-anchor="middle" fill="#475569" font-size="14">2015</text><text x="546.0" y="126" text-anchor="middle" fill="#172033" font-size="13" font-weight="700">25,285</text><rect x="596" y="177" width="72" height="163" rx="5" fill="#7c3aed"/><text x="632.0" y="368" text-anchor="middle" fill="#475569" font-size="14">2016</text><text x="632.0" y="169" text-anchor="middle" fill="#172033" font-size="13" font-weight="700">20,081</text><rect x="682" y="92" width="72" height="248" rx="5" fill="#7c3aed"/><text x="718.0" y="368" text-anchor="middle" fill="#475569" font-size="14">2017</text><text x="718.0" y="84" text-anchor="middle" fill="#172033" font-size="13" font-weight="700">30,555</text><rect x="768" y="156" width="72" height="184" rx="5" fill="#7c3aed"/><text x="804.0" y="368" text-anchor="middle" fill="#475569" font-size="14">2018</text><text x="804.0" y="148" text-anchor="middle" fill="#172033" font-size="13" font-weight="700">22,580</text><rect x="854" y="132" width="72" height="208" rx="5" fill="#7c3aed"/><text x="890.0" y="368" text-anchor="middle" fill="#475569" font-size="14">2019</text><text x="890.0" y="124" text-anchor="middle" fill="#172033" font-size="13" font-weight="700">25,570</text>
</svg>