<svg xmlns="http://www.w3.org/2000/svg" width="1000" height="420" viewBox="0 0 1000 420" role="img" aria-label="Yearly citation mass 2000-2015">
<rect width="100%" height="100%" fill="#ffffff"/>
<text x="32" y="38" fill="#0f172a" font-size="24" font-weight="800">Yearly Citation Mass, 2000-2015</text>
<text x="32" y="60" fill="#64748b" font-size="14">Citation counts among visible selected papers</text>
<line x1="80" y1="340" x2="930" y2="340" stroke="#cbd5e1" stroke-width="2"/>
<rect x="80" y="98" width="40" height="242" rx="5" fill="#7c3aed"/><text x="100.0" y="368" text-anchor="middle" fill="#475569" font-size="14">2000</text><text x="100.0" y="90" text-anchor="middle" fill="#172033" font-size="13" font-weight="700">51,577</text><rect x="134" y="70" width="40" height="270" rx="5" fill="#7c3aed"/><text x="154.0" y="368" text-anchor="middle" fill="#475569" font-size="14">2001</text><text x="154.0" y="62" text-anchor="middle" fill="#172033" font-size="13" font-weight="700">57,380</text><rect x="188" y="104" width="40" height="236" rx="5" fill="#7c3aed"/><text x="208.0" y="368" text-anchor="middle" fill="#475569" font-size="14">2002</text><text x="208.0" y="96" text-anchor="middle" fill="#172033" font-size="13" font-weight="700">50,335</text><rect x="242" y="116" width="40" height="224" rx="5" fill="#7c3aed"/><text x="262.0" y="368" text-anchor="middle" fill="#475569" font-size="14">2003</text><text x="262.0" y="108" text-anchor="middle" fill="#172033" font-size="13" font-weight="700">47,719</text><rect x="296" y="106" width="40" height="234" rx="5" fill="#7c3aed"/><text x="316.0" y="368" text-anchor="middle" fill="#475569" font-size="14">2004</text><text x="316.0" y="98" text-anchor="middle" fill="#172033" font-size="13" font-weight="700">49,890</text><rect x="350" y="118" width="40" height="222" rx="5" fill="#7c3aed"/><text x="370.0" y="368" text-anchor="middle" fill="#475569" font-size="14">2005</text><text x="370.0" y="110" text-anchor="middle" fill="#172033" font-size="13" font-weight="700">47,352</text><rect x="404" y="144" width="40" height="196" rx="5" fill="#7c3aed"/><text x="424.0" y="368" text-anchor="middle" fill="#475569" font-size="14">2006</text><text x="424.0" y="136" text-anchor="middle" fill="#172033" font-size="13" font-weight="700">41,836</text><rect x="458" y="157" width="40" height="183" rx="5" fill="#7c3aed"/><text x="478.0" y="368" text-anchor="middle" fill="#475569" font-size="14">2007</text><text x="478.0" y="149" text-anchor="middle" fill="#172033" font-size="13" font-weight="700">38,982</text><rect x="512" y="145" width="40" height="195" rx="5" fill="#7c3aed"/><text x="532.0" y="368" text-anchor="middle" fill="#475569" font-size="14">2008</text><text x="532.0" y="137" text-anchor="middle" fill="#172033" font-size="13" font-weight="700">41,513</text><rect x="566" y="134" width="40" height="206" rx="5" fill="#7c3aed"/><text x="586.0" y="368" text-anchor="middle" fill="#475569" font-size="14">2009</text><text x="586.0" y="126" text-anchor="middle" fill="#172033" font-size="13" font-weight="700">43,953</text><rect x="620" y="163" width="40" height="177" rx="5" fill="#7c3aed"/><text x="640.0" y="368" text-anchor="middle" fill="#475569" font-size="14">2010</text><text x="640.0" y="155" text-anchor="middle" fill="#172033" font-size="13" font-weight="700">37,701</text><rect x="674" y="180" width="40" height="160" rx="5" fill="#7c3aed"/><text x="694.0" y="368" text-anchor="middle" fill="#475569" font-size="14">2011</text><text x="694.0" y="172" text-anchor="middle" fill="#172033" font-size="13" font-weight="700">34,084</text><rect x="728" y="166" width="40" height="174" rx="5" fill="#7c3aed"/><text x="748.0" y="368" text-anchor="middle" fill="#475569" font-size="14">2012</text><text x="748.0" y="158" text-anchor="middle" fill="#172033" font-size="13" font-weight="700">37,002</text><rect x="782" y="173" width="40" height="167" rx="5" fill="#7c3aed"/><text x="802.0" y="368" text-anchor="middle" fill="#475569" font-size="14">2013</text><text x="802.0" y="165" text-anchor="middle" fill="#172033" font-size="13" font-weight="700">35,595</text><rect x="836" y="195" width="40" height="145" rx="5" fill="#7c3aed"/><text x="856.0" y="368" text-anchor="middle" fill="#475569" font-size="14">2014</text><text x="856.0" y="187" text-anchor="middle" fill="#172033" font-size="13" font-weight="700">30,999</text><rect x="890" y="100" width="40" height="240" rx="5" fill="#7c3aed"/><text x="910.0" y="368" text-anchor="middle" fill="#475569" font-size="14">2015</text><text x="910.0" y="92" text-anchor="middle" fill="#172033" font-size="13" font-weight="700">51,060</text>
</svg>