<svg xmlns="http://www.w3.org/2000/svg" width="1000" height="420" viewBox="0 0 1000 420" role="img" aria-label="Yearly citation mass 2004-2015">
<rect width="100%" height="100%" fill="#ffffff"/>
<text x="32" y="38" fill="#0f172a" font-size="24" font-weight="800">Yearly Citation Mass, 2004-2015</text>
<text x="32" y="60" fill="#64748b" font-size="14">Citation counts among visible selected papers</text>
<line x1="80" y1="340" x2="930" y2="340" stroke="#cbd5e1" stroke-width="2"/>
<rect x="80" y="77" width="58" height="263" rx="5" fill="#7c3aed"/><text x="109.0" y="368" text-anchor="middle" fill="#475569" font-size="14">2004</text><text x="109.0" y="69" text-anchor="middle" fill="#172033" font-size="13" font-weight="700">49,890</text><rect x="152" y="90" width="58" height="250" rx="5" fill="#7c3aed"/><text x="181.0" y="368" text-anchor="middle" fill="#475569" font-size="14">2005</text><text x="181.0" y="82" text-anchor="middle" fill="#172033" font-size="13" font-weight="700">47,352</text><rect x="224" y="119" width="58" height="221" rx="5" fill="#7c3aed"/><text x="253.0" y="368" text-anchor="middle" fill="#475569" font-size="14">2006</text><text x="253.0" y="111" text-anchor="middle" fill="#172033" font-size="13" font-weight="700">41,836</text><rect x="296" y="134" width="58" height="206" rx="5" fill="#7c3aed"/><text x="325.0" y="368" text-anchor="middle" fill="#475569" font-size="14">2007</text><text x="325.0" y="126" text-anchor="middle" fill="#172033" font-size="13" font-weight="700">38,982</text><rect x="368" y="121" width="58" height="219" rx="5" fill="#7c3aed"/><text x="397.0" y="368" text-anchor="middle" fill="#475569" font-size="14">2008</text><text x="397.0" y="113" text-anchor="middle" fill="#172033" font-size="13" font-weight="700">41,513</text><rect x="440" y="108" width="58" height="232" rx="5" fill="#7c3aed"/><text x="469.0" y="368" text-anchor="middle" fill="#475569" font-size="14">2009</text><text x="469.0" y="100" text-anchor="middle" fill="#172033" font-size="13" font-weight="700">43,953</text><rect x="512" y="141" width="58" height="199" rx="5" fill="#7c3aed"/><text x="541.0" y="368" text-anchor="middle" fill="#475569" font-size="14">2010</text><text x="541.0" y="133" text-anchor="middle" fill="#172033" font-size="13" font-weight="700">37,701</text><rect x="584" y="160" width="58" height="180" rx="5" fill="#7c3aed"/><text x="613.0" y="368" text-anchor="middle" fill="#475569" font-size="14">2011</text><text x="613.0" y="152" text-anchor="middle" fill="#172033" font-size="13" font-weight="700">34,084</text><rect x="656" y="145" width="58" height="195" rx="5" fill="#7c3aed"/><text x="685.0" y="368" text-anchor="middle" fill="#475569" font-size="14">2012</text><text x="685.0" y="137" text-anchor="middle" fill="#172033" font-size="13" font-weight="700">37,002</text><rect x="728" y="152" width="58" height="188" rx="5" fill="#7c3aed"/><text x="757.0" y="368" text-anchor="middle" fill="#475569" font-size="14">2013</text><text x="757.0" y="144" text-anchor="middle" fill="#172033" font-size="13" font-weight="700">35,595</text><rect x="800" y="177" width="58" height="163" rx="5" fill="#7c3aed"/><text x="829.0" y="368" text-anchor="middle" fill="#475569" font-size="14">2014</text><text x="829.0" y="169" text-anchor="middle" fill="#172033" font-size="13" font-weight="700">30,999</text><rect x="872" y="70" width="58" height="270" rx="5" fill="#7c3aed"/><text x="901.0" y="368" text-anchor="middle" fill="#475569" font-size="14">2015</text><text x="901.0" y="62" text-anchor="middle" fill="#172033" font-size="13" font-weight="700">51,060</text>
</svg>