<svg xmlns="http://www.w3.org/2000/svg" width="1000" height="420" viewBox="0 0 1000 420" role="img" aria-label="Yearly citation mass 2008-2025">
<rect width="100%" height="100%" fill="#ffffff"/>
<text x="32" y="38" fill="#0f172a" font-size="24" font-weight="800">Yearly Citation Mass, 2008-2025</text>
<text x="32" y="60" fill="#64748b" font-size="14">Citation counts among visible selected papers</text>
<line x1="80" y1="340" x2="930" y2="340" stroke="#cbd5e1" stroke-width="2"/>
<rect x="80" y="84" width="34" height="256" rx="5" fill="#7c3aed"/><text x="97.0" y="368" text-anchor="middle" fill="#475569" font-size="14">2008</text><text x="97.0" y="76" text-anchor="middle" fill="#172033" font-size="13" font-weight="700">38,309</text><rect x="128" y="70" width="34" height="270" rx="5" fill="#7c3aed"/><text x="145.0" y="368" text-anchor="middle" fill="#475569" font-size="14">2009</text><text x="145.0" y="62" text-anchor="middle" fill="#172033" font-size="13" font-weight="700">40,313</text><rect x="176" y="122" width="34" height="218" rx="5" fill="#7c3aed"/><text x="193.0" y="368" text-anchor="middle" fill="#475569" font-size="14">2010</text><text x="193.0" y="114" text-anchor="middle" fill="#172033" font-size="13" font-weight="700">32,551</text><rect x="224" y="131" width="34" height="209" rx="5" fill="#7c3aed"/><text x="241.0" y="368" text-anchor="middle" fill="#475569" font-size="14">2011</text><text x="241.0" y="123" text-anchor="middle" fill="#172033" font-size="13" font-weight="700">31,243</text><rect x="272" y="144" width="34" height="196" rx="5" fill="#7c3aed"/><text x="289.0" y="368" text-anchor="middle" fill="#475569" font-size="14">2012</text><text x="289.0" y="136" text-anchor="middle" fill="#172033" font-size="13" font-weight="700">29,411</text><rect x="320" y="119" width="34" height="221" rx="5" fill="#7c3aed"/><text x="337.0" y="368" text-anchor="middle" fill="#475569" font-size="14">2013</text><text x="337.0" y="111" text-anchor="middle" fill="#172033" font-size="13" font-weight="700">33,132</text><rect x="368" y="152" width="34" height="188" rx="5" fill="#7c3aed"/><text x="385.0" y="368" text-anchor="middle" fill="#475569" font-size="14">2014</text><text x="385.0" y="144" text-anchor="middle" fill="#172033" font-size="13" font-weight="700">28,205</text><rect x="416" y="171" width="34" height="169" rx="5" fill="#7c3aed"/><text x="433.0" y="368" text-anchor="middle" fill="#475569" font-size="14">2015</text><text x="433.0" y="163" text-anchor="middle" fill="#172033" font-size="13" font-weight="700">25,285</text><rect x="464" y="206" width="34" height="134" rx="5" fill="#7c3aed"/><text x="481.0" y="368" text-anchor="middle" fill="#475569" font-size="14">2016</text><text x="481.0" y="198" text-anchor="middle" fill="#172033" font-size="13" font-weight="700">20,081</text><rect x="512" y="136" width="34" height="204" rx="5" fill="#7c3aed"/><text x="529.0" y="368" text-anchor="middle" fill="#475569" font-size="14">2017</text><text x="529.0" y="128" text-anchor="middle" fill="#172033" font-size="13" font-weight="700">30,555</text><rect x="560" y="189" width="34" height="151" rx="5" fill="#7c3aed"/><text x="577.0" y="368" text-anchor="middle" fill="#475569" font-size="14">2018</text><text x="577.0" y="181" text-anchor="middle" fill="#172033" font-size="13" font-weight="700">22,580</text><rect x="608" y="169" width="34" height="171" rx="5" fill="#7c3aed"/><text x="625.0" y="368" text-anchor="middle" fill="#475569" font-size="14">2019</text><text x="625.0" y="161" text-anchor="middle" fill="#172033" font-size="13" font-weight="700">25,570</text><rect x="656" y="95" width="34" height="245" rx="5" fill="#7c3aed"/><text x="673.0" y="368" text-anchor="middle" fill="#475569" font-size="14">2020</text><text x="673.0" y="87" text-anchor="middle" fill="#172033" font-size="13" font-weight="700">36,586</text><rect x="704" y="213" width="34" height="127" rx="5" fill="#7c3aed"/><text x="721.0" y="368" text-anchor="middle" fill="#475569" font-size="14">2021</text><text x="721.0" y="205" text-anchor="middle" fill="#172033" font-size="13" font-weight="700">18,971</text><rect x="752" y="264" width="34" height="76" rx="5" fill="#7c3aed"/><text x="769.0" y="368" text-anchor="middle" fill="#475569" font-size="14">2022</text><text x="769.0" y="256" text-anchor="middle" fill="#172033" font-size="13" font-weight="700">11,479</text><rect x="800" y="274" width="34" height="66" rx="5" fill="#7c3aed"/><text x="817.0" y="368" text-anchor="middle" fill="#475569" font-size="14">2023</text><text x="817.0" y="266" text-anchor="middle" fill="#172033" font-size="13" font-weight="700">9,978</text><rect x="848" y="303" width="34" height="37" rx="5" fill="#7c3aed"/><text x="865.0" y="368" text-anchor="middle" fill="#475569" font-size="14">2024</text><text x="865.0" y="295" text-anchor="middle" fill="#172033" font-size="13" font-weight="700">5,525</text><rect x="896" y="324" width="34" height="16" rx="5" fill="#7c3aed"/><text x="913.0" y="368" text-anchor="middle" fill="#475569" font-size="14">2025</text><text x="913.0" y="316" text-anchor="middle" fill="#172033" font-size="13" font-weight="700">2,429</text>
</svg>