<svg xmlns="http://www.w3.org/2000/svg" width="1000" height="420" viewBox="0 0 1000 420" role="img" aria-label="Yearly citation mass 2011-2026">
<rect width="100%" height="100%" fill="#ffffff"/>
<text x="32" y="38" fill="#0f172a" font-size="24" font-weight="800">Yearly Citation Mass, 2011-2026</text>
<text x="32" y="60" fill="#64748b" font-size="14">Citation counts among visible selected papers</text>
<line x1="80" y1="340" x2="930" y2="340" stroke="#cbd5e1" stroke-width="2"/>
<rect x="80" y="160" width="40" height="180" rx="5" fill="#7c3aed"/><text x="100.0" y="368" text-anchor="middle" fill="#475569" font-size="14">2011</text><text x="100.0" y="152" text-anchor="middle" fill="#172033" font-size="13" font-weight="700">34,084</text><rect x="134" y="145" width="40" height="195" rx="5" fill="#7c3aed"/><text x="154.0" y="368" text-anchor="middle" fill="#475569" font-size="14">2012</text><text x="154.0" y="137" text-anchor="middle" fill="#172033" font-size="13" font-weight="700">37,002</text><rect x="188" y="152" width="40" height="188" rx="5" fill="#7c3aed"/><text x="208.0" y="368" text-anchor="middle" fill="#475569" font-size="14">2013</text><text x="208.0" y="144" text-anchor="middle" fill="#172033" font-size="13" font-weight="700">35,595</text><rect x="242" y="177" width="40" height="163" rx="5" fill="#7c3aed"/><text x="262.0" y="368" text-anchor="middle" fill="#475569" font-size="14">2014</text><text x="262.0" y="169" text-anchor="middle" fill="#172033" font-size="13" font-weight="700">30,999</text><rect x="296" y="70" width="40" height="270" rx="5" fill="#7c3aed"/><text x="316.0" y="368" text-anchor="middle" fill="#475569" font-size="14">2015</text><text x="316.0" y="62" text-anchor="middle" fill="#172033" font-size="13" font-weight="700">51,060</text><rect x="350" y="203" width="40" height="137" rx="5" fill="#7c3aed"/><text x="370.0" y="368" text-anchor="middle" fill="#475569" font-size="14">2016</text><text x="370.0" y="195" text-anchor="middle" fill="#172033" font-size="13" font-weight="700">26,012</text><rect x="404" y="123" width="40" height="217" rx="5" fill="#7c3aed"/><text x="424.0" y="368" text-anchor="middle" fill="#475569" font-size="14">2017</text><text x="424.0" y="115" text-anchor="middle" fill="#172033" font-size="13" font-weight="700">41,195</text><rect x="458" y="128" width="40" height="212" rx="5" fill="#7c3aed"/><text x="478.0" y="368" text-anchor="middle" fill="#475569" font-size="14">2018</text><text x="478.0" y="120" text-anchor="middle" fill="#172033" font-size="13" font-weight="700">40,175</text><rect x="512" y="109" width="40" height="231" rx="5" fill="#7c3aed"/><text x="532.0" y="368" text-anchor="middle" fill="#475569" font-size="14">2019</text><text x="532.0" y="101" text-anchor="middle" fill="#172033" font-size="13" font-weight="700">43,754</text><rect x="566" y="109" width="40" height="231" rx="5" fill="#7c3aed"/><text x="586.0" y="368" text-anchor="middle" fill="#475569" font-size="14">2020</text><text x="586.0" y="101" text-anchor="middle" fill="#172033" font-size="13" font-weight="700">43,869</text><rect x="620" y="188" width="40" height="152" rx="5" fill="#7c3aed"/><text x="640.0" y="368" text-anchor="middle" fill="#475569" font-size="14">2021</text><text x="640.0" y="180" text-anchor="middle" fill="#172033" font-size="13" font-weight="700">28,778</text><rect x="674" y="236" width="40" height="104" rx="5" fill="#7c3aed"/><text x="694.0" y="368" text-anchor="middle" fill="#475569" font-size="14">2022</text><text x="694.0" y="228" text-anchor="middle" fill="#172033" font-size="13" font-weight="700">19,723</text><rect x="728" y="206" width="40" height="134" rx="5" fill="#7c3aed"/><text x="748.0" y="368" text-anchor="middle" fill="#475569" font-size="14">2023</text><text x="748.0" y="198" text-anchor="middle" fill="#172033" font-size="13" font-weight="700">25,444</text><rect x="782" y="285" width="40" height="55" rx="5" fill="#7c3aed"/><text x="802.0" y="368" text-anchor="middle" fill="#475569" font-size="14">2024</text><text x="802.0" y="277" text-anchor="middle" fill="#172033" font-size="13" font-weight="700">10,492</text><rect x="836" y="311" width="40" height="29" rx="5" fill="#7c3aed"/><text x="856.0" y="368" text-anchor="middle" fill="#475569" font-size="14">2025</text><text x="856.0" y="303" text-anchor="middle" fill="#172033" font-size="13" font-weight="700">5,571</text><rect x="890" y="337" width="40" height="3" rx="5" fill="#7c3aed"/><text x="910.0" y="368" text-anchor="middle" fill="#475569" font-size="14">2026</text><text x="910.0" y="329" text-anchor="middle" fill="#172033" font-size="13" font-weight="700">713</text>
</svg>