<svg xmlns="http://www.w3.org/2000/svg" width="1000" height="420" viewBox="0 0 1000 420" role="img" aria-label="Yearly citation mass 2003-2025">
<rect width="100%" height="100%" fill="#ffffff"/>
<text x="32" y="38" fill="#0f172a" font-size="24" font-weight="800">Yearly Citation Mass, 2003-2025</text>
<text x="32" y="60" fill="#64748b" font-size="14">Citation counts among visible selected papers</text>
<line x1="80" y1="340" x2="930" y2="340" stroke="#cbd5e1" stroke-width="2"/>
<rect x="80" y="88" width="24" height="252" rx="5" fill="#7c3aed"/><text x="92.0" y="368" text-anchor="middle" fill="#475569" font-size="14">2003</text><text x="92.0" y="80" text-anchor="middle" fill="#172033" font-size="13" font-weight="700">47,719</text><rect x="118" y="77" width="24" height="263" rx="5" fill="#7c3aed"/><text x="130.0" y="368" text-anchor="middle" fill="#475569" font-size="14">2004</text><text x="130.0" y="69" text-anchor="middle" fill="#172033" font-size="13" font-weight="700">49,890</text><rect x="156" y="90" width="24" height="250" rx="5" fill="#7c3aed"/><text x="168.0" y="368" text-anchor="middle" fill="#475569" font-size="14">2005</text><text x="168.0" y="82" text-anchor="middle" fill="#172033" font-size="13" font-weight="700">47,352</text><rect x="194" y="119" width="24" height="221" rx="5" fill="#7c3aed"/><text x="206.0" y="368" text-anchor="middle" fill="#475569" font-size="14">2006</text><text x="206.0" y="111" text-anchor="middle" fill="#172033" font-size="13" font-weight="700">41,836</text><rect x="232" y="134" width="24" height="206" rx="5" fill="#7c3aed"/><text x="244.0" y="368" text-anchor="middle" fill="#475569" font-size="14">2007</text><text x="244.0" y="126" text-anchor="middle" fill="#172033" font-size="13" font-weight="700">38,982</text><rect x="270" y="121" width="24" height="219" rx="5" fill="#7c3aed"/><text x="282.0" y="368" text-anchor="middle" fill="#475569" font-size="14">2008</text><text x="282.0" y="113" text-anchor="middle" fill="#172033" font-size="13" font-weight="700">41,513</text><rect x="308" y="108" width="24" height="232" rx="5" fill="#7c3aed"/><text x="320.0" y="368" text-anchor="middle" fill="#475569" font-size="14">2009</text><text x="320.0" y="100" text-anchor="middle" fill="#172033" font-size="13" font-weight="700">43,953</text><rect x="346" y="141" width="24" height="199" rx="5" fill="#7c3aed"/><text x="358.0" y="368" text-anchor="middle" fill="#475569" font-size="14">2010</text><text x="358.0" y="133" text-anchor="middle" fill="#172033" font-size="13" font-weight="700">37,701</text><rect x="384" y="160" width="24" height="180" rx="5" fill="#7c3aed"/><text x="396.0" y="368" text-anchor="middle" fill="#475569" font-size="14">2011</text><text x="396.0" y="152" text-anchor="middle" fill="#172033" font-size="13" font-weight="700">34,084</text><rect x="422" y="145" width="24" height="195" rx="5" fill="#7c3aed"/><text x="434.0" y="368" text-anchor="middle" fill="#475569" font-size="14">2012</text><text x="434.0" y="137" text-anchor="middle" fill="#172033" font-size="13" font-weight="700">37,002</text><rect x="460" y="152" width="24" height="188" rx="5" fill="#7c3aed"/><text x="472.0" y="368" text-anchor="middle" fill="#475569" font-size="14">2013</text><text x="472.0" y="144" text-anchor="middle" fill="#172033" font-size="13" font-weight="700">35,595</text><rect x="498" y="177" width="24" height="163" rx="5" fill="#7c3aed"/><text x="510.0" y="368" text-anchor="middle" fill="#475569" font-size="14">2014</text><text x="510.0" y="169" text-anchor="middle" fill="#172033" font-size="13" font-weight="700">30,999</text><rect x="536" y="70" width="24" height="270" rx="5" fill="#7c3aed"/><text x="548.0" y="368" text-anchor="middle" fill="#475569" font-size="14">2015</text><text x="548.0" y="62" text-anchor="middle" fill="#172033" font-size="13" font-weight="700">51,060</text><rect x="574" y="203" width="24" height="137" rx="5" fill="#7c3aed"/><text x="586.0" y="368" text-anchor="middle" fill="#475569" font-size="14">2016</text><text x="586.0" y="195" text-anchor="middle" fill="#172033" font-size="13" font-weight="700">26,012</text><rect x="612" y="123" width="24" height="217" rx="5" fill="#7c3aed"/><text x="624.0" y="368" text-anchor="middle" fill="#475569" font-size="14">2017</text><text x="624.0" y="115" text-anchor="middle" fill="#172033" font-size="13" font-weight="700">41,195</text><rect x="650" y="128" width="24" height="212" rx="5" fill="#7c3aed"/><text x="662.0" y="368" text-anchor="middle" fill="#475569" font-size="14">2018</text><text x="662.0" y="120" text-anchor="middle" fill="#172033" font-size="13" font-weight="700">40,175</text><rect x="688" y="109" width="24" height="231" rx="5" fill="#7c3aed"/><text x="700.0" y="368" text-anchor="middle" fill="#475569" font-size="14">2019</text><text x="700.0" y="101" text-anchor="middle" fill="#172033" font-size="13" font-weight="700">43,754</text><rect x="726" y="109" width="24" height="231" rx="5" fill="#7c3aed"/><text x="738.0" y="368" text-anchor="middle" fill="#475569" font-size="14">2020</text><text x="738.0" y="101" text-anchor="middle" fill="#172033" font-size="13" font-weight="700">43,869</text><rect x="764" y="188" width="24" height="152" rx="5" fill="#7c3aed"/><text x="776.0" y="368" text-anchor="middle" fill="#475569" font-size="14">2021</text><text x="776.0" y="180" text-anchor="middle" fill="#172033" font-size="13" font-weight="700">28,778</text><rect x="802" y="236" width="24" height="104" rx="5" fill="#7c3aed"/><text x="814.0" y="368" text-anchor="middle" fill="#475569" font-size="14">2022</text><text x="814.0" y="228" text-anchor="middle" fill="#172033" font-size="13" font-weight="700">19,723</text><rect x="840" y="206" width="24" height="134" rx="5" fill="#7c3aed"/><text x="852.0" y="368" text-anchor="middle" fill="#475569" font-size="14">2023</text><text x="852.0" y="198" text-anchor="middle" fill="#172033" font-size="13" font-weight="700">25,444</text><rect x="878" y="285" width="24" height="55" rx="5" fill="#7c3aed"/><text x="890.0" y="368" text-anchor="middle" fill="#475569" font-size="14">2024</text><text x="890.0" y="277" text-anchor="middle" fill="#172033" font-size="13" font-weight="700">10,492</text><rect x="916" y="311" width="24" height="29" rx="5" fill="#7c3aed"/><text x="928.0" y="368" text-anchor="middle" fill="#475569" font-size="14">2025</text><text x="928.0" y="303" text-anchor="middle" fill="#172033" font-size="13" font-weight="700">5,571</text>
</svg>