<svg xmlns="http://www.w3.org/2000/svg" width="1000" height="420" viewBox="0 0 1000 420" role="img" aria-label="Yearly citation mass 2001-2020">
<rect width="100%" height="100%" fill="#ffffff"/>
<text x="32" y="38" fill="#0f172a" font-size="24" font-weight="800">Yearly Citation Mass, 2001-2020</text>
<text x="32" y="60" fill="#64748b" font-size="14">Citation counts among visible selected papers</text>
<line x1="80" y1="340" x2="930" y2="340" stroke="#cbd5e1" stroke-width="2"/>
<rect x="80" y="70" width="29" height="270" rx="5" fill="#7c3aed"/><text x="94.5" y="368" text-anchor="middle" fill="#475569" font-size="14">2001</text><text x="94.5" y="62" text-anchor="middle" fill="#172033" font-size="13" font-weight="700">57,380</text><rect x="123" y="104" width="29" height="236" rx="5" fill="#7c3aed"/><text x="137.5" y="368" text-anchor="middle" fill="#475569" font-size="14">2002</text><text x="137.5" y="96" text-anchor="middle" fill="#172033" font-size="13" font-weight="700">50,335</text><rect x="166" y="116" width="29" height="224" rx="5" fill="#7c3aed"/><text x="180.5" y="368" text-anchor="middle" fill="#475569" font-size="14">2003</text><text x="180.5" y="108" text-anchor="middle" fill="#172033" font-size="13" font-weight="700">47,719</text><rect x="209" y="106" width="29" height="234" rx="5" fill="#7c3aed"/><text x="223.5" y="368" text-anchor="middle" fill="#475569" font-size="14">2004</text><text x="223.5" y="98" text-anchor="middle" fill="#172033" font-size="13" font-weight="700">49,890</text><rect x="252" y="118" width="29" height="222" rx="5" fill="#7c3aed"/><text x="266.5" y="368" text-anchor="middle" fill="#475569" font-size="14">2005</text><text x="266.5" y="110" text-anchor="middle" fill="#172033" font-size="13" font-weight="700">47,352</text><rect x="295" y="144" width="29" height="196" rx="5" fill="#7c3aed"/><text x="309.5" y="368" text-anchor="middle" fill="#475569" font-size="14">2006</text><text x="309.5" y="136" text-anchor="middle" fill="#172033" font-size="13" font-weight="700">41,836</text><rect x="338" y="157" width="29" height="183" rx="5" fill="#7c3aed"/><text x="352.5" y="368" text-anchor="middle" fill="#475569" font-size="14">2007</text><text x="352.5" y="149" text-anchor="middle" fill="#172033" font-size="13" font-weight="700">38,982</text><rect x="381" y="145" width="29" height="195" rx="5" fill="#7c3aed"/><text x="395.5" y="368" text-anchor="middle" fill="#475569" font-size="14">2008</text><text x="395.5" y="137" text-anchor="middle" fill="#172033" font-size="13" font-weight="700">41,513</text><rect x="424" y="134" width="29" height="206" rx="5" fill="#7c3aed"/><text x="438.5" y="368" text-anchor="middle" fill="#475569" font-size="14">2009</text><text x="438.5" y="126" text-anchor="middle" fill="#172033" font-size="13" font-weight="700">43,953</text><rect x="467" y="163" width="29" height="177" rx="5" fill="#7c3aed"/><text x="481.5" y="368" text-anchor="middle" fill="#475569" font-size="14">2010</text><text x="481.5" y="155" text-anchor="middle" fill="#172033" font-size="13" font-weight="700">37,701</text><rect x="510" y="180" width="29" height="160" rx="5" fill="#7c3aed"/><text x="524.5" y="368" text-anchor="middle" fill="#475569" font-size="14">2011</text><text x="524.5" y="172" text-anchor="middle" fill="#172033" font-size="13" font-weight="700">34,084</text><rect x="553" y="166" width="29" height="174" rx="5" fill="#7c3aed"/><text x="567.5" y="368" text-anchor="middle" fill="#475569" font-size="14">2012</text><text x="567.5" y="158" text-anchor="middle" fill="#172033" font-size="13" font-weight="700">37,002</text><rect x="596" y="173" width="29" height="167" rx="5" fill="#7c3aed"/><text x="610.5" y="368" text-anchor="middle" fill="#475569" font-size="14">2013</text><text x="610.5" y="165" text-anchor="middle" fill="#172033" font-size="13" font-weight="700">35,595</text><rect x="639" y="195" width="29" height="145" rx="5" fill="#7c3aed"/><text x="653.5" y="368" text-anchor="middle" fill="#475569" font-size="14">2014</text><text x="653.5" y="187" text-anchor="middle" fill="#172033" font-size="13" font-weight="700">30,999</text><rect x="682" y="100" width="29" height="240" rx="5" fill="#7c3aed"/><text x="696.5" y="368" text-anchor="middle" fill="#475569" font-size="14">2015</text><text x="696.5" y="92" text-anchor="middle" fill="#172033" font-size="13" font-weight="700">51,060</text><rect x="725" y="218" width="29" height="122" rx="5" fill="#7c3aed"/><text x="739.5" y="368" text-anchor="middle" fill="#475569" font-size="14">2016</text><text x="739.5" y="210" text-anchor="middle" fill="#172033" font-size="13" font-weight="700">26,012</text><rect x="768" y="147" width="29" height="193" rx="5" fill="#7c3aed"/><text x="782.5" y="368" text-anchor="middle" fill="#475569" font-size="14">2017</text><text x="782.5" y="139" text-anchor="middle" fill="#172033" font-size="13" font-weight="700">41,195</text><rect x="811" y="151" width="29" height="189" rx="5" fill="#7c3aed"/><text x="825.5" y="368" text-anchor="middle" fill="#475569" font-size="14">2018</text><text x="825.5" y="143" text-anchor="middle" fill="#172033" font-size="13" font-weight="700">40,175</text><rect x="854" y="135" width="29" height="205" rx="5" fill="#7c3aed"/><text x="868.5" y="368" text-anchor="middle" fill="#475569" font-size="14">2019</text><text x="868.5" y="127" text-anchor="middle" fill="#172033" font-size="13" font-weight="700">43,754</text><rect x="897" y="134" width="29" height="206" rx="5" fill="#7c3aed"/><text x="911.5" y="368" text-anchor="middle" fill="#475569" font-size="14">2020</text><text x="911.5" y="126" text-anchor="middle" fill="#172033" font-size="13" font-weight="700">43,869</text>
</svg>