<svg xmlns="http://www.w3.org/2000/svg" width="1000" height="420" viewBox="0 0 1000 420" role="img" aria-label="Yearly citation mass 2010-2017">
<rect width="100%" height="100%" fill="#ffffff"/>
<text x="32" y="38" fill="#0f172a" font-size="24" font-weight="800">Yearly Citation Mass, 2010-2017</text>
<text x="32" y="60" fill="#64748b" font-size="14">Citation counts among visible selected papers</text>
<line x1="80" y1="340" x2="930" y2="340" stroke="#cbd5e1" stroke-width="2"/>
<rect x="80" y="75" width="94" height="265" rx="5" fill="#7c3aed"/><text x="127.0" y="368" text-anchor="middle" fill="#475569" font-size="14">2010</text><text x="127.0" y="67" text-anchor="middle" fill="#172033" font-size="13" font-weight="700">32,551</text><rect x="188" y="86" width="94" height="254" rx="5" fill="#7c3aed"/><text x="235.0" y="368" text-anchor="middle" fill="#475569" font-size="14">2011</text><text x="235.0" y="78" text-anchor="middle" fill="#172033" font-size="13" font-weight="700">31,243</text><rect x="296" y="101" width="94" height="239" rx="5" fill="#7c3aed"/><text x="343.0" y="368" text-anchor="middle" fill="#475569" font-size="14">2012</text><text x="343.0" y="93" text-anchor="middle" fill="#172033" font-size="13" font-weight="700">29,411</text><rect x="404" y="70" width="94" height="270" rx="5" fill="#7c3aed"/><text x="451.0" y="368" text-anchor="middle" fill="#475569" font-size="14">2013</text><text x="451.0" y="62" text-anchor="middle" fill="#172033" font-size="13" font-weight="700">33,132</text><rect x="512" y="111" width="94" height="229" rx="5" fill="#7c3aed"/><text x="559.0" y="368" text-anchor="middle" fill="#475569" font-size="14">2014</text><text x="559.0" y="103" text-anchor="middle" fill="#172033" font-size="13" font-weight="700">28,205</text><rect x="620" y="134" width="94" height="206" rx="5" fill="#7c3aed"/><text x="667.0" y="368" text-anchor="middle" fill="#475569" font-size="14">2015</text><text x="667.0" y="126" text-anchor="middle" fill="#172033" font-size="13" font-weight="700">25,285</text><rect x="728" y="177" width="94" height="163" rx="5" fill="#7c3aed"/><text x="775.0" y="368" text-anchor="middle" fill="#475569" font-size="14">2016</text><text x="775.0" y="169" text-anchor="middle" fill="#172033" font-size="13" font-weight="700">20,081</text><rect x="836" y="92" width="94" height="248" rx="5" fill="#7c3aed"/><text x="883.0" y="368" text-anchor="middle" fill="#475569" font-size="14">2017</text><text x="883.0" y="84" text-anchor="middle" fill="#172033" font-size="13" font-weight="700">30,555</text>
</svg>