<svg xmlns="http://www.w3.org/2000/svg" width="1000" height="420" viewBox="0 0 1000 420" role="img" aria-label="Yearly citation mass 2008-2015">
<rect width="100%" height="100%" fill="#ffffff"/>
<text x="32" y="38" fill="#0f172a" font-size="24" font-weight="800">Yearly Citation Mass, 2008-2015</text>
<text x="32" y="60" fill="#64748b" font-size="14">Citation counts among visible selected papers</text>
<line x1="80" y1="340" x2="930" y2="340" stroke="#cbd5e1" stroke-width="2"/>
<rect x="80" y="84" width="94" height="256" rx="5" fill="#7c3aed"/><text x="127.0" y="368" text-anchor="middle" fill="#475569" font-size="14">2008</text><text x="127.0" y="76" text-anchor="middle" fill="#172033" font-size="13" font-weight="700">38,309</text><rect x="188" y="70" width="94" height="270" rx="5" fill="#7c3aed"/><text x="235.0" y="368" text-anchor="middle" fill="#475569" font-size="14">2009</text><text x="235.0" y="62" text-anchor="middle" fill="#172033" font-size="13" font-weight="700">40,313</text><rect x="296" y="122" width="94" height="218" rx="5" fill="#7c3aed"/><text x="343.0" y="368" text-anchor="middle" fill="#475569" font-size="14">2010</text><text x="343.0" y="114" text-anchor="middle" fill="#172033" font-size="13" font-weight="700">32,551</text><rect x="404" y="131" width="94" height="209" rx="5" fill="#7c3aed"/><text x="451.0" y="368" text-anchor="middle" fill="#475569" font-size="14">2011</text><text x="451.0" y="123" text-anchor="middle" fill="#172033" font-size="13" font-weight="700">31,243</text><rect x="512" y="144" width="94" height="196" rx="5" fill="#7c3aed"/><text x="559.0" y="368" text-anchor="middle" fill="#475569" font-size="14">2012</text><text x="559.0" y="136" text-anchor="middle" fill="#172033" font-size="13" font-weight="700">29,411</text><rect x="620" y="119" width="94" height="221" rx="5" fill="#7c3aed"/><text x="667.0" y="368" text-anchor="middle" fill="#475569" font-size="14">2013</text><text x="667.0" y="111" text-anchor="middle" fill="#172033" font-size="13" font-weight="700">33,132</text><rect x="728" y="152" width="94" height="188" rx="5" fill="#7c3aed"/><text x="775.0" y="368" text-anchor="middle" fill="#475569" font-size="14">2014</text><text x="775.0" y="144" text-anchor="middle" fill="#172033" font-size="13" font-weight="700">28,205</text><rect x="836" y="171" width="94" height="169" rx="5" fill="#7c3aed"/><text x="883.0" y="368" text-anchor="middle" fill="#475569" font-size="14">2015</text><text x="883.0" y="163" text-anchor="middle" fill="#172033" font-size="13" font-weight="700">25,285</text>
</svg>