<svg xmlns="http://www.w3.org/2000/svg" width="1000" height="420" viewBox="0 0 1000 420" role="img" aria-label="Yearly citation mass 2010-2024">
<rect width="100%" height="100%" fill="#ffffff"/>
<text x="32" y="38" fill="#0f172a" font-size="24" font-weight="800">Yearly Citation Mass, 2010-2024</text>
<text x="32" y="60" fill="#64748b" font-size="14">Citation counts among visible selected papers</text>
<line x1="80" y1="340" x2="930" y2="340" stroke="#cbd5e1" stroke-width="2"/>
<rect x="80" y="141" width="43" height="199" rx="5" fill="#7c3aed"/><text x="101.5" y="368" text-anchor="middle" fill="#475569" font-size="14">2010</text><text x="101.5" y="133" text-anchor="middle" fill="#172033" font-size="13" font-weight="700">37,701</text><rect x="137" y="160" width="43" height="180" rx="5" fill="#7c3aed"/><text x="158.5" y="368" text-anchor="middle" fill="#475569" font-size="14">2011</text><text x="158.5" y="152" text-anchor="middle" fill="#172033" font-size="13" font-weight="700">34,084</text><rect x="194" y="145" width="43" height="195" rx="5" fill="#7c3aed"/><text x="215.5" y="368" text-anchor="middle" fill="#475569" font-size="14">2012</text><text x="215.5" y="137" text-anchor="middle" fill="#172033" font-size="13" font-weight="700">37,002</text><rect x="251" y="152" width="43" height="188" rx="5" fill="#7c3aed"/><text x="272.5" y="368" text-anchor="middle" fill="#475569" font-size="14">2013</text><text x="272.5" y="144" text-anchor="middle" fill="#172033" font-size="13" font-weight="700">35,595</text><rect x="308" y="177" width="43" height="163" rx="5" fill="#7c3aed"/><text x="329.5" y="368" text-anchor="middle" fill="#475569" font-size="14">2014</text><text x="329.5" y="169" text-anchor="middle" fill="#172033" font-size="13" font-weight="700">30,999</text><rect x="365" y="70" width="43" height="270" rx="5" fill="#7c3aed"/><text x="386.5" y="368" text-anchor="middle" fill="#475569" font-size="14">2015</text><text x="386.5" y="62" text-anchor="middle" fill="#172033" font-size="13" font-weight="700">51,060</text><rect x="422" y="203" width="43" height="137" rx="5" fill="#7c3aed"/><text x="443.5" y="368" text-anchor="middle" fill="#475569" font-size="14">2016</text><text x="443.5" y="195" text-anchor="middle" fill="#172033" font-size="13" font-weight="700">26,012</text><rect x="479" y="123" width="43" height="217" rx="5" fill="#7c3aed"/><text x="500.5" y="368" text-anchor="middle" fill="#475569" font-size="14">2017</text><text x="500.5" y="115" text-anchor="middle" fill="#172033" font-size="13" font-weight="700">41,195</text><rect x="536" y="128" width="43" height="212" rx="5" fill="#7c3aed"/><text x="557.5" y="368" text-anchor="middle" fill="#475569" font-size="14">2018</text><text x="557.5" y="120" text-anchor="middle" fill="#172033" font-size="13" font-weight="700">40,175</text><rect x="593" y="109" width="43" height="231" rx="5" fill="#7c3aed"/><text x="614.5" y="368" text-anchor="middle" fill="#475569" font-size="14">2019</text><text x="614.5" y="101" text-anchor="middle" fill="#172033" font-size="13" font-weight="700">43,754</text><rect x="650" y="109" width="43" height="231" rx="5" fill="#7c3aed"/><text x="671.5" y="368" text-anchor="middle" fill="#475569" font-size="14">2020</text><text x="671.5" y="101" text-anchor="middle" fill="#172033" font-size="13" font-weight="700">43,869</text><rect x="707" y="188" width="43" height="152" rx="5" fill="#7c3aed"/><text x="728.5" y="368" text-anchor="middle" fill="#475569" font-size="14">2021</text><text x="728.5" y="180" text-anchor="middle" fill="#172033" font-size="13" font-weight="700">28,778</text><rect x="764" y="236" width="43" height="104" rx="5" fill="#7c3aed"/><text x="785.5" y="368" text-anchor="middle" fill="#475569" font-size="14">2022</text><text x="785.5" y="228" text-anchor="middle" fill="#172033" font-size="13" font-weight="700">19,723</text><rect x="821" y="206" width="43" height="134" rx="5" fill="#7c3aed"/><text x="842.5" y="368" text-anchor="middle" fill="#475569" font-size="14">2023</text><text x="842.5" y="198" text-anchor="middle" fill="#172033" font-size="13" font-weight="700">25,444</text><rect x="878" y="285" width="43" height="55" rx="5" fill="#7c3aed"/><text x="899.5" y="368" text-anchor="middle" fill="#475569" font-size="14">2024</text><text x="899.5" y="277" text-anchor="middle" fill="#172033" font-size="13" font-weight="700">10,492</text>
</svg>