<svg xmlns="http://www.w3.org/2000/svg" width="1000" height="420" viewBox="0 0 1000 420" role="img" aria-label="Yearly citation mass 2004-2022">
<rect width="100%" height="100%" fill="#ffffff"/>
<text x="32" y="38" fill="#0f172a" font-size="24" font-weight="800">Yearly Citation Mass, 2004-2022</text>
<text x="32" y="60" fill="#64748b" font-size="14">Citation counts among visible selected papers</text>
<line x1="80" y1="340" x2="930" y2="340" stroke="#cbd5e1" stroke-width="2"/>
<rect x="80" y="77" width="31" height="263" rx="5" fill="#7c3aed"/><text x="95.5" y="368" text-anchor="middle" fill="#475569" font-size="14">2004</text><text x="95.5" y="69" text-anchor="middle" fill="#172033" font-size="13" font-weight="700">49,890</text><rect x="125" y="90" width="31" height="250" rx="5" fill="#7c3aed"/><text x="140.5" y="368" text-anchor="middle" fill="#475569" font-size="14">2005</text><text x="140.5" y="82" text-anchor="middle" fill="#172033" font-size="13" font-weight="700">47,352</text><rect x="170" y="119" width="31" height="221" rx="5" fill="#7c3aed"/><text x="185.5" y="368" text-anchor="middle" fill="#475569" font-size="14">2006</text><text x="185.5" y="111" text-anchor="middle" fill="#172033" font-size="13" font-weight="700">41,836</text><rect x="215" y="134" width="31" height="206" rx="5" fill="#7c3aed"/><text x="230.5" y="368" text-anchor="middle" fill="#475569" font-size="14">2007</text><text x="230.5" y="126" text-anchor="middle" fill="#172033" font-size="13" font-weight="700">38,982</text><rect x="260" y="121" width="31" height="219" rx="5" fill="#7c3aed"/><text x="275.5" y="368" text-anchor="middle" fill="#475569" font-size="14">2008</text><text x="275.5" y="113" text-anchor="middle" fill="#172033" font-size="13" font-weight="700">41,513</text><rect x="305" y="108" width="31" height="232" rx="5" fill="#7c3aed"/><text x="320.5" y="368" text-anchor="middle" fill="#475569" font-size="14">2009</text><text x="320.5" y="100" text-anchor="middle" fill="#172033" font-size="13" font-weight="700">43,953</text><rect x="350" y="141" width="31" height="199" rx="5" fill="#7c3aed"/><text x="365.5" y="368" text-anchor="middle" fill="#475569" font-size="14">2010</text><text x="365.5" y="133" text-anchor="middle" fill="#172033" font-size="13" font-weight="700">37,701</text><rect x="395" y="160" width="31" height="180" rx="5" fill="#7c3aed"/><text x="410.5" y="368" text-anchor="middle" fill="#475569" font-size="14">2011</text><text x="410.5" y="152" text-anchor="middle" fill="#172033" font-size="13" font-weight="700">34,084</text><rect x="440" y="145" width="31" height="195" rx="5" fill="#7c3aed"/><text x="455.5" y="368" text-anchor="middle" fill="#475569" font-size="14">2012</text><text x="455.5" y="137" text-anchor="middle" fill="#172033" font-size="13" font-weight="700">37,002</text><rect x="485" y="152" width="31" height="188" rx="5" fill="#7c3aed"/><text x="500.5" y="368" text-anchor="middle" fill="#475569" font-size="14">2013</text><text x="500.5" y="144" text-anchor="middle" fill="#172033" font-size="13" font-weight="700">35,595</text><rect x="530" y="177" width="31" height="163" rx="5" fill="#7c3aed"/><text x="545.5" y="368" text-anchor="middle" fill="#475569" font-size="14">2014</text><text x="545.5" y="169" text-anchor="middle" fill="#172033" font-size="13" font-weight="700">30,999</text><rect x="575" y="70" width="31" height="270" rx="5" fill="#7c3aed"/><text x="590.5" y="368" text-anchor="middle" fill="#475569" font-size="14">2015</text><text x="590.5" y="62" text-anchor="middle" fill="#172033" font-size="13" font-weight="700">51,060</text><rect x="620" y="203" width="31" height="137" rx="5" fill="#7c3aed"/><text x="635.5" y="368" text-anchor="middle" fill="#475569" font-size="14">2016</text><text x="635.5" y="195" text-anchor="middle" fill="#172033" font-size="13" font-weight="700">26,012</text><rect x="665" y="123" width="31" height="217" rx="5" fill="#7c3aed"/><text x="680.5" y="368" text-anchor="middle" fill="#475569" font-size="14">2017</text><text x="680.5" y="115" text-anchor="middle" fill="#172033" font-size="13" font-weight="700">41,195</text><rect x="710" y="128" width="31" height="212" rx="5" fill="#7c3aed"/><text x="725.5" y="368" text-anchor="middle" fill="#475569" font-size="14">2018</text><text x="725.5" y="120" text-anchor="middle" fill="#172033" font-size="13" font-weight="700">40,175</text><rect x="755" y="109" width="31" height="231" rx="5" fill="#7c3aed"/><text x="770.5" y="368" text-anchor="middle" fill="#475569" font-size="14">2019</text><text x="770.5" y="101" text-anchor="middle" fill="#172033" font-size="13" font-weight="700">43,754</text><rect x="800" y="109" width="31" height="231" rx="5" fill="#7c3aed"/><text x="815.5" y="368" text-anchor="middle" fill="#475569" font-size="14">2020</text><text x="815.5" y="101" text-anchor="middle" fill="#172033" font-size="13" font-weight="700">43,869</text><rect x="845" y="188" width="31" height="152" rx="5" fill="#7c3aed"/><text x="860.5" y="368" text-anchor="middle" fill="#475569" font-size="14">2021</text><text x="860.5" y="180" text-anchor="middle" fill="#172033" font-size="13" font-weight="700">28,778</text><rect x="890" y="236" width="31" height="104" rx="5" fill="#7c3aed"/><text x="905.5" y="368" text-anchor="middle" fill="#475569" font-size="14">2022</text><text x="905.5" y="228" text-anchor="middle" fill="#172033" font-size="13" font-weight="700">19,723</text>
</svg>