<svg xmlns="http://www.w3.org/2000/svg" width="1000" height="420" viewBox="0 0 1000 420" role="img" aria-label="Yearly citation mass 2004-2010">
<rect width="100%" height="100%" fill="#ffffff"/>
<text x="32" y="38" fill="#0f172a" font-size="24" font-weight="800">Yearly Citation Mass, 2004-2010</text>
<text x="32" y="60" fill="#64748b" font-size="14">Citation counts among visible selected papers</text>
<line x1="80" y1="340" x2="930" y2="340" stroke="#cbd5e1" stroke-width="2"/>
<rect x="80" y="70" width="109" height="270" rx="5" fill="#7c3aed"/><text x="134.5" y="368" text-anchor="middle" fill="#475569" font-size="14">2004</text><text x="134.5" y="62" text-anchor="middle" fill="#172033" font-size="13" font-weight="700">49,890</text><rect x="203" y="84" width="109" height="256" rx="5" fill="#7c3aed"/><text x="257.5" y="368" text-anchor="middle" fill="#475569" font-size="14">2005</text><text x="257.5" y="76" text-anchor="middle" fill="#172033" font-size="13" font-weight="700">47,352</text><rect x="326" y="114" width="109" height="226" rx="5" fill="#7c3aed"/><text x="380.5" y="368" text-anchor="middle" fill="#475569" font-size="14">2006</text><text x="380.5" y="106" text-anchor="middle" fill="#172033" font-size="13" font-weight="700">41,836</text><rect x="449" y="130" width="109" height="210" rx="5" fill="#7c3aed"/><text x="503.5" y="368" text-anchor="middle" fill="#475569" font-size="14">2007</text><text x="503.5" y="122" text-anchor="middle" fill="#172033" font-size="13" font-weight="700">38,982</text><rect x="572" y="116" width="109" height="224" rx="5" fill="#7c3aed"/><text x="626.5" y="368" text-anchor="middle" fill="#475569" font-size="14">2008</text><text x="626.5" y="108" text-anchor="middle" fill="#172033" font-size="13" font-weight="700">41,513</text><rect x="695" y="103" width="109" height="237" rx="5" fill="#7c3aed"/><text x="749.5" y="368" text-anchor="middle" fill="#475569" font-size="14">2009</text><text x="749.5" y="95" text-anchor="middle" fill="#172033" font-size="13" font-weight="700">43,953</text><rect x="818" y="136" width="109" height="204" rx="5" fill="#7c3aed"/><text x="872.5" y="368" text-anchor="middle" fill="#475569" font-size="14">2010</text><text x="872.5" y="128" text-anchor="middle" fill="#172033" font-size="13" font-weight="700">37,701</text>
</svg>