<svg xmlns="http://www.w3.org/2000/svg" width="1000" height="420" viewBox="0 0 1000 420" role="img" aria-label="Yearly citation mass 2002-2010">
<rect width="100%" height="100%" fill="#ffffff"/>
<text x="32" y="38" fill="#0f172a" font-size="24" font-weight="800">Yearly Citation Mass, 2002-2010</text>
<text x="32" y="60" fill="#64748b" font-size="14">Citation counts among visible selected papers</text>
<line x1="80" y1="340" x2="930" y2="340" stroke="#cbd5e1" stroke-width="2"/>
<rect x="80" y="70" width="82" height="270" rx="5" fill="#7c3aed"/><text x="121.0" y="368" text-anchor="middle" fill="#475569" font-size="14">2002</text><text x="121.0" y="62" text-anchor="middle" fill="#172033" font-size="13" font-weight="700">50,335</text><rect x="176" y="85" width="82" height="255" rx="5" fill="#7c3aed"/><text x="217.0" y="368" text-anchor="middle" fill="#475569" font-size="14">2003</text><text x="217.0" y="77" text-anchor="middle" fill="#172033" font-size="13" font-weight="700">47,719</text><rect x="272" y="73" width="82" height="267" rx="5" fill="#7c3aed"/><text x="313.0" y="368" text-anchor="middle" fill="#475569" font-size="14">2004</text><text x="313.0" y="65" text-anchor="middle" fill="#172033" font-size="13" font-weight="700">49,890</text><rect x="368" y="87" width="82" height="253" rx="5" fill="#7c3aed"/><text x="409.0" y="368" text-anchor="middle" fill="#475569" font-size="14">2005</text><text x="409.0" y="79" text-anchor="middle" fill="#172033" font-size="13" font-weight="700">47,352</text><rect x="464" y="116" width="82" height="224" rx="5" fill="#7c3aed"/><text x="505.0" y="368" text-anchor="middle" fill="#475569" font-size="14">2006</text><text x="505.0" y="108" text-anchor="middle" fill="#172033" font-size="13" font-weight="700">41,836</text><rect x="560" y="131" width="82" height="209" rx="5" fill="#7c3aed"/><text x="601.0" y="368" text-anchor="middle" fill="#475569" font-size="14">2007</text><text x="601.0" y="123" text-anchor="middle" fill="#172033" font-size="13" font-weight="700">38,982</text><rect x="656" y="118" width="82" height="222" rx="5" fill="#7c3aed"/><text x="697.0" y="368" text-anchor="middle" fill="#475569" font-size="14">2008</text><text x="697.0" y="110" text-anchor="middle" fill="#172033" font-size="13" font-weight="700">41,513</text><rect x="752" y="105" width="82" height="235" rx="5" fill="#7c3aed"/><text x="793.0" y="368" text-anchor="middle" fill="#475569" font-size="14">2009</text><text x="793.0" y="97" text-anchor="middle" fill="#172033" font-size="13" font-weight="700">43,953</text><rect x="848" y="138" width="82" height="202" rx="5" fill="#7c3aed"/><text x="889.0" y="368" text-anchor="middle" fill="#475569" font-size="14">2010</text><text x="889.0" y="130" text-anchor="middle" fill="#172033" font-size="13" font-weight="700">37,701</text>
</svg>