<svg xmlns="http://www.w3.org/2000/svg" width="1000" height="420" viewBox="0 0 1000 420" role="img" aria-label="Yearly citation mass 2010-2018">
<rect width="100%" height="100%" fill="#ffffff"/>
<text x="32" y="38" fill="#0f172a" font-size="24" font-weight="800">Yearly Citation Mass, 2010-2018</text>
<text x="32" y="60" fill="#64748b" font-size="14">Citation counts among visible selected papers</text>
<line x1="80" y1="340" x2="930" y2="340" stroke="#cbd5e1" stroke-width="2"/>
<rect x="80" y="75" width="82" height="265" rx="5" fill="#7c3aed"/><text x="121.0" y="368" text-anchor="middle" fill="#475569" font-size="14">2010</text><text x="121.0" y="67" text-anchor="middle" fill="#172033" font-size="13" font-weight="700">32,551</text><rect x="176" y="86" width="82" height="254" rx="5" fill="#7c3aed"/><text x="217.0" y="368" text-anchor="middle" fill="#475569" font-size="14">2011</text><text x="217.0" y="78" text-anchor="middle" fill="#172033" font-size="13" font-weight="700">31,243</text><rect x="272" y="101" width="82" height="239" rx="5" fill="#7c3aed"/><text x="313.0" y="368" text-anchor="middle" fill="#475569" font-size="14">2012</text><text x="313.0" y="93" text-anchor="middle" fill="#172033" font-size="13" font-weight="700">29,411</text><rect x="368" y="70" width="82" height="270" rx="5" fill="#7c3aed"/><text x="409.0" y="368" text-anchor="middle" fill="#475569" font-size="14">2013</text><text x="409.0" y="62" text-anchor="middle" fill="#172033" font-size="13" font-weight="700">33,132</text><rect x="464" y="111" width="82" height="229" rx="5" fill="#7c3aed"/><text x="505.0" y="368" text-anchor="middle" fill="#475569" font-size="14">2014</text><text x="505.0" y="103" text-anchor="middle" fill="#172033" font-size="13" font-weight="700">28,205</text><rect x="560" y="134" width="82" height="206" rx="5" fill="#7c3aed"/><text x="601.0" y="368" text-anchor="middle" fill="#475569" font-size="14">2015</text><text x="601.0" y="126" text-anchor="middle" fill="#172033" font-size="13" font-weight="700">25,285</text><rect x="656" y="177" width="82" height="163" rx="5" fill="#7c3aed"/><text x="697.0" y="368" text-anchor="middle" fill="#475569" font-size="14">2016</text><text x="697.0" y="169" text-anchor="middle" fill="#172033" font-size="13" font-weight="700">20,081</text><rect x="752" y="92" width="82" height="248" rx="5" fill="#7c3aed"/><text x="793.0" y="368" text-anchor="middle" fill="#475569" font-size="14">2017</text><text x="793.0" y="84" text-anchor="middle" fill="#172033" font-size="13" font-weight="700">30,555</text><rect x="848" y="156" width="82" height="184" rx="5" fill="#7c3aed"/><text x="889.0" y="368" text-anchor="middle" fill="#475569" font-size="14">2018</text><text x="889.0" y="148" text-anchor="middle" fill="#172033" font-size="13" font-weight="700">22,580</text>
</svg>