<svg xmlns="http://www.w3.org/2000/svg" width="1000" height="420" viewBox="0 0 1000 420" role="img" aria-label="Yearly citation mass 2016-2026">
<rect width="100%" height="100%" fill="#ffffff"/>
<text x="32" y="38" fill="#0f172a" font-size="24" font-weight="800">Yearly Citation Mass, 2016-2026</text>
<text x="32" y="60" fill="#64748b" font-size="14">Citation counts among visible selected papers</text>
<line x1="80" y1="340" x2="930" y2="340" stroke="#cbd5e1" stroke-width="2"/>
<rect x="80" y="180" width="64" height="160" rx="5" fill="#7c3aed"/><text x="112.0" y="368" text-anchor="middle" fill="#475569" font-size="14">2016</text><text x="112.0" y="172" text-anchor="middle" fill="#172033" font-size="13" font-weight="700">26,012</text><rect x="158" y="87" width="64" height="253" rx="5" fill="#7c3aed"/><text x="190.0" y="368" text-anchor="middle" fill="#475569" font-size="14">2017</text><text x="190.0" y="79" text-anchor="middle" fill="#172033" font-size="13" font-weight="700">41,195</text><rect x="236" y="93" width="64" height="247" rx="5" fill="#7c3aed"/><text x="268.0" y="368" text-anchor="middle" fill="#475569" font-size="14">2018</text><text x="268.0" y="85" text-anchor="middle" fill="#172033" font-size="13" font-weight="700">40,175</text><rect x="314" y="71" width="64" height="269" rx="5" fill="#7c3aed"/><text x="346.0" y="368" text-anchor="middle" fill="#475569" font-size="14">2019</text><text x="346.0" y="63" text-anchor="middle" fill="#172033" font-size="13" font-weight="700">43,754</text><rect x="392" y="70" width="64" height="270" rx="5" fill="#7c3aed"/><text x="424.0" y="368" text-anchor="middle" fill="#475569" font-size="14">2020</text><text x="424.0" y="62" text-anchor="middle" fill="#172033" font-size="13" font-weight="700">43,869</text><rect x="470" y="163" width="64" height="177" rx="5" fill="#7c3aed"/><text x="502.0" y="368" text-anchor="middle" fill="#475569" font-size="14">2021</text><text x="502.0" y="155" text-anchor="middle" fill="#172033" font-size="13" font-weight="700">28,778</text><rect x="548" y="219" width="64" height="121" rx="5" fill="#7c3aed"/><text x="580.0" y="368" text-anchor="middle" fill="#475569" font-size="14">2022</text><text x="580.0" y="211" text-anchor="middle" fill="#172033" font-size="13" font-weight="700">19,723</text><rect x="626" y="184" width="64" height="156" rx="5" fill="#7c3aed"/><text x="658.0" y="368" text-anchor="middle" fill="#475569" font-size="14">2023</text><text x="658.0" y="176" text-anchor="middle" fill="#172033" font-size="13" font-weight="700">25,444</text><rect x="704" y="276" width="64" height="64" rx="5" fill="#7c3aed"/><text x="736.0" y="368" text-anchor="middle" fill="#475569" font-size="14">2024</text><text x="736.0" y="268" text-anchor="middle" fill="#172033" font-size="13" font-weight="700">10,492</text><rect x="782" y="306" width="64" height="34" rx="5" fill="#7c3aed"/><text x="814.0" y="368" text-anchor="middle" fill="#475569" font-size="14">2025</text><text x="814.0" y="298" text-anchor="middle" fill="#172033" font-size="13" font-weight="700">5,571</text><rect x="860" y="336" width="64" height="4" rx="5" fill="#7c3aed"/><text x="892.0" y="368" text-anchor="middle" fill="#475569" font-size="14">2026</text><text x="892.0" y="328" text-anchor="middle" fill="#172033" font-size="13" font-weight="700">713</text>
</svg>