<svg xmlns="http://www.w3.org/2000/svg" width="1000" height="420" viewBox="0 0 1000 420" role="img" aria-label="Yearly citation mass 2007-2026">
<rect width="100%" height="100%" fill="#ffffff"/>
<text x="32" y="38" fill="#0f172a" font-size="24" font-weight="800">Yearly Citation Mass, 2007-2026</text>
<text x="32" y="60" fill="#64748b" font-size="14">Citation counts among visible selected papers</text>
<line x1="80" y1="340" x2="930" y2="340" stroke="#cbd5e1" stroke-width="2"/>
<rect x="80" y="134" width="29" height="206" rx="5" fill="#7c3aed"/><text x="94.5" y="368" text-anchor="middle" fill="#475569" font-size="14">2007</text><text x="94.5" y="126" text-anchor="middle" fill="#172033" font-size="13" font-weight="700">38,982</text><rect x="123" y="121" width="29" height="219" rx="5" fill="#7c3aed"/><text x="137.5" y="368" text-anchor="middle" fill="#475569" font-size="14">2008</text><text x="137.5" y="113" text-anchor="middle" fill="#172033" font-size="13" font-weight="700">41,513</text><rect x="166" y="108" width="29" height="232" rx="5" fill="#7c3aed"/><text x="180.5" y="368" text-anchor="middle" fill="#475569" font-size="14">2009</text><text x="180.5" y="100" text-anchor="middle" fill="#172033" font-size="13" font-weight="700">43,953</text><rect x="209" y="141" width="29" height="199" rx="5" fill="#7c3aed"/><text x="223.5" y="368" text-anchor="middle" fill="#475569" font-size="14">2010</text><text x="223.5" y="133" text-anchor="middle" fill="#172033" font-size="13" font-weight="700">37,701</text><rect x="252" y="160" width="29" height="180" rx="5" fill="#7c3aed"/><text x="266.5" y="368" text-anchor="middle" fill="#475569" font-size="14">2011</text><text x="266.5" y="152" text-anchor="middle" fill="#172033" font-size="13" font-weight="700">34,084</text><rect x="295" y="145" width="29" height="195" rx="5" fill="#7c3aed"/><text x="309.5" y="368" text-anchor="middle" fill="#475569" font-size="14">2012</text><text x="309.5" y="137" text-anchor="middle" fill="#172033" font-size="13" font-weight="700">37,002</text><rect x="338" y="152" width="29" height="188" rx="5" fill="#7c3aed"/><text x="352.5" y="368" text-anchor="middle" fill="#475569" font-size="14">2013</text><text x="352.5" y="144" text-anchor="middle" fill="#172033" font-size="13" font-weight="700">35,595</text><rect x="381" y="177" width="29" height="163" rx="5" fill="#7c3aed"/><text x="395.5" y="368" text-anchor="middle" fill="#475569" font-size="14">2014</text><text x="395.5" y="169" text-anchor="middle" fill="#172033" font-size="13" font-weight="700">30,999</text><rect x="424" y="70" width="29" height="270" rx="5" fill="#7c3aed"/><text x="438.5" y="368" text-anchor="middle" fill="#475569" font-size="14">2015</text><text x="438.5" y="62" text-anchor="middle" fill="#172033" font-size="13" font-weight="700">51,060</text><rect x="467" y="203" width="29" height="137" rx="5" fill="#7c3aed"/><text x="481.5" y="368" text-anchor="middle" fill="#475569" font-size="14">2016</text><text x="481.5" y="195" text-anchor="middle" fill="#172033" font-size="13" font-weight="700">26,012</text><rect x="510" y="123" width="29" height="217" rx="5" fill="#7c3aed"/><text x="524.5" y="368" text-anchor="middle" fill="#475569" font-size="14">2017</text><text x="524.5" y="115" text-anchor="middle" fill="#172033" font-size="13" font-weight="700">41,195</text><rect x="553" y="128" width="29" height="212" rx="5" fill="#7c3aed"/><text x="567.5" y="368" text-anchor="middle" fill="#475569" font-size="14">2018</text><text x="567.5" y="120" text-anchor="middle" fill="#172033" font-size="13" font-weight="700">40,175</text><rect x="596" y="109" width="29" height="231" rx="5" fill="#7c3aed"/><text x="610.5" y="368" text-anchor="middle" fill="#475569" font-size="14">2019</text><text x="610.5" y="101" text-anchor="middle" fill="#172033" font-size="13" font-weight="700">43,754</text><rect x="639" y="109" width="29" height="231" rx="5" fill="#7c3aed"/><text x="653.5" y="368" text-anchor="middle" fill="#475569" font-size="14">2020</text><text x="653.5" y="101" text-anchor="middle" fill="#172033" font-size="13" font-weight="700">43,869</text><rect x="682" y="188" width="29" height="152" rx="5" fill="#7c3aed"/><text x="696.5" y="368" text-anchor="middle" fill="#475569" font-size="14">2021</text><text x="696.5" y="180" text-anchor="middle" fill="#172033" font-size="13" font-weight="700">28,778</text><rect x="725" y="236" width="29" height="104" rx="5" fill="#7c3aed"/><text x="739.5" y="368" text-anchor="middle" fill="#475569" font-size="14">2022</text><text x="739.5" y="228" text-anchor="middle" fill="#172033" font-size="13" font-weight="700">19,723</text><rect x="768" y="206" width="29" height="134" rx="5" fill="#7c3aed"/><text x="782.5" y="368" text-anchor="middle" fill="#475569" font-size="14">2023</text><text x="782.5" y="198" text-anchor="middle" fill="#172033" font-size="13" font-weight="700">25,444</text><rect x="811" y="285" width="29" height="55" rx="5" fill="#7c3aed"/><text x="825.5" y="368" text-anchor="middle" fill="#475569" font-size="14">2024</text><text x="825.5" y="277" text-anchor="middle" fill="#172033" font-size="13" font-weight="700">10,492</text><rect x="854" y="311" width="29" height="29" rx="5" fill="#7c3aed"/><text x="868.5" y="368" text-anchor="middle" fill="#475569" font-size="14">2025</text><text x="868.5" y="303" text-anchor="middle" fill="#172033" font-size="13" font-weight="700">5,571</text><rect x="897" y="337" width="29" height="3" rx="5" fill="#7c3aed"/><text x="911.5" y="368" text-anchor="middle" fill="#475569" font-size="14">2026</text><text x="911.5" y="329" text-anchor="middle" fill="#172033" font-size="13" font-weight="700">713</text>
</svg>