<svg xmlns="http://www.w3.org/2000/svg" width="1000" height="420" viewBox="0 0 1000 420" role="img" aria-label="Yearly citation mass 2007-2013">
<rect width="100%" height="100%" fill="#ffffff"/>
<text x="32" y="38" fill="#0f172a" font-size="24" font-weight="800">Yearly Citation Mass, 2007-2013</text>
<text x="32" y="60" fill="#64748b" font-size="14">Citation counts among visible selected papers</text>
<line x1="80" y1="340" x2="930" y2="340" stroke="#cbd5e1" stroke-width="2"/>
<rect x="80" y="101" width="109" height="239" rx="5" fill="#7c3aed"/><text x="134.5" y="368" text-anchor="middle" fill="#475569" font-size="14">2007</text><text x="134.5" y="93" text-anchor="middle" fill="#172033" font-size="13" font-weight="700">38,982</text><rect x="203" y="85" width="109" height="255" rx="5" fill="#7c3aed"/><text x="257.5" y="368" text-anchor="middle" fill="#475569" font-size="14">2008</text><text x="257.5" y="77" text-anchor="middle" fill="#172033" font-size="13" font-weight="700">41,513</text><rect x="326" y="70" width="109" height="270" rx="5" fill="#7c3aed"/><text x="380.5" y="368" text-anchor="middle" fill="#475569" font-size="14">2009</text><text x="380.5" y="62" text-anchor="middle" fill="#172033" font-size="13" font-weight="700">43,953</text><rect x="449" y="109" width="109" height="231" rx="5" fill="#7c3aed"/><text x="503.5" y="368" text-anchor="middle" fill="#475569" font-size="14">2010</text><text x="503.5" y="101" text-anchor="middle" fill="#172033" font-size="13" font-weight="700">37,701</text><rect x="572" y="131" width="109" height="209" rx="5" fill="#7c3aed"/><text x="626.5" y="368" text-anchor="middle" fill="#475569" font-size="14">2011</text><text x="626.5" y="123" text-anchor="middle" fill="#172033" font-size="13" font-weight="700">34,084</text><rect x="695" y="113" width="109" height="227" rx="5" fill="#7c3aed"/><text x="749.5" y="368" text-anchor="middle" fill="#475569" font-size="14">2012</text><text x="749.5" y="105" text-anchor="middle" fill="#172033" font-size="13" font-weight="700">37,002</text><rect x="818" y="122" width="109" height="218" rx="5" fill="#7c3aed"/><text x="872.5" y="368" text-anchor="middle" fill="#475569" font-size="14">2013</text><text x="872.5" y="114" text-anchor="middle" fill="#172033" font-size="13" font-weight="700">35,595</text>
</svg>