<svg xmlns="http://www.w3.org/2000/svg" width="1000" height="420" viewBox="0 0 1000 420" role="img" aria-label="Yearly citation mass 2001-2014">
<rect width="100%" height="100%" fill="#ffffff"/>
<text x="32" y="38" fill="#0f172a" font-size="24" font-weight="800">Yearly Citation Mass, 2001-2014</text>
<text x="32" y="60" fill="#64748b" font-size="14">Citation counts among visible selected papers</text>
<line x1="80" y1="340" x2="930" y2="340" stroke="#cbd5e1" stroke-width="2"/>
<rect x="80" y="70" width="47" height="270" rx="5" fill="#7c3aed"/><text x="103.5" y="368" text-anchor="middle" fill="#475569" font-size="14">2001</text><text x="103.5" y="62" text-anchor="middle" fill="#172033" font-size="13" font-weight="700">57,380</text><rect x="141" y="104" width="47" height="236" rx="5" fill="#7c3aed"/><text x="164.5" y="368" text-anchor="middle" fill="#475569" font-size="14">2002</text><text x="164.5" y="96" text-anchor="middle" fill="#172033" font-size="13" font-weight="700">50,335</text><rect x="202" y="116" width="47" height="224" rx="5" fill="#7c3aed"/><text x="225.5" y="368" text-anchor="middle" fill="#475569" font-size="14">2003</text><text x="225.5" y="108" text-anchor="middle" fill="#172033" font-size="13" font-weight="700">47,719</text><rect x="263" y="106" width="47" height="234" rx="5" fill="#7c3aed"/><text x="286.5" y="368" text-anchor="middle" fill="#475569" font-size="14">2004</text><text x="286.5" y="98" text-anchor="middle" fill="#172033" font-size="13" font-weight="700">49,890</text><rect x="324" y="118" width="47" height="222" rx="5" fill="#7c3aed"/><text x="347.5" y="368" text-anchor="middle" fill="#475569" font-size="14">2005</text><text x="347.5" y="110" text-anchor="middle" fill="#172033" font-size="13" font-weight="700">47,352</text><rect x="385" y="144" width="47" height="196" rx="5" fill="#7c3aed"/><text x="408.5" y="368" text-anchor="middle" fill="#475569" font-size="14">2006</text><text x="408.5" y="136" text-anchor="middle" fill="#172033" font-size="13" font-weight="700">41,836</text><rect x="446" y="157" width="47" height="183" rx="5" fill="#7c3aed"/><text x="469.5" y="368" text-anchor="middle" fill="#475569" font-size="14">2007</text><text x="469.5" y="149" text-anchor="middle" fill="#172033" font-size="13" font-weight="700">38,982</text><rect x="507" y="145" width="47" height="195" rx="5" fill="#7c3aed"/><text x="530.5" y="368" text-anchor="middle" fill="#475569" font-size="14">2008</text><text x="530.5" y="137" text-anchor="middle" fill="#172033" font-size="13" font-weight="700">41,513</text><rect x="568" y="134" width="47" height="206" rx="5" fill="#7c3aed"/><text x="591.5" y="368" text-anchor="middle" fill="#475569" font-size="14">2009</text><text x="591.5" y="126" text-anchor="middle" fill="#172033" font-size="13" font-weight="700">43,953</text><rect x="629" y="163" width="47" height="177" rx="5" fill="#7c3aed"/><text x="652.5" y="368" text-anchor="middle" fill="#475569" font-size="14">2010</text><text x="652.5" y="155" text-anchor="middle" fill="#172033" font-size="13" font-weight="700">37,701</text><rect x="690" y="180" width="47" height="160" rx="5" fill="#7c3aed"/><text x="713.5" y="368" text-anchor="middle" fill="#475569" font-size="14">2011</text><text x="713.5" y="172" text-anchor="middle" fill="#172033" font-size="13" font-weight="700">34,084</text><rect x="751" y="166" width="47" height="174" rx="5" fill="#7c3aed"/><text x="774.5" y="368" text-anchor="middle" fill="#475569" font-size="14">2012</text><text x="774.5" y="158" text-anchor="middle" fill="#172033" font-size="13" font-weight="700">37,002</text><rect x="812" y="173" width="47" height="167" rx="5" fill="#7c3aed"/><text x="835.5" y="368" text-anchor="middle" fill="#475569" font-size="14">2013</text><text x="835.5" y="165" text-anchor="middle" fill="#172033" font-size="13" font-weight="700">35,595</text><rect x="873" y="195" width="47" height="145" rx="5" fill="#7c3aed"/><text x="896.5" y="368" text-anchor="middle" fill="#475569" font-size="14">2014</text><text x="896.5" y="187" text-anchor="middle" fill="#172033" font-size="13" font-weight="700">30,999</text>
</svg>