<svg xmlns="http://www.w3.org/2000/svg" width="1000" height="420" viewBox="0 0 1000 420" role="img" aria-label="Yearly citation mass 2000-2013">
<rect width="100%" height="100%" fill="#ffffff"/>
<text x="32" y="38" fill="#0f172a" font-size="24" font-weight="800">Yearly Citation Mass, 2000-2013</text>
<text x="32" y="60" fill="#64748b" font-size="14">Citation counts among visible selected papers</text>
<line x1="80" y1="340" x2="930" y2="340" stroke="#cbd5e1" stroke-width="2"/>
<rect x="80" y="85" width="47" height="255" rx="5" fill="#7c3aed"/><text x="103.5" y="368" text-anchor="middle" fill="#475569" font-size="14">2000</text><text x="103.5" y="77" text-anchor="middle" fill="#172033" font-size="13" font-weight="700">50,901</text><rect x="141" y="70" width="47" height="270" rx="5" fill="#7c3aed"/><text x="164.5" y="368" text-anchor="middle" fill="#475569" font-size="14">2001</text><text x="164.5" y="62" text-anchor="middle" fill="#172033" font-size="13" font-weight="700">53,778</text><rect x="202" y="128" width="47" height="212" rx="5" fill="#7c3aed"/><text x="225.5" y="368" text-anchor="middle" fill="#475569" font-size="14">2002</text><text x="225.5" y="120" text-anchor="middle" fill="#172033" font-size="13" font-weight="700">42,298</text><rect x="263" y="139" width="47" height="201" rx="5" fill="#7c3aed"/><text x="286.5" y="368" text-anchor="middle" fill="#475569" font-size="14">2003</text><text x="286.5" y="131" text-anchor="middle" fill="#172033" font-size="13" font-weight="700">40,138</text><rect x="324" y="128" width="47" height="212" rx="5" fill="#7c3aed"/><text x="347.5" y="368" text-anchor="middle" fill="#475569" font-size="14">2004</text><text x="347.5" y="120" text-anchor="middle" fill="#172033" font-size="13" font-weight="700">42,252</text><rect x="385" y="131" width="47" height="209" rx="5" fill="#7c3aed"/><text x="408.5" y="368" text-anchor="middle" fill="#475569" font-size="14">2005</text><text x="408.5" y="123" text-anchor="middle" fill="#172033" font-size="13" font-weight="700">41,685</text><rect x="446" y="142" width="47" height="198" rx="5" fill="#7c3aed"/><text x="469.5" y="368" text-anchor="middle" fill="#475569" font-size="14">2006</text><text x="469.5" y="134" text-anchor="middle" fill="#172033" font-size="13" font-weight="700">39,573</text><rect x="507" y="157" width="47" height="183" rx="5" fill="#7c3aed"/><text x="530.5" y="368" text-anchor="middle" fill="#475569" font-size="14">2007</text><text x="530.5" y="149" text-anchor="middle" fill="#172033" font-size="13" font-weight="700">36,545</text><rect x="568" y="148" width="47" height="192" rx="5" fill="#7c3aed"/><text x="591.5" y="368" text-anchor="middle" fill="#475569" font-size="14">2008</text><text x="591.5" y="140" text-anchor="middle" fill="#172033" font-size="13" font-weight="700">38,309</text><rect x="629" y="138" width="47" height="202" rx="5" fill="#7c3aed"/><text x="652.5" y="368" text-anchor="middle" fill="#475569" font-size="14">2009</text><text x="652.5" y="130" text-anchor="middle" fill="#172033" font-size="13" font-weight="700">40,313</text><rect x="690" y="177" width="47" height="163" rx="5" fill="#7c3aed"/><text x="713.5" y="368" text-anchor="middle" fill="#475569" font-size="14">2010</text><text x="713.5" y="169" text-anchor="middle" fill="#172033" font-size="13" font-weight="700">32,551</text><rect x="751" y="184" width="47" height="156" rx="5" fill="#7c3aed"/><text x="774.5" y="368" text-anchor="middle" fill="#475569" font-size="14">2011</text><text x="774.5" y="176" text-anchor="middle" fill="#172033" font-size="13" font-weight="700">31,243</text><rect x="812" y="193" width="47" height="147" rx="5" fill="#7c3aed"/><text x="835.5" y="368" text-anchor="middle" fill="#475569" font-size="14">2012</text><text x="835.5" y="185" text-anchor="middle" fill="#172033" font-size="13" font-weight="700">29,411</text><rect x="873" y="174" width="47" height="166" rx="5" fill="#7c3aed"/><text x="896.5" y="368" text-anchor="middle" fill="#475569" font-size="14">2013</text><text x="896.5" y="166" text-anchor="middle" fill="#172033" font-size="13" font-weight="700">33,132</text>
</svg>