<svg xmlns="http://www.w3.org/2000/svg" width="1000" height="420" viewBox="0 0 1000 420" role="img" aria-label="Yearly citation mass 2003-2008">
<rect width="100%" height="100%" fill="#ffffff"/>
<text x="32" y="38" fill="#0f172a" font-size="24" font-weight="800">Yearly Citation Mass, 2003-2008</text>
<text x="32" y="60" fill="#64748b" font-size="14">Citation counts among visible selected papers</text>
<line x1="80" y1="340" x2="930" y2="340" stroke="#cbd5e1" stroke-width="2"/>
<rect x="80" y="84" width="130" height="256" rx="5" fill="#7c3aed"/><text x="145.0" y="368" text-anchor="middle" fill="#475569" font-size="14">2003</text><text x="145.0" y="76" text-anchor="middle" fill="#172033" font-size="13" font-weight="700">40,138</text><rect x="224" y="70" width="130" height="270" rx="5" fill="#7c3aed"/><text x="289.0" y="368" text-anchor="middle" fill="#475569" font-size="14">2004</text><text x="289.0" y="62" text-anchor="middle" fill="#172033" font-size="13" font-weight="700">42,252</text><rect x="368" y="74" width="130" height="266" rx="5" fill="#7c3aed"/><text x="433.0" y="368" text-anchor="middle" fill="#475569" font-size="14">2005</text><text x="433.0" y="66" text-anchor="middle" fill="#172033" font-size="13" font-weight="700">41,685</text><rect x="512" y="88" width="130" height="252" rx="5" fill="#7c3aed"/><text x="577.0" y="368" text-anchor="middle" fill="#475569" font-size="14">2006</text><text x="577.0" y="80" text-anchor="middle" fill="#172033" font-size="13" font-weight="700">39,573</text><rect x="656" y="107" width="130" height="233" rx="5" fill="#7c3aed"/><text x="721.0" y="368" text-anchor="middle" fill="#475569" font-size="14">2007</text><text x="721.0" y="99" text-anchor="middle" fill="#172033" font-size="13" font-weight="700">36,545</text><rect x="800" y="96" width="130" height="244" rx="5" fill="#7c3aed"/><text x="865.0" y="368" text-anchor="middle" fill="#475569" font-size="14">2008</text><text x="865.0" y="88" text-anchor="middle" fill="#172033" font-size="13" font-weight="700">38,309</text>
</svg>