<svg xmlns="http://www.w3.org/2000/svg" width="1000" height="420" viewBox="0 0 1000 420" role="img" aria-label="Yearly citation mass 2001-2011">
<rect width="100%" height="100%" fill="#ffffff"/>
<text x="32" y="38" fill="#0f172a" font-size="24" font-weight="800">Yearly Citation Mass, 2001-2011</text>
<text x="32" y="60" fill="#64748b" font-size="14">Citation counts among visible selected papers</text>
<line x1="80" y1="340" x2="930" y2="340" stroke="#cbd5e1" stroke-width="2"/>
<rect x="80" y="70" width="64" height="270" rx="5" fill="#7c3aed"/><text x="112.0" y="368" text-anchor="middle" fill="#475569" font-size="14">2001</text><text x="112.0" y="62" text-anchor="middle" fill="#172033" font-size="13" font-weight="700">57,380</text><rect x="158" y="104" width="64" height="236" rx="5" fill="#7c3aed"/><text x="190.0" y="368" text-anchor="middle" fill="#475569" font-size="14">2002</text><text x="190.0" y="96" text-anchor="middle" fill="#172033" font-size="13" font-weight="700">50,335</text><rect x="236" y="116" width="64" height="224" rx="5" fill="#7c3aed"/><text x="268.0" y="368" text-anchor="middle" fill="#475569" font-size="14">2003</text><text x="268.0" y="108" text-anchor="middle" fill="#172033" font-size="13" font-weight="700">47,719</text><rect x="314" y="106" width="64" height="234" rx="5" fill="#7c3aed"/><text x="346.0" y="368" text-anchor="middle" fill="#475569" font-size="14">2004</text><text x="346.0" y="98" text-anchor="middle" fill="#172033" font-size="13" font-weight="700">49,890</text><rect x="392" y="118" width="64" height="222" rx="5" fill="#7c3aed"/><text x="424.0" y="368" text-anchor="middle" fill="#475569" font-size="14">2005</text><text x="424.0" y="110" text-anchor="middle" fill="#172033" font-size="13" font-weight="700">47,352</text><rect x="470" y="144" width="64" height="196" rx="5" fill="#7c3aed"/><text x="502.0" y="368" text-anchor="middle" fill="#475569" font-size="14">2006</text><text x="502.0" y="136" text-anchor="middle" fill="#172033" font-size="13" font-weight="700">41,836</text><rect x="548" y="157" width="64" height="183" rx="5" fill="#7c3aed"/><text x="580.0" y="368" text-anchor="middle" fill="#475569" font-size="14">2007</text><text x="580.0" y="149" text-anchor="middle" fill="#172033" font-size="13" font-weight="700">38,982</text><rect x="626" y="145" width="64" height="195" rx="5" fill="#7c3aed"/><text x="658.0" y="368" text-anchor="middle" fill="#475569" font-size="14">2008</text><text x="658.0" y="137" text-anchor="middle" fill="#172033" font-size="13" font-weight="700">41,513</text><rect x="704" y="134" width="64" height="206" rx="5" fill="#7c3aed"/><text x="736.0" y="368" text-anchor="middle" fill="#475569" font-size="14">2009</text><text x="736.0" y="126" text-anchor="middle" fill="#172033" font-size="13" font-weight="700">43,953</text><rect x="782" y="163" width="64" height="177" rx="5" fill="#7c3aed"/><text x="814.0" y="368" text-anchor="middle" fill="#475569" font-size="14">2010</text><text x="814.0" y="155" text-anchor="middle" fill="#172033" font-size="13" font-weight="700">37,701</text><rect x="860" y="180" width="64" height="160" rx="5" fill="#7c3aed"/><text x="892.0" y="368" text-anchor="middle" fill="#475569" font-size="14">2011</text><text x="892.0" y="172" text-anchor="middle" fill="#172033" font-size="13" font-weight="700">34,084</text>
</svg>