<svg xmlns="http://www.w3.org/2000/svg" width="1000" height="420" viewBox="0 0 1000 420" role="img" aria-label="Yearly citation mass 2000-2006">
<rect width="100%" height="100%" fill="#ffffff"/>
<text x="32" y="38" fill="#0f172a" font-size="24" font-weight="800">Yearly Citation Mass, 2000-2006</text>
<text x="32" y="60" fill="#64748b" font-size="14">Citation counts among visible selected papers</text>
<line x1="80" y1="340" x2="930" y2="340" stroke="#cbd5e1" stroke-width="2"/>
<rect x="80" y="85" width="109" height="255" rx="5" fill="#7c3aed"/><text x="134.5" y="368" text-anchor="middle" fill="#475569" font-size="14">2000</text><text x="134.5" y="77" text-anchor="middle" fill="#172033" font-size="13" font-weight="700">50,901</text><rect x="203" y="70" width="109" height="270" rx="5" fill="#7c3aed"/><text x="257.5" y="368" text-anchor="middle" fill="#475569" font-size="14">2001</text><text x="257.5" y="62" text-anchor="middle" fill="#172033" font-size="13" font-weight="700">53,778</text><rect x="326" y="128" width="109" height="212" rx="5" fill="#7c3aed"/><text x="380.5" y="368" text-anchor="middle" fill="#475569" font-size="14">2002</text><text x="380.5" y="120" text-anchor="middle" fill="#172033" font-size="13" font-weight="700">42,298</text><rect x="449" y="139" width="109" height="201" rx="5" fill="#7c3aed"/><text x="503.5" y="368" text-anchor="middle" fill="#475569" font-size="14">2003</text><text x="503.5" y="131" text-anchor="middle" fill="#172033" font-size="13" font-weight="700">40,138</text><rect x="572" y="128" width="109" height="212" rx="5" fill="#7c3aed"/><text x="626.5" y="368" text-anchor="middle" fill="#475569" font-size="14">2004</text><text x="626.5" y="120" text-anchor="middle" fill="#172033" font-size="13" font-weight="700">42,252</text><rect x="695" y="131" width="109" height="209" rx="5" fill="#7c3aed"/><text x="749.5" y="368" text-anchor="middle" fill="#475569" font-size="14">2005</text><text x="749.5" y="123" text-anchor="middle" fill="#172033" font-size="13" font-weight="700">41,685</text><rect x="818" y="142" width="109" height="198" rx="5" fill="#7c3aed"/><text x="872.5" y="368" text-anchor="middle" fill="#475569" font-size="14">2006</text><text x="872.5" y="134" text-anchor="middle" fill="#172033" font-size="13" font-weight="700">39,573</text>
</svg>