<svg xmlns="http://www.w3.org/2000/svg" width="1000" height="420" viewBox="0 0 1000 420" role="img" aria-label="Yearly citation mass 2000-2020">
<rect width="100%" height="100%" fill="#ffffff"/>
<text x="32" y="38" fill="#0f172a" font-size="24" font-weight="800">Yearly Citation Mass, 2000-2020</text>
<text x="32" y="60" fill="#64748b" font-size="14">Citation counts among visible selected papers</text>
<line x1="80" y1="340" x2="930" y2="340" stroke="#cbd5e1" stroke-width="2"/>
<rect x="80" y="85" width="27" height="255" rx="5" fill="#7c3aed"/><text x="93.5" y="368" text-anchor="middle" fill="#475569" font-size="14">2000</text><text x="93.5" y="77" text-anchor="middle" fill="#172033" font-size="13" font-weight="700">50,901</text><rect x="121" y="70" width="27" height="270" rx="5" fill="#7c3aed"/><text x="134.5" y="368" text-anchor="middle" fill="#475569" font-size="14">2001</text><text x="134.5" y="62" text-anchor="middle" fill="#172033" font-size="13" font-weight="700">53,778</text><rect x="162" y="128" width="27" height="212" rx="5" fill="#7c3aed"/><text x="175.5" y="368" text-anchor="middle" fill="#475569" font-size="14">2002</text><text x="175.5" y="120" text-anchor="middle" fill="#172033" font-size="13" font-weight="700">42,298</text><rect x="203" y="139" width="27" height="201" rx="5" fill="#7c3aed"/><text x="216.5" y="368" text-anchor="middle" fill="#475569" font-size="14">2003</text><text x="216.5" y="131" text-anchor="middle" fill="#172033" font-size="13" font-weight="700">40,138</text><rect x="244" y="128" width="27" height="212" rx="5" fill="#7c3aed"/><text x="257.5" y="368" text-anchor="middle" fill="#475569" font-size="14">2004</text><text x="257.5" y="120" text-anchor="middle" fill="#172033" font-size="13" font-weight="700">42,252</text><rect x="285" y="131" width="27" height="209" rx="5" fill="#7c3aed"/><text x="298.5" y="368" text-anchor="middle" fill="#475569" font-size="14">2005</text><text x="298.5" y="123" text-anchor="middle" fill="#172033" font-size="13" font-weight="700">41,685</text><rect x="326" y="142" width="27" height="198" rx="5" fill="#7c3aed"/><text x="339.5" y="368" text-anchor="middle" fill="#475569" font-size="14">2006</text><text x="339.5" y="134" text-anchor="middle" fill="#172033" font-size="13" font-weight="700">39,573</text><rect x="367" y="157" width="27" height="183" rx="5" fill="#7c3aed"/><text x="380.5" y="368" text-anchor="middle" fill="#475569" font-size="14">2007</text><text x="380.5" y="149" text-anchor="middle" fill="#172033" font-size="13" font-weight="700">36,545</text><rect x="408" y="148" width="27" height="192" rx="5" fill="#7c3aed"/><text x="421.5" y="368" text-anchor="middle" fill="#475569" font-size="14">2008</text><text x="421.5" y="140" text-anchor="middle" fill="#172033" font-size="13" font-weight="700">38,309</text><rect x="449" y="138" width="27" height="202" rx="5" fill="#7c3aed"/><text x="462.5" y="368" text-anchor="middle" fill="#475569" font-size="14">2009</text><text x="462.5" y="130" text-anchor="middle" fill="#172033" font-size="13" font-weight="700">40,313</text><rect x="490" y="177" width="27" height="163" rx="5" fill="#7c3aed"/><text x="503.5" y="368" text-anchor="middle" fill="#475569" font-size="14">2010</text><text x="503.5" y="169" text-anchor="middle" fill="#172033" font-size="13" font-weight="700">32,551</text><rect x="531" y="184" width="27" height="156" rx="5" fill="#7c3aed"/><text x="544.5" y="368" text-anchor="middle" fill="#475569" font-size="14">2011</text><text x="544.5" y="176" text-anchor="middle" fill="#172033" font-size="13" font-weight="700">31,243</text><rect x="572" y="193" width="27" height="147" rx="5" fill="#7c3aed"/><text x="585.5" y="368" text-anchor="middle" fill="#475569" font-size="14">2012</text><text x="585.5" y="185" text-anchor="middle" fill="#172033" font-size="13" font-weight="700">29,411</text><rect x="613" y="174" width="27" height="166" rx="5" fill="#7c3aed"/><text x="626.5" y="368" text-anchor="middle" fill="#475569" font-size="14">2013</text><text x="626.5" y="166" text-anchor="middle" fill="#172033" font-size="13" font-weight="700">33,132</text><rect x="654" y="199" width="27" height="141" rx="5" fill="#7c3aed"/><text x="667.5" y="368" text-anchor="middle" fill="#475569" font-size="14">2014</text><text x="667.5" y="191" text-anchor="middle" fill="#172033" font-size="13" font-weight="700">28,205</text><rect x="695" y="214" width="27" height="126" rx="5" fill="#7c3aed"/><text x="708.5" y="368" text-anchor="middle" fill="#475569" font-size="14">2015</text><text x="708.5" y="206" text-anchor="middle" fill="#172033" font-size="13" font-weight="700">25,285</text><rect x="736" y="240" width="27" height="100" rx="5" fill="#7c3aed"/><text x="749.5" y="368" text-anchor="middle" fill="#475569" font-size="14">2016</text><text x="749.5" y="232" text-anchor="middle" fill="#172033" font-size="13" font-weight="700">20,081</text><rect x="777" y="187" width="27" height="153" rx="5" fill="#7c3aed"/><text x="790.5" y="368" text-anchor="middle" fill="#475569" font-size="14">2017</text><text x="790.5" y="179" text-anchor="middle" fill="#172033" font-size="13" font-weight="700">30,555</text><rect x="818" y="227" width="27" height="113" rx="5" fill="#7c3aed"/><text x="831.5" y="368" text-anchor="middle" fill="#475569" font-size="14">2018</text><text x="831.5" y="219" text-anchor="middle" fill="#172033" font-size="13" font-weight="700">22,580</text><rect x="859" y="212" width="27" height="128" rx="5" fill="#7c3aed"/><text x="872.5" y="368" text-anchor="middle" fill="#475569" font-size="14">2019</text><text x="872.5" y="204" text-anchor="middle" fill="#172033" font-size="13" font-weight="700">25,570</text><rect x="900" y="157" width="27" height="183" rx="5" fill="#7c3aed"/><text x="913.5" y="368" text-anchor="middle" fill="#475569" font-size="14">2020</text><text x="913.5" y="149" text-anchor="middle" fill="#172033" font-size="13" font-weight="700">36,586</text>
</svg>