<svg xmlns="http://www.w3.org/2000/svg" width="1000" height="420" viewBox="0 0 1000 420" role="img" aria-label="Yearly citation mass 2003-2019">
<rect width="100%" height="100%" fill="#ffffff"/>
<text x="32" y="38" fill="#0f172a" font-size="24" font-weight="800">Yearly Citation Mass, 2003-2019</text>
<text x="32" y="60" fill="#64748b" font-size="14">Citation counts among visible selected papers</text>
<line x1="80" y1="340" x2="930" y2="340" stroke="#cbd5e1" stroke-width="2"/>
<rect x="80" y="88" width="36" height="252" rx="5" fill="#7c3aed"/><text x="98.0" y="368" text-anchor="middle" fill="#475569" font-size="14">2003</text><text x="98.0" y="80" text-anchor="middle" fill="#172033" font-size="13" font-weight="700">47,719</text><rect x="130" y="77" width="36" height="263" rx="5" fill="#7c3aed"/><text x="148.0" y="368" text-anchor="middle" fill="#475569" font-size="14">2004</text><text x="148.0" y="69" text-anchor="middle" fill="#172033" font-size="13" font-weight="700">49,890</text><rect x="180" y="90" width="36" height="250" rx="5" fill="#7c3aed"/><text x="198.0" y="368" text-anchor="middle" fill="#475569" font-size="14">2005</text><text x="198.0" y="82" text-anchor="middle" fill="#172033" font-size="13" font-weight="700">47,352</text><rect x="230" y="119" width="36" height="221" rx="5" fill="#7c3aed"/><text x="248.0" y="368" text-anchor="middle" fill="#475569" font-size="14">2006</text><text x="248.0" y="111" text-anchor="middle" fill="#172033" font-size="13" font-weight="700">41,836</text><rect x="280" y="134" width="36" height="206" rx="5" fill="#7c3aed"/><text x="298.0" y="368" text-anchor="middle" fill="#475569" font-size="14">2007</text><text x="298.0" y="126" text-anchor="middle" fill="#172033" font-size="13" font-weight="700">38,982</text><rect x="330" y="121" width="36" height="219" rx="5" fill="#7c3aed"/><text x="348.0" y="368" text-anchor="middle" fill="#475569" font-size="14">2008</text><text x="348.0" y="113" text-anchor="middle" fill="#172033" font-size="13" font-weight="700">41,513</text><rect x="380" y="108" width="36" height="232" rx="5" fill="#7c3aed"/><text x="398.0" y="368" text-anchor="middle" fill="#475569" font-size="14">2009</text><text x="398.0" y="100" text-anchor="middle" fill="#172033" font-size="13" font-weight="700">43,953</text><rect x="430" y="141" width="36" height="199" rx="5" fill="#7c3aed"/><text x="448.0" y="368" text-anchor="middle" fill="#475569" font-size="14">2010</text><text x="448.0" y="133" text-anchor="middle" fill="#172033" font-size="13" font-weight="700">37,701</text><rect x="480" y="160" width="36" height="180" rx="5" fill="#7c3aed"/><text x="498.0" y="368" text-anchor="middle" fill="#475569" font-size="14">2011</text><text x="498.0" y="152" text-anchor="middle" fill="#172033" font-size="13" font-weight="700">34,084</text><rect x="530" y="145" width="36" height="195" rx="5" fill="#7c3aed"/><text x="548.0" y="368" text-anchor="middle" fill="#475569" font-size="14">2012</text><text x="548.0" y="137" text-anchor="middle" fill="#172033" font-size="13" font-weight="700">37,002</text><rect x="580" y="152" width="36" height="188" rx="5" fill="#7c3aed"/><text x="598.0" y="368" text-anchor="middle" fill="#475569" font-size="14">2013</text><text x="598.0" y="144" text-anchor="middle" fill="#172033" font-size="13" font-weight="700">35,595</text><rect x="630" y="177" width="36" height="163" rx="5" fill="#7c3aed"/><text x="648.0" y="368" text-anchor="middle" fill="#475569" font-size="14">2014</text><text x="648.0" y="169" text-anchor="middle" fill="#172033" font-size="13" font-weight="700">30,999</text><rect x="680" y="70" width="36" height="270" rx="5" fill="#7c3aed"/><text x="698.0" y="368" text-anchor="middle" fill="#475569" font-size="14">2015</text><text x="698.0" y="62" text-anchor="middle" fill="#172033" font-size="13" font-weight="700">51,060</text><rect x="730" y="203" width="36" height="137" rx="5" fill="#7c3aed"/><text x="748.0" y="368" text-anchor="middle" fill="#475569" font-size="14">2016</text><text x="748.0" y="195" text-anchor="middle" fill="#172033" font-size="13" font-weight="700">26,012</text><rect x="780" y="123" width="36" height="217" rx="5" fill="#7c3aed"/><text x="798.0" y="368" text-anchor="middle" fill="#475569" font-size="14">2017</text><text x="798.0" y="115" text-anchor="middle" fill="#172033" font-size="13" font-weight="700">41,195</text><rect x="830" y="128" width="36" height="212" rx="5" fill="#7c3aed"/><text x="848.0" y="368" text-anchor="middle" fill="#475569" font-size="14">2018</text><text x="848.0" y="120" text-anchor="middle" fill="#172033" font-size="13" font-weight="700">40,175</text><rect x="880" y="109" width="36" height="231" rx="5" fill="#7c3aed"/><text x="898.0" y="368" text-anchor="middle" fill="#475569" font-size="14">2019</text><text x="898.0" y="101" text-anchor="middle" fill="#172033" font-size="13" font-weight="700">43,754</text>
</svg>