<svg xmlns="http://www.w3.org/2000/svg" width="1000" height="420" viewBox="0 0 1000 420" role="img" aria-label="Yearly citation mass 2009-2020">
<rect width="100%" height="100%" fill="#ffffff"/>
<text x="32" y="38" fill="#0f172a" font-size="24" font-weight="800">Yearly Citation Mass, 2009-2020</text>
<text x="32" y="60" fill="#64748b" font-size="14">Citation counts among visible selected papers</text>
<line x1="80" y1="340" x2="930" y2="340" stroke="#cbd5e1" stroke-width="2"/>
<rect x="80" y="70" width="58" height="270" rx="5" fill="#7c3aed"/><text x="109.0" y="368" text-anchor="middle" fill="#475569" font-size="14">2009</text><text x="109.0" y="62" text-anchor="middle" fill="#172033" font-size="13" font-weight="700">40,313</text><rect x="152" y="122" width="58" height="218" rx="5" fill="#7c3aed"/><text x="181.0" y="368" text-anchor="middle" fill="#475569" font-size="14">2010</text><text x="181.0" y="114" text-anchor="middle" fill="#172033" font-size="13" font-weight="700">32,551</text><rect x="224" y="131" width="58" height="209" rx="5" fill="#7c3aed"/><text x="253.0" y="368" text-anchor="middle" fill="#475569" font-size="14">2011</text><text x="253.0" y="123" text-anchor="middle" fill="#172033" font-size="13" font-weight="700">31,243</text><rect x="296" y="144" width="58" height="196" rx="5" fill="#7c3aed"/><text x="325.0" y="368" text-anchor="middle" fill="#475569" font-size="14">2012</text><text x="325.0" y="136" text-anchor="middle" fill="#172033" font-size="13" font-weight="700">29,411</text><rect x="368" y="119" width="58" height="221" rx="5" fill="#7c3aed"/><text x="397.0" y="368" text-anchor="middle" fill="#475569" font-size="14">2013</text><text x="397.0" y="111" text-anchor="middle" fill="#172033" font-size="13" font-weight="700">33,132</text><rect x="440" y="152" width="58" height="188" rx="5" fill="#7c3aed"/><text x="469.0" y="368" text-anchor="middle" fill="#475569" font-size="14">2014</text><text x="469.0" y="144" text-anchor="middle" fill="#172033" font-size="13" font-weight="700">28,205</text><rect x="512" y="171" width="58" height="169" rx="5" fill="#7c3aed"/><text x="541.0" y="368" text-anchor="middle" fill="#475569" font-size="14">2015</text><text x="541.0" y="163" text-anchor="middle" fill="#172033" font-size="13" font-weight="700">25,285</text><rect x="584" y="206" width="58" height="134" rx="5" fill="#7c3aed"/><text x="613.0" y="368" text-anchor="middle" fill="#475569" font-size="14">2016</text><text x="613.0" y="198" text-anchor="middle" fill="#172033" font-size="13" font-weight="700">20,081</text><rect x="656" y="136" width="58" height="204" rx="5" fill="#7c3aed"/><text x="685.0" y="368" text-anchor="middle" fill="#475569" font-size="14">2017</text><text x="685.0" y="128" text-anchor="middle" fill="#172033" font-size="13" font-weight="700">30,555</text><rect x="728" y="189" width="58" height="151" rx="5" fill="#7c3aed"/><text x="757.0" y="368" text-anchor="middle" fill="#475569" font-size="14">2018</text><text x="757.0" y="181" text-anchor="middle" fill="#172033" font-size="13" font-weight="700">22,580</text><rect x="800" y="169" width="58" height="171" rx="5" fill="#7c3aed"/><text x="829.0" y="368" text-anchor="middle" fill="#475569" font-size="14">2019</text><text x="829.0" y="161" text-anchor="middle" fill="#172033" font-size="13" font-weight="700">25,570</text><rect x="872" y="95" width="58" height="245" rx="5" fill="#7c3aed"/><text x="901.0" y="368" text-anchor="middle" fill="#475569" font-size="14">2020</text><text x="901.0" y="87" text-anchor="middle" fill="#172033" font-size="13" font-weight="700">36,586</text>
</svg>