<svg xmlns="http://www.w3.org/2000/svg" width="1000" height="420" viewBox="0 0 1000 420" role="img" aria-label="Yearly citation mass 2004-2025">
<rect width="100%" height="100%" fill="#ffffff"/>
<text x="32" y="38" fill="#0f172a" font-size="24" font-weight="800">Yearly Citation Mass, 2004-2025</text>
<text x="32" y="60" fill="#64748b" font-size="14">Citation counts among visible selected papers</text>
<line x1="80" y1="340" x2="930" y2="340" stroke="#cbd5e1" stroke-width="2"/>
<rect x="80" y="70" width="25" height="270" rx="5" fill="#7c3aed"/><text x="92.5" y="368" text-anchor="middle" fill="#475569" font-size="14">2004</text><text x="92.5" y="62" text-anchor="middle" fill="#172033" font-size="13" font-weight="700">42,252</text><rect x="119" y="74" width="25" height="266" rx="5" fill="#7c3aed"/><text x="131.5" y="368" text-anchor="middle" fill="#475569" font-size="14">2005</text><text x="131.5" y="66" text-anchor="middle" fill="#172033" font-size="13" font-weight="700">41,685</text><rect x="158" y="88" width="25" height="252" rx="5" fill="#7c3aed"/><text x="170.5" y="368" text-anchor="middle" fill="#475569" font-size="14">2006</text><text x="170.5" y="80" text-anchor="middle" fill="#172033" font-size="13" font-weight="700">39,573</text><rect x="197" y="107" width="25" height="233" rx="5" fill="#7c3aed"/><text x="209.5" y="368" text-anchor="middle" fill="#475569" font-size="14">2007</text><text x="209.5" y="99" text-anchor="middle" fill="#172033" font-size="13" font-weight="700">36,545</text><rect x="236" y="96" width="25" height="244" rx="5" fill="#7c3aed"/><text x="248.5" y="368" text-anchor="middle" fill="#475569" font-size="14">2008</text><text x="248.5" y="88" text-anchor="middle" fill="#172033" font-size="13" font-weight="700">38,309</text><rect x="275" y="83" width="25" height="257" rx="5" fill="#7c3aed"/><text x="287.5" y="368" text-anchor="middle" fill="#475569" font-size="14">2009</text><text x="287.5" y="75" text-anchor="middle" fill="#172033" font-size="13" font-weight="700">40,313</text><rect x="314" y="132" width="25" height="208" rx="5" fill="#7c3aed"/><text x="326.5" y="368" text-anchor="middle" fill="#475569" font-size="14">2010</text><text x="326.5" y="124" text-anchor="middle" fill="#172033" font-size="13" font-weight="700">32,551</text><rect x="353" y="141" width="25" height="199" rx="5" fill="#7c3aed"/><text x="365.5" y="368" text-anchor="middle" fill="#475569" font-size="14">2011</text><text x="365.5" y="133" text-anchor="middle" fill="#172033" font-size="13" font-weight="700">31,243</text><rect x="392" y="153" width="25" height="187" rx="5" fill="#7c3aed"/><text x="404.5" y="368" text-anchor="middle" fill="#475569" font-size="14">2012</text><text x="404.5" y="145" text-anchor="middle" fill="#172033" font-size="13" font-weight="700">29,411</text><rect x="431" y="129" width="25" height="211" rx="5" fill="#7c3aed"/><text x="443.5" y="368" text-anchor="middle" fill="#475569" font-size="14">2013</text><text x="443.5" y="121" text-anchor="middle" fill="#172033" font-size="13" font-weight="700">33,132</text><rect x="470" y="160" width="25" height="180" rx="5" fill="#7c3aed"/><text x="482.5" y="368" text-anchor="middle" fill="#475569" font-size="14">2014</text><text x="482.5" y="152" text-anchor="middle" fill="#172033" font-size="13" font-weight="700">28,205</text><rect x="509" y="179" width="25" height="161" rx="5" fill="#7c3aed"/><text x="521.5" y="368" text-anchor="middle" fill="#475569" font-size="14">2015</text><text x="521.5" y="171" text-anchor="middle" fill="#172033" font-size="13" font-weight="700">25,285</text><rect x="548" y="212" width="25" height="128" rx="5" fill="#7c3aed"/><text x="560.5" y="368" text-anchor="middle" fill="#475569" font-size="14">2016</text><text x="560.5" y="204" text-anchor="middle" fill="#172033" font-size="13" font-weight="700">20,081</text><rect x="587" y="145" width="25" height="195" rx="5" fill="#7c3aed"/><text x="599.5" y="368" text-anchor="middle" fill="#475569" font-size="14">2017</text><text x="599.5" y="137" text-anchor="middle" fill="#172033" font-size="13" font-weight="700">30,555</text><rect x="626" y="196" width="25" height="144" rx="5" fill="#7c3aed"/><text x="638.5" y="368" text-anchor="middle" fill="#475569" font-size="14">2018</text><text x="638.5" y="188" text-anchor="middle" fill="#172033" font-size="13" font-weight="700">22,580</text><rect x="665" y="177" width="25" height="163" rx="5" fill="#7c3aed"/><text x="677.5" y="368" text-anchor="middle" fill="#475569" font-size="14">2019</text><text x="677.5" y="169" text-anchor="middle" fill="#172033" font-size="13" font-weight="700">25,570</text><rect x="704" y="107" width="25" height="233" rx="5" fill="#7c3aed"/><text x="716.5" y="368" text-anchor="middle" fill="#475569" font-size="14">2020</text><text x="716.5" y="99" text-anchor="middle" fill="#172033" font-size="13" font-weight="700">36,586</text><rect x="743" y="219" width="25" height="121" rx="5" fill="#7c3aed"/><text x="755.5" y="368" text-anchor="middle" fill="#475569" font-size="14">2021</text><text x="755.5" y="211" text-anchor="middle" fill="#172033" font-size="13" font-weight="700">18,971</text><rect x="782" y="267" width="25" height="73" rx="5" fill="#7c3aed"/><text x="794.5" y="368" text-anchor="middle" fill="#475569" font-size="14">2022</text><text x="794.5" y="259" text-anchor="middle" fill="#172033" font-size="13" font-weight="700">11,479</text><rect x="821" y="277" width="25" height="63" rx="5" fill="#7c3aed"/><text x="833.5" y="368" text-anchor="middle" fill="#475569" font-size="14">2023</text><text x="833.5" y="269" text-anchor="middle" fill="#172033" font-size="13" font-weight="700">9,978</text><rect x="860" y="305" width="25" height="35" rx="5" fill="#7c3aed"/><text x="872.5" y="368" text-anchor="middle" fill="#475569" font-size="14">2024</text><text x="872.5" y="297" text-anchor="middle" fill="#172033" font-size="13" font-weight="700">5,525</text><rect x="899" y="325" width="25" height="15" rx="5" fill="#7c3aed"/><text x="911.5" y="368" text-anchor="middle" fill="#475569" font-size="14">2025</text><text x="911.5" y="317" text-anchor="middle" fill="#172033" font-size="13" font-weight="700">2,429</text>
</svg>