<svg xmlns="http://www.w3.org/2000/svg" width="1000" height="420" viewBox="0 0 1000 420" role="img" aria-label="Yearly citation mass 2005-2017">
<rect width="100%" height="100%" fill="#ffffff"/>
<text x="32" y="38" fill="#0f172a" font-size="24" font-weight="800">Yearly Citation Mass, 2005-2017</text>
<text x="32" y="60" fill="#64748b" font-size="14">Citation counts among visible selected papers</text>
<line x1="80" y1="340" x2="930" y2="340" stroke="#cbd5e1" stroke-width="2"/>
<rect x="80" y="70" width="52" height="270" rx="5" fill="#7c3aed"/><text x="106.0" y="368" text-anchor="middle" fill="#475569" font-size="14">2005</text><text x="106.0" y="62" text-anchor="middle" fill="#172033" font-size="13" font-weight="700">41,685</text><rect x="146" y="84" width="52" height="256" rx="5" fill="#7c3aed"/><text x="172.0" y="368" text-anchor="middle" fill="#475569" font-size="14">2006</text><text x="172.0" y="76" text-anchor="middle" fill="#172033" font-size="13" font-weight="700">39,573</text><rect x="212" y="104" width="52" height="236" rx="5" fill="#7c3aed"/><text x="238.0" y="368" text-anchor="middle" fill="#475569" font-size="14">2007</text><text x="238.0" y="96" text-anchor="middle" fill="#172033" font-size="13" font-weight="700">36,545</text><rect x="278" y="92" width="52" height="248" rx="5" fill="#7c3aed"/><text x="304.0" y="368" text-anchor="middle" fill="#475569" font-size="14">2008</text><text x="304.0" y="84" text-anchor="middle" fill="#172033" font-size="13" font-weight="700">38,309</text><rect x="344" y="79" width="52" height="261" rx="5" fill="#7c3aed"/><text x="370.0" y="368" text-anchor="middle" fill="#475569" font-size="14">2009</text><text x="370.0" y="71" text-anchor="middle" fill="#172033" font-size="13" font-weight="700">40,313</text><rect x="410" y="130" width="52" height="210" rx="5" fill="#7c3aed"/><text x="436.0" y="368" text-anchor="middle" fill="#475569" font-size="14">2010</text><text x="436.0" y="122" text-anchor="middle" fill="#172033" font-size="13" font-weight="700">32,551</text><rect x="476" y="138" width="52" height="202" rx="5" fill="#7c3aed"/><text x="502.0" y="368" text-anchor="middle" fill="#475569" font-size="14">2011</text><text x="502.0" y="130" text-anchor="middle" fill="#172033" font-size="13" font-weight="700">31,243</text><rect x="542" y="150" width="52" height="190" rx="5" fill="#7c3aed"/><text x="568.0" y="368" text-anchor="middle" fill="#475569" font-size="14">2012</text><text x="568.0" y="142" text-anchor="middle" fill="#172033" font-size="13" font-weight="700">29,411</text><rect x="608" y="126" width="52" height="214" rx="5" fill="#7c3aed"/><text x="634.0" y="368" text-anchor="middle" fill="#475569" font-size="14">2013</text><text x="634.0" y="118" text-anchor="middle" fill="#172033" font-size="13" font-weight="700">33,132</text><rect x="674" y="158" width="52" height="182" rx="5" fill="#7c3aed"/><text x="700.0" y="368" text-anchor="middle" fill="#475569" font-size="14">2014</text><text x="700.0" y="150" text-anchor="middle" fill="#172033" font-size="13" font-weight="700">28,205</text><rect x="740" y="177" width="52" height="163" rx="5" fill="#7c3aed"/><text x="766.0" y="368" text-anchor="middle" fill="#475569" font-size="14">2015</text><text x="766.0" y="169" text-anchor="middle" fill="#172033" font-size="13" font-weight="700">25,285</text><rect x="806" y="210" width="52" height="130" rx="5" fill="#7c3aed"/><text x="832.0" y="368" text-anchor="middle" fill="#475569" font-size="14">2016</text><text x="832.0" y="202" text-anchor="middle" fill="#172033" font-size="13" font-weight="700">20,081</text><rect x="872" y="143" width="52" height="197" rx="5" fill="#7c3aed"/><text x="898.0" y="368" text-anchor="middle" fill="#475569" font-size="14">2017</text><text x="898.0" y="135" text-anchor="middle" fill="#172033" font-size="13" font-weight="700">30,555</text>
</svg>