<svg xmlns="http://www.w3.org/2000/svg" width="1000" height="420" viewBox="0 0 1000 420" role="img" aria-label="Yearly citation mass 2010-2022">
<rect width="100%" height="100%" fill="#ffffff"/>
<text x="32" y="38" fill="#0f172a" font-size="24" font-weight="800">Yearly Citation Mass, 2010-2022</text>
<text x="32" y="60" fill="#64748b" font-size="14">Citation counts among visible selected papers</text>
<line x1="80" y1="340" x2="930" y2="340" stroke="#cbd5e1" stroke-width="2"/>
<rect x="80" y="141" width="52" height="199" rx="5" fill="#7c3aed"/><text x="106.0" y="368" text-anchor="middle" fill="#475569" font-size="14">2010</text><text x="106.0" y="133" text-anchor="middle" fill="#172033" font-size="13" font-weight="700">37,701</text><rect x="146" y="160" width="52" height="180" rx="5" fill="#7c3aed"/><text x="172.0" y="368" text-anchor="middle" fill="#475569" font-size="14">2011</text><text x="172.0" y="152" text-anchor="middle" fill="#172033" font-size="13" font-weight="700">34,084</text><rect x="212" y="145" width="52" height="195" rx="5" fill="#7c3aed"/><text x="238.0" y="368" text-anchor="middle" fill="#475569" font-size="14">2012</text><text x="238.0" y="137" text-anchor="middle" fill="#172033" font-size="13" font-weight="700">37,002</text><rect x="278" y="152" width="52" height="188" rx="5" fill="#7c3aed"/><text x="304.0" y="368" text-anchor="middle" fill="#475569" font-size="14">2013</text><text x="304.0" y="144" text-anchor="middle" fill="#172033" font-size="13" font-weight="700">35,595</text><rect x="344" y="177" width="52" height="163" rx="5" fill="#7c3aed"/><text x="370.0" y="368" text-anchor="middle" fill="#475569" font-size="14">2014</text><text x="370.0" y="169" text-anchor="middle" fill="#172033" font-size="13" font-weight="700">30,999</text><rect x="410" y="70" width="52" height="270" rx="5" fill="#7c3aed"/><text x="436.0" y="368" text-anchor="middle" fill="#475569" font-size="14">2015</text><text x="436.0" y="62" text-anchor="middle" fill="#172033" font-size="13" font-weight="700">51,060</text><rect x="476" y="203" width="52" height="137" rx="5" fill="#7c3aed"/><text x="502.0" y="368" text-anchor="middle" fill="#475569" font-size="14">2016</text><text x="502.0" y="195" text-anchor="middle" fill="#172033" font-size="13" font-weight="700">26,012</text><rect x="542" y="123" width="52" height="217" rx="5" fill="#7c3aed"/><text x="568.0" y="368" text-anchor="middle" fill="#475569" font-size="14">2017</text><text x="568.0" y="115" text-anchor="middle" fill="#172033" font-size="13" font-weight="700">41,195</text><rect x="608" y="128" width="52" height="212" rx="5" fill="#7c3aed"/><text x="634.0" y="368" text-anchor="middle" fill="#475569" font-size="14">2018</text><text x="634.0" y="120" text-anchor="middle" fill="#172033" font-size="13" font-weight="700">40,175</text><rect x="674" y="109" width="52" height="231" rx="5" fill="#7c3aed"/><text x="700.0" y="368" text-anchor="middle" fill="#475569" font-size="14">2019</text><text x="700.0" y="101" text-anchor="middle" fill="#172033" font-size="13" font-weight="700">43,754</text><rect x="740" y="109" width="52" height="231" rx="5" fill="#7c3aed"/><text x="766.0" y="368" text-anchor="middle" fill="#475569" font-size="14">2020</text><text x="766.0" y="101" text-anchor="middle" fill="#172033" font-size="13" font-weight="700">43,869</text><rect x="806" y="188" width="52" height="152" rx="5" fill="#7c3aed"/><text x="832.0" y="368" text-anchor="middle" fill="#475569" font-size="14">2021</text><text x="832.0" y="180" text-anchor="middle" fill="#172033" font-size="13" font-weight="700">28,778</text><rect x="872" y="236" width="52" height="104" rx="5" fill="#7c3aed"/><text x="898.0" y="368" text-anchor="middle" fill="#475569" font-size="14">2022</text><text x="898.0" y="228" text-anchor="middle" fill="#172033" font-size="13" font-weight="700">19,723</text>
</svg>