<svg xmlns="http://www.w3.org/2000/svg" width="1000" height="420" viewBox="0 0 1000 420" role="img" aria-label="Yearly citation mass 2000-2021">
<rect width="100%" height="100%" fill="#ffffff"/>
<text x="32" y="38" fill="#0f172a" font-size="24" font-weight="800">Yearly Citation Mass, 2000-2021</text>
<text x="32" y="60" fill="#64748b" font-size="14">Citation counts among visible selected papers</text>
<line x1="80" y1="340" x2="930" y2="340" stroke="#cbd5e1" stroke-width="2"/>
<rect x="80" y="85" width="25" height="255" rx="5" fill="#7c3aed"/><text x="92.5" y="368" text-anchor="middle" fill="#475569" font-size="14">2000</text><text x="92.5" y="77" text-anchor="middle" fill="#172033" font-size="13" font-weight="700">50,901</text><rect x="119" y="70" width="25" height="270" rx="5" fill="#7c3aed"/><text x="131.5" y="368" text-anchor="middle" fill="#475569" font-size="14">2001</text><text x="131.5" y="62" text-anchor="middle" fill="#172033" font-size="13" font-weight="700">53,778</text><rect x="158" y="128" width="25" height="212" rx="5" fill="#7c3aed"/><text x="170.5" y="368" text-anchor="middle" fill="#475569" font-size="14">2002</text><text x="170.5" y="120" text-anchor="middle" fill="#172033" font-size="13" font-weight="700">42,298</text><rect x="197" y="139" width="25" height="201" rx="5" fill="#7c3aed"/><text x="209.5" y="368" text-anchor="middle" fill="#475569" font-size="14">2003</text><text x="209.5" y="131" text-anchor="middle" fill="#172033" font-size="13" font-weight="700">40,138</text><rect x="236" y="128" width="25" height="212" rx="5" fill="#7c3aed"/><text x="248.5" y="368" text-anchor="middle" fill="#475569" font-size="14">2004</text><text x="248.5" y="120" text-anchor="middle" fill="#172033" font-size="13" font-weight="700">42,252</text><rect x="275" y="131" width="25" height="209" rx="5" fill="#7c3aed"/><text x="287.5" y="368" text-anchor="middle" fill="#475569" font-size="14">2005</text><text x="287.5" y="123" text-anchor="middle" fill="#172033" font-size="13" font-weight="700">41,685</text><rect x="314" y="142" width="25" height="198" rx="5" fill="#7c3aed"/><text x="326.5" y="368" text-anchor="middle" fill="#475569" font-size="14">2006</text><text x="326.5" y="134" text-anchor="middle" fill="#172033" font-size="13" font-weight="700">39,573</text><rect x="353" y="157" width="25" height="183" rx="5" fill="#7c3aed"/><text x="365.5" y="368" text-anchor="middle" fill="#475569" font-size="14">2007</text><text x="365.5" y="149" text-anchor="middle" fill="#172033" font-size="13" font-weight="700">36,545</text><rect x="392" y="148" width="25" height="192" rx="5" fill="#7c3aed"/><text x="404.5" y="368" text-anchor="middle" fill="#475569" font-size="14">2008</text><text x="404.5" y="140" text-anchor="middle" fill="#172033" font-size="13" font-weight="700">38,309</text><rect x="431" y="138" width="25" height="202" rx="5" fill="#7c3aed"/><text x="443.5" y="368" text-anchor="middle" fill="#475569" font-size="14">2009</text><text x="443.5" y="130" text-anchor="middle" fill="#172033" font-size="13" font-weight="700">40,313</text><rect x="470" y="177" width="25" height="163" rx="5" fill="#7c3aed"/><text x="482.5" y="368" text-anchor="middle" fill="#475569" font-size="14">2010</text><text x="482.5" y="169" text-anchor="middle" fill="#172033" font-size="13" font-weight="700">32,551</text><rect x="509" y="184" width="25" height="156" rx="5" fill="#7c3aed"/><text x="521.5" y="368" text-anchor="middle" fill="#475569" font-size="14">2011</text><text x="521.5" y="176" text-anchor="middle" fill="#172033" font-size="13" font-weight="700">31,243</text><rect x="548" y="193" width="25" height="147" rx="5" fill="#7c3aed"/><text x="560.5" y="368" text-anchor="middle" fill="#475569" font-size="14">2012</text><text x="560.5" y="185" text-anchor="middle" fill="#172033" font-size="13" font-weight="700">29,411</text><rect x="587" y="174" width="25" height="166" rx="5" fill="#7c3aed"/><text x="599.5" y="368" text-anchor="middle" fill="#475569" font-size="14">2013</text><text x="599.5" y="166" text-anchor="middle" fill="#172033" font-size="13" font-weight="700">33,132</text><rect x="626" y="199" width="25" height="141" rx="5" fill="#7c3aed"/><text x="638.5" y="368" text-anchor="middle" fill="#475569" font-size="14">2014</text><text x="638.5" y="191" text-anchor="middle" fill="#172033" font-size="13" font-weight="700">28,205</text><rect x="665" y="214" width="25" height="126" rx="5" fill="#7c3aed"/><text x="677.5" y="368" text-anchor="middle" fill="#475569" font-size="14">2015</text><text x="677.5" y="206" text-anchor="middle" fill="#172033" font-size="13" font-weight="700">25,285</text><rect x="704" y="240" width="25" height="100" rx="5" fill="#7c3aed"/><text x="716.5" y="368" text-anchor="middle" fill="#475569" font-size="14">2016</text><text x="716.5" y="232" text-anchor="middle" fill="#172033" font-size="13" font-weight="700">20,081</text><rect x="743" y="187" width="25" height="153" rx="5" fill="#7c3aed"/><text x="755.5" y="368" text-anchor="middle" fill="#475569" font-size="14">2017</text><text x="755.5" y="179" text-anchor="middle" fill="#172033" font-size="13" font-weight="700">30,555</text><rect x="782" y="227" width="25" height="113" rx="5" fill="#7c3aed"/><text x="794.5" y="368" text-anchor="middle" fill="#475569" font-size="14">2018</text><text x="794.5" y="219" text-anchor="middle" fill="#172033" font-size="13" font-weight="700">22,580</text><rect x="821" y="212" width="25" height="128" rx="5" fill="#7c3aed"/><text x="833.5" y="368" text-anchor="middle" fill="#475569" font-size="14">2019</text><text x="833.5" y="204" text-anchor="middle" fill="#172033" font-size="13" font-weight="700">25,570</text><rect x="860" y="157" width="25" height="183" rx="5" fill="#7c3aed"/><text x="872.5" y="368" text-anchor="middle" fill="#475569" font-size="14">2020</text><text x="872.5" y="149" text-anchor="middle" fill="#172033" font-size="13" font-weight="700">36,586</text><rect x="899" y="245" width="25" height="95" rx="5" fill="#7c3aed"/><text x="911.5" y="368" text-anchor="middle" fill="#475569" font-size="14">2021</text><text x="911.5" y="237" text-anchor="middle" fill="#172033" font-size="13" font-weight="700">18,971</text>
</svg>