<svg xmlns="http://www.w3.org/2000/svg" width="1000" height="420" viewBox="0 0 1000 420" role="img" aria-label="Yearly citation mass 2012-2023">
<rect width="100%" height="100%" fill="#ffffff"/>
<text x="32" y="38" fill="#0f172a" font-size="24" font-weight="800">Yearly Citation Mass, 2012-2023</text>
<text x="32" y="60" fill="#64748b" font-size="14">Citation counts among visible selected papers</text>
<line x1="80" y1="340" x2="930" y2="340" stroke="#cbd5e1" stroke-width="2"/>
<rect x="80" y="145" width="58" height="195" rx="5" fill="#7c3aed"/><text x="109.0" y="368" text-anchor="middle" fill="#475569" font-size="14">2012</text><text x="109.0" y="137" text-anchor="middle" fill="#172033" font-size="13" font-weight="700">37,002</text><rect x="152" y="152" width="58" height="188" rx="5" fill="#7c3aed"/><text x="181.0" y="368" text-anchor="middle" fill="#475569" font-size="14">2013</text><text x="181.0" y="144" text-anchor="middle" fill="#172033" font-size="13" font-weight="700">35,595</text><rect x="224" y="177" width="58" height="163" rx="5" fill="#7c3aed"/><text x="253.0" y="368" text-anchor="middle" fill="#475569" font-size="14">2014</text><text x="253.0" y="169" text-anchor="middle" fill="#172033" font-size="13" font-weight="700">30,999</text><rect x="296" y="70" width="58" height="270" rx="5" fill="#7c3aed"/><text x="325.0" y="368" text-anchor="middle" fill="#475569" font-size="14">2015</text><text x="325.0" y="62" text-anchor="middle" fill="#172033" font-size="13" font-weight="700">51,060</text><rect x="368" y="203" width="58" height="137" rx="5" fill="#7c3aed"/><text x="397.0" y="368" text-anchor="middle" fill="#475569" font-size="14">2016</text><text x="397.0" y="195" text-anchor="middle" fill="#172033" font-size="13" font-weight="700">26,012</text><rect x="440" y="123" width="58" height="217" rx="5" fill="#7c3aed"/><text x="469.0" y="368" text-anchor="middle" fill="#475569" font-size="14">2017</text><text x="469.0" y="115" text-anchor="middle" fill="#172033" font-size="13" font-weight="700">41,195</text><rect x="512" y="128" width="58" height="212" rx="5" fill="#7c3aed"/><text x="541.0" y="368" text-anchor="middle" fill="#475569" font-size="14">2018</text><text x="541.0" y="120" text-anchor="middle" fill="#172033" font-size="13" font-weight="700">40,175</text><rect x="584" y="109" width="58" height="231" rx="5" fill="#7c3aed"/><text x="613.0" y="368" text-anchor="middle" fill="#475569" font-size="14">2019</text><text x="613.0" y="101" text-anchor="middle" fill="#172033" font-size="13" font-weight="700">43,754</text><rect x="656" y="109" width="58" height="231" rx="5" fill="#7c3aed"/><text x="685.0" y="368" text-anchor="middle" fill="#475569" font-size="14">2020</text><text x="685.0" y="101" text-anchor="middle" fill="#172033" font-size="13" font-weight="700">43,869</text><rect x="728" y="188" width="58" height="152" rx="5" fill="#7c3aed"/><text x="757.0" y="368" text-anchor="middle" fill="#475569" font-size="14">2021</text><text x="757.0" y="180" text-anchor="middle" fill="#172033" font-size="13" font-weight="700">28,778</text><rect x="800" y="236" width="58" height="104" rx="5" fill="#7c3aed"/><text x="829.0" y="368" text-anchor="middle" fill="#475569" font-size="14">2022</text><text x="829.0" y="228" text-anchor="middle" fill="#172033" font-size="13" font-weight="700">19,723</text><rect x="872" y="206" width="58" height="134" rx="5" fill="#7c3aed"/><text x="901.0" y="368" text-anchor="middle" fill="#475569" font-size="14">2023</text><text x="901.0" y="198" text-anchor="middle" fill="#172033" font-size="13" font-weight="700">25,444</text>
</svg>